<?xml version="1.0" encoding="utf-8"?>
<!-- Generator: Adobe Illustrator 16.0.3, SVG Export Plug-In . SVG Version: 6.00 Build 0)  -->
<!DOCTYPE svg PUBLIC "-//W3C//DTD SVG 1.1//EN" "http://www.w3.org/Graphics/SVG/1.1/DTD/svg11.dtd">
<svg version="1.1" id="Layer_1" xmlns="http://www.w3.org/2000/svg" xmlns:xlink="http://www.w3.org/1999/xlink" x="0px" y="0px"
	 width="69.75px" height="60px" viewBox="0 0 69.75 60" enable-background="new 0 0 69.75 60" xml:space="preserve">
<g>
	<g>
		<path fill="#58585B" d="M22.219,41.02v11.31h-2.396V41.02H15.18v-2h11.683v2H22.219z"/>
		<path fill="#58585B" d="M31.645,47.682v-1.998h5.727v1.998H31.645z"/>
		<path fill="#58585B" d="M51.764,52.458l-3.646-5.341h-2.136v5.341h-2.407V39.075h5.887c0.879,0,1.599,0.13,2.154,0.388
			c0.562,0.26,1.002,0.587,1.329,0.984c0.328,0.396,0.556,0.834,0.681,1.309c0.129,0.477,0.188,0.93,0.188,1.361
			c0,1.006-0.258,1.863-0.766,2.576c-0.51,0.711-1.23,1.166-2.168,1.357l3.813,5.404L51.764,52.458L51.764,52.458z M51.346,43.105
			c0-0.547-0.146-0.979-0.432-1.295c-0.286-0.316-0.818-0.476-1.602-0.476h-3.33v3.604h3.076c0.686,0,1.217-0.119,1.594-0.358
			c0.234-0.154,0.412-0.356,0.521-0.61C51.289,43.718,51.346,43.43,51.346,43.105z"/>
		<path fill="#58585B" d="M9.859,52.458l-3.645-5.341H4.079v5.341H1.67V39.075h5.885c0.881,0,1.6,0.13,2.158,0.388
			c0.559,0.26,1.002,0.587,1.329,0.984c0.327,0.396,0.556,0.834,0.681,1.309c0.125,0.477,0.188,0.93,0.188,1.361
			c0,1.006-0.255,1.863-0.765,2.576c-0.51,0.711-1.232,1.166-2.168,1.357l3.813,5.404L9.859,52.458L9.859,52.458z M9.44,43.105
			c0-0.547-0.144-0.979-0.429-1.295c-0.287-0.315-0.82-0.476-1.603-0.476h-3.33v3.604h3.078c0.685,0,1.215-0.119,1.592-0.358
			c0.236-0.154,0.411-0.356,0.522-0.61C9.385,43.718,9.44,43.43,9.44,43.105z"/>
		<path fill="#58585B" d="M67.803,52.846l-5.813-5.939l-0.922,0.729v4.979h-2.404V39.247h2.404v5.627l2.135-1.903l4.371-3.828
			l1.693,1.777l-5.479,4.457l5.961,5.898L67.803,52.846z"/>
		<path fill="#58585B" d="M3.926,59.864c-0.223,0.043-0.429,0.069-0.879,0.069c-0.65,0-1.396-0.353-1.396-1.64v-0.733
			c0-1.297,0.746-1.639,1.396-1.639c0.334,0,0.656,0.051,0.891,0.085c0.048,0.009,0.084,0.021,0.084,0.068v0.271
			c0,0.031-0.01,0.059-0.063,0.059c-0.005,0-0.011,0-0.016,0c-0.189-0.016-0.583-0.047-0.891-0.047c-0.52,0-0.922,0.303-0.922,1.201
			v0.734c0,0.891,0.402,1.202,0.922,1.202c0.303,0,0.684-0.024,0.873-0.043c0.006,0,0.018,0,0.021,0
			c0.059,0,0.085,0.026,0.085,0.086v0.217C4.032,59.822,3.985,59.854,3.926,59.864z"/>
		<path fill="#58585B" d="M5.982,59.941c-0.805,0-1.387-0.486-1.387-1.658v-0.682c0-1.172,0.582-1.658,1.387-1.658
			c0.804,0,1.382,0.486,1.382,1.658v0.682C7.364,59.455,6.785,59.941,5.982,59.941z M6.893,57.604c0-0.888-0.348-1.227-0.91-1.227
			c-0.559,0-0.916,0.339-0.916,1.227v0.683c0,0.888,0.354,1.226,0.916,1.226c0.559,0,0.91-0.338,0.91-1.226V57.604z"/>
		<path fill="#58585B" d="M11.215,59.93h-0.252c-0.058,0-0.104-0.05-0.104-0.104v-3.4c0-0.011-0.013-0.016-0.017-0.016
			c-0.006,0-0.018,0-0.021,0.011l-0.715,1.813c-0.053,0.105-0.104,0.153-0.232,0.153h-0.18c-0.129,0-0.181-0.048-0.231-0.153
			l-0.699-1.756c-0.004-0.012-0.041-0.015-0.049-0.012c-0.007,0.001-0.027,0.01-0.027,0.02l-0.037,3.341
			c0,0.058-0.047,0.104-0.104,0.104H8.295c-0.058,0-0.104-0.05-0.104-0.104V56.12c0-0.086,0.065-0.155,0.149-0.155h0.336
			c0.092,0,0.266-0.003,0.303,0.077l0.714,1.849c0.021,0.047,0.036,0.057,0.062,0.057s0.043-0.01,0.063-0.057l0.731-1.845
			c0.037-0.085,0.191-0.081,0.284-0.081h0.337c0.082,0,0.148,0.069,0.148,0.155v3.705C11.319,59.88,11.272,59.93,11.215,59.93z"/>
		<path fill="#58585B" d="M66.453,59.93h-0.254c-0.057,0-0.102-0.05-0.102-0.104v-3.4c0-0.011-0.013-0.016-0.021-0.016
			c-0.007,0-0.017,0-0.021,0.011l-0.716,1.813c-0.054,0.105-0.104,0.153-0.231,0.153h-0.18c-0.129,0-0.181-0.048-0.23-0.153
			l-0.696-1.756c-0.007-0.012-0.041-0.015-0.052-0.012c-0.004,0.001-0.026,0.01-0.026,0.02l-0.034,3.341
			c0,0.058-0.048,0.104-0.104,0.104h-0.257c-0.057,0-0.104-0.05-0.104-0.104V56.12c0-0.086,0.067-0.155,0.149-0.155h0.336
			c0.093,0,0.267-0.003,0.304,0.077l0.713,1.849c0.021,0.047,0.037,0.057,0.063,0.057s0.041-0.01,0.063-0.057l0.73-1.845
			c0.037-0.085,0.189-0.081,0.283-0.081h0.336c0.082,0,0.148,0.069,0.148,0.155v3.705C66.557,59.88,66.51,59.93,66.453,59.93z"/>
		<path fill="#58585B" d="M13.189,58.338c-0.164,0-0.379-0.016-0.514-0.025v1.5c0,0.056-0.035,0.106-0.092,0.106h-0.277
			c-0.051,0-0.092-0.049-0.092-0.106v-3.721c0-0.076,0.047-0.124,0.123-0.135c0.221-0.025,0.555-0.042,0.852-0.042
			c0.83,0,1.438,0.299,1.438,1.159v0.068C14.626,58.034,14.02,58.338,13.189,58.338z M14.159,57.074c0-0.54-0.31-0.748-0.972-0.748
			c-0.157,0-0.389,0.011-0.512,0.021v1.563c0.117,0.005,0.379,0.021,0.512,0.021c0.703,0,0.972-0.233,0.972-0.789V57.074z"/>
		<path fill="#58585B" d="M21.281,56.398h-1.04v3.439c0,0.057-0.038,0.105-0.097,0.105H19.85c-0.053,0-0.096-0.049-0.096-0.105
			v-3.439h-1.041c-0.059,0-0.105-0.026-0.105-0.086v-0.235c0-0.054,0.048-0.097,0.105-0.097h2.567c0.06,0,0.103,0.037,0.103,0.097
			v0.235C21.383,56.366,21.34,56.398,21.281,56.398z"/>
		<path fill="#58585B" d="M24.157,59.92c-0.199,0.021-0.713,0.027-1.022,0.027c-0.734,0-1.117-0.279-1.117-0.979v-2.02
			c0-0.697,0.383-0.977,1.117-0.977c0.311,0,0.803,0.01,1.022,0.029c0.03,0.006,0.054,0.042,0.054,0.074v0.262
			c0,0.037-0.021,0.063-0.059,0.063h-1.014c-0.556,0-0.646,0.146-0.646,0.547v0.729h1.61c0.058,0,0.104,0.051,0.104,0.105v0.195
			c0,0.061-0.048,0.105-0.104,0.105h-1.61v0.882c0,0.397,0.09,0.546,0.646,0.546h1.014c0.035,0,0.059,0.024,0.059,0.063v0.267
			C24.211,59.879,24.189,59.915,24.157,59.92z"/>
		<path fill="#58585B" d="M27.526,59.93h-0.333c-0.063,0-0.096,0-0.137-0.07l-0.932-1.59c-0.016,0-0.031,0-0.047,0
			c-0.031,0-0.057,0-0.089,0c-0.171,0-0.296-0.006-0.572-0.018v1.57c0,0.053-0.036,0.104-0.094,0.104h-0.28
			c-0.052,0-0.095-0.049-0.095-0.104v-3.737c0-0.075,0.032-0.106,0.125-0.118c0.226-0.025,0.614-0.042,0.916-0.042
			c0.823,0,1.458,0.283,1.458,1.147v0.037c0,0.599-0.344,0.949-0.816,1.078l0.946,1.623c0.011,0.017,0.017,0.029,0.017,0.049
			C27.594,59.896,27.567,59.93,27.526,59.93z M26.979,57.072c0-0.534-0.338-0.711-0.988-0.711c-0.161,0-0.447,0-0.572,0.018v1.462
			c0.229,0.005,0.453,0.011,0.572,0.011c0.641,0,0.988-0.164,0.988-0.74V57.072z"/>
		<path fill="#58585B" d="M31.324,59.971c-0.344,0-0.652-0.016-0.852-0.048c-0.119-0.016-0.172-0.063-0.172-0.196V56.17
			c0-0.123,0.058-0.188,0.168-0.197c0.172-0.021,0.489-0.043,0.828-0.043c0.83,0,1.529,0.227,1.529,1.03v0.086
			c0,0.396-0.203,0.699-0.559,0.838c0.359,0.128,0.58,0.454,0.58,0.864v0.091C32.85,59.734,32.139,59.971,31.324,59.971z
			 M32.354,56.96c0-0.513-0.418-0.619-1.055-0.619c-0.178,0-0.371,0.011-0.517,0.017v1.324h0.804c0.604,0,0.768-0.3,0.768-0.636
			V56.96z M32.373,58.748c0-0.354-0.172-0.678-0.787-0.678h-0.804v1.469c0.172,0.004,0.358,0.021,0.542,0.021
			c0.646,0,1.049-0.146,1.049-0.725V58.748z"/>
		<path fill="#58585B" d="M17.983,58.146v-2.063c0-0.058-0.044-0.099-0.095-0.101c-0.002-0.002-0.004-0.002-0.006-0.002h-0.285
			c-0.058,0-0.1,0.049-0.1,0.103v2.163v0.148l0.006,1.099c-0.016,0-0.029,0.001-0.045,0.001c-0.136,0.005-0.279,0.016-0.422,0.02
			H16.96c-0.584,0.004-1.009-0.102-1.125-0.48c-0.037-0.123-0.057-0.268-0.063-0.43c-0.001-0.029-0.003-0.063-0.003-0.097v-2.424
			c0-0.06-0.047-0.103-0.1-0.103h-0.283c-0.06,0-0.102,0.049-0.102,0.103v2.424c0,0.067,0.004,0.196,0.004,0.196v0.09
			c0,0.305,0.092,0.527,0.236,0.691c0.332,0.375,0.949,0.438,1.436,0.438c0.057,0,0.108,0,0.161-0.002h0.022
			c0.269-0.005,0.505-0.021,0.666-0.046c0.121-0.019,0.174-0.063,0.174-0.194v-1.535V58.146z"/>
		<path opacity="0.2" fill="#58585B" enable-background="new    " d="M15.836,59.029c-0.007-0.021-0.012-0.037-0.016-0.061
			C15.825,58.991,15.829,59.012,15.836,59.029z"/>
		<path fill="#58585B" d="M37.889,59.947c-0.375,0-0.652-0.038-0.889-0.075c-0.09-0.017-0.102-0.036-0.102-0.095v-0.211
			c0-0.062,0.043-0.086,0.092-0.086c0.004,0,0.01,0,0.018,0c0.246,0.021,0.635,0.033,0.881,0.033c0.641,0,0.812-0.256,0.812-0.623
			c0-0.267-0.154-0.412-0.642-0.709l-0.52-0.313c-0.488-0.295-0.734-0.563-0.734-0.987c0-0.64,0.465-0.938,1.273-0.938
			c0.313,0,0.729,0.031,0.932,0.063c0.053,0.012,0.09,0.037,0.09,0.092v0.228c0,0.054-0.037,0.085-0.09,0.085
			c-0.006,0-0.006,0-0.014,0c-0.232-0.018-0.605-0.031-0.918-0.031c-0.549,0-0.783,0.116-0.783,0.502
			c0,0.248,0.178,0.396,0.58,0.641l0.492,0.291c0.619,0.362,0.838,0.653,0.838,1.078C39.207,59.396,38.939,59.947,37.889,59.947z"/>
		<path fill="#58585B" d="M42.045,59.921c-0.197,0.021-0.707,0.026-1.014,0.026c-0.727,0-1.107-0.275-1.107-0.967v-2.002
			c0-0.691,0.381-0.969,1.107-0.969c0.307,0,0.795,0.012,1.014,0.03c0.031,0.005,0.053,0.041,0.053,0.073v0.26
			c0,0.036-0.021,0.063-0.057,0.063h-1.004c-0.551,0-0.641,0.146-0.641,0.541V57.7h1.598c0.057,0,0.104,0.047,0.104,0.104v0.196
			c0,0.058-0.047,0.104-0.104,0.104h-1.598v0.875c0,0.396,0.09,0.541,0.641,0.541h1.004c0.035,0,0.057,0.023,0.057,0.063v0.268
			C42.098,59.88,42.076,59.916,42.045,59.921z"/>
		<path fill="#58585B" d="M43.924,59.957c-0.4,0-0.809-0.027-0.961-0.055c-0.07-0.012-0.111-0.053-0.111-0.133v-3.668
			c0-0.076,0.041-0.123,0.111-0.137c0.152-0.023,0.561-0.053,0.961-0.053c0.979,0,1.602,0.507,1.602,1.661v0.72
			C45.523,59.438,44.9,59.957,43.924,59.957z M45.043,57.576c0-0.967-0.486-1.244-1.119-1.244c-0.248,0-0.412,0.005-0.586,0.016
			v3.184c0.168,0.012,0.338,0.012,0.586,0.012c0.633,0,1.119-0.283,1.119-1.244V57.576z"/>
		<path fill="#58585B" d="M49.199,60c-0.373,0-0.65-0.037-0.887-0.074c-0.09-0.017-0.103-0.037-0.103-0.096v-0.214
			c0-0.06,0.043-0.087,0.092-0.087c0.005,0,0.011,0,0.017,0c0.246,0.021,0.635,0.033,0.881,0.033c0.641,0,0.813-0.256,0.813-0.631
			c0-0.27-0.154-0.416-0.641-0.718l-0.52-0.313c-0.49-0.299-0.736-0.57-0.736-1c0-0.646,0.465-0.943,1.275-0.943
			c0.313,0,0.727,0.033,0.93,0.064c0.053,0.012,0.092,0.037,0.092,0.09v0.229c0,0.056-0.039,0.086-0.092,0.086
			c-0.006,0-0.006,0-0.01,0c-0.236-0.017-0.609-0.03-0.92-0.03c-0.55,0-0.783,0.117-0.783,0.506c0,0.252,0.176,0.402,0.582,0.646
			l0.49,0.294c0.618,0.368,0.838,0.662,0.838,1.09C50.518,59.445,50.25,60,49.199,60z"/>
		<path fill="#58585B" d="M53.734,56.08l-0.902,1.811c-0.107,0.211-0.133,0.252-0.211,0.396V59.8c0,0.056-0.043,0.106-0.096,0.106
			h-0.293c-0.053,0-0.096-0.055-0.096-0.106v-1.513c-0.064-0.112-0.103-0.168-0.207-0.387l-0.9-1.817
			c-0.012-0.021-0.016-0.043-0.016-0.062c0-0.043,0.036-0.071,0.09-0.071h0.324c0.036,0,0.079,0.034,0.096,0.071l0.733,1.668
			c0.056,0.121,0.093,0.141,0.123,0.141c0.035,0,0.068-0.02,0.123-0.141l0.738-1.668c0.018-0.037,0.047-0.071,0.09-0.071h0.323
			c0.058,0,0.093,0.028,0.093,0.071C53.75,56.037,53.744,56.059,53.734,56.08z"/>
		<path fill="#58585B" d="M55.346,59.984c-0.375,0-0.652-0.036-0.889-0.074c-0.09-0.016-0.102-0.037-0.102-0.096V59.6
			c0-0.059,0.043-0.084,0.092-0.084c0.004,0,0.01,0,0.018,0c0.246,0.021,0.635,0.031,0.881,0.031c0.641,0,0.812-0.256,0.812-0.63
			c0-0.267-0.154-0.416-0.642-0.715l-0.52-0.315c-0.488-0.3-0.734-0.57-0.734-0.998c0-0.646,0.465-0.945,1.273-0.945
			c0.313,0,0.729,0.033,0.932,0.063c0.053,0.011,0.09,0.038,0.09,0.093v0.229c0,0.054-0.037,0.086-0.09,0.086
			c-0.006,0-0.006,0-0.014,0c-0.232-0.017-0.605-0.032-0.918-0.032c-0.549,0-0.781,0.117-0.781,0.51c0,0.25,0.176,0.397,0.578,0.646
			l0.492,0.293c0.619,0.369,0.838,0.663,0.838,1.09C56.664,59.43,56.396,59.984,55.346,59.984z"/>
		<path fill="#58585B" d="M59.773,56.398h-1.041v3.439c0,0.057-0.037,0.105-0.096,0.105h-0.296c-0.055,0-0.098-0.049-0.098-0.105
			v-3.439h-1.041c-0.062,0-0.104-0.026-0.104-0.086v-0.235c0-0.054,0.049-0.097,0.104-0.097h2.567c0.06,0,0.103,0.037,0.103,0.097
			v0.235C59.875,56.366,59.832,56.398,59.773,56.398z"/>
		<path fill="#58585B" d="M62.621,59.893c-0.197,0.021-0.707,0.025-1.014,0.025c-0.729,0-1.107-0.275-1.107-0.967V56.95
			c0-0.692,0.379-0.968,1.107-0.968c0.307,0,0.795,0.011,1.014,0.031c0.031,0.004,0.051,0.041,0.051,0.069v0.261
			c0,0.036-0.02,0.063-0.057,0.063h-1.004c-0.551,0-0.639,0.146-0.639,0.541v0.723h1.596c0.057,0,0.104,0.046,0.104,0.104v0.197
			c0,0.058-0.047,0.104-0.104,0.104h-1.596v0.874c0,0.396,0.088,0.541,0.639,0.541h1.004c0.037,0,0.057,0.022,0.057,0.063v0.266
			C62.672,59.852,62.652,59.887,62.621,59.893z"/>
		<path fill="#58585B" d="M68.361,59.949c-0.367,0-0.639-0.037-0.869-0.073c-0.09-0.017-0.1-0.036-0.1-0.094V59.57
			c0-0.057,0.041-0.084,0.088-0.084c0.006,0,0.012,0,0.016,0c0.242,0.021,0.625,0.033,0.865,0.033c0.629,0,0.797-0.252,0.797-0.619
			c0-0.262-0.152-0.408-0.629-0.702l-0.508-0.31c-0.482-0.295-0.726-0.563-0.726-0.979c0-0.636,0.457-0.929,1.254-0.929
			c0.31,0,0.714,0.029,0.912,0.063c0.054,0.01,0.088,0.036,0.088,0.089v0.226c0,0.055-0.034,0.084-0.088,0.084
			c-0.008,0-0.008,0-0.012,0c-0.229-0.017-0.603-0.029-0.9-0.029c-0.541,0-0.771,0.113-0.771,0.499c0,0.245,0.174,0.394,0.572,0.634
			l0.479,0.288c0.606,0.36,0.821,0.647,0.821,1.067C69.656,59.404,69.395,59.949,68.361,59.949z"/>
		<path fill="#58585B" d="M36.12,56.786c-0.011-0.443-0.349-0.808-0.782-0.856c-0.021-0.004-0.043-0.006-0.066-0.007v-0.001h-0.754
			c-0.012-0.001-0.024-0.002-0.036-0.002c-0.013,0-0.025,0.001-0.037,0.002h-0.021l0,0c-0.021,0.002-0.039,0.004-0.059,0.008
			c-0.416,0.053-0.741,0.396-0.77,0.817c-0.002,0.021-0.004,0.04-0.004,0.062c0,0.022,0.002,0.041,0.004,0.063v2.919
			c0,0.061,0.041,0.104,0.096,0.104h0.294c0.06,0,0.096-0.054,0.096-0.104v-1.495h1.554v1.495c0,0.061,0.043,0.104,0.098,0.104
			h0.293c0.059,0,0.097-0.054,0.097-0.104v-2.955c0.001-0.009,0.001-0.02,0.001-0.021C36.121,56.802,36.121,56.795,36.12,56.786z
			 M35.635,56.943V57.6v0.207h-1.554V57.6v-0.797v-0.021c0.005-0.21,0.167-0.384,0.373-0.401h0.002
			c0.001-0.001,0.002-0.003,0.002-0.004h0.8c0,0,0,0.001,0,0.002s0.002,0.001,0.002,0.001c0.17,0.004,0.316,0.112,0.375,0.267
			V56.943z"/>
	</g>
	<path fill="#58585B" d="M47.318,0c0.016,0.064,0.068,0.055,0.115,0.057c1.955,0.065,3.903,0.215,5.844,0.474
		c3.775,0.505,7.479,1.281,10.906,3.04c1.534,0.788,2.93,1.765,3.979,3.165c1.477,1.972,1.664,4.134,0.898,6.417
		c-0.582,1.739-1.588,3.232-2.765,4.618c-1.707,2.011-3.698,3.707-5.844,5.228c-2.572,1.826-5.234,3.503-8.14,4.771
		c-0.258,0.111-0.521,0.173-0.793,0.196c-0.592,0.048-0.99-0.304-1.035-0.898c-0.021-0.276,0.009-0.552,0.078-0.814
		c0.355-1.341,0.066-2.579-0.521-3.795c-1.903-3.939-6.724-5.241-10.418-3.371c-1.336,0.677-2.156,1.749-2.313,3.269
		c-0.084,0.803,0.138,1.549,0.486,2.26c0.787,1.602,2.021,2.778,3.512,3.724c0.515,0.326,1.096,0.507,1.617,0.813
		c0.234,0.14,0.473,0.277,0.66,0.48c0.17,0.184,0.305,0.389,0.221,0.659c-0.086,0.275-0.318,0.355-0.565,0.395
		c-0.759,0.114-1.523,0.084-2.283,0.047c-2.106-0.102-4.106-0.618-5.935-1.694c-2.054-1.208-3.64-2.862-4.552-5.08
		c-1.002-2.437-0.58-4.716,0.982-6.786c1.346-1.781,3.184-2.883,5.262-3.604c2.563-0.89,5.188-1.069,7.862-0.672
		c2.259,0.336,4.371,1.07,6.276,2.346c2.035,1.36,3.479,3.17,4.162,5.547c0.077,0.272,0.142,0.548,0.166,0.831
		c0.012,0.118,0.036,0.193,0.176,0.093c1.363-0.993,2.836-1.851,3.99-3.11c0.965-1.057,1.672-2.255,1.885-3.699
		c0.207-1.396-0.123-2.688-0.696-3.948c-1.132-2.488-3.067-4.109-5.517-5.201c-2.278-1.018-4.672-1.634-7.133-1.996
		c-3.521-0.52-7.068-0.78-10.634-0.759c-2.162,0.013-4.313,0.189-6.461,0.446c-5.064,0.604-10,1.791-14.843,3.374
		c-2.187,0.715-4.323,1.563-6.46,2.416c-0.694,0.278-1.406,0.553-2.184,0.39c-0.457-0.096-0.92-0.237-1.059-0.755
		C6.102,8.332,6.461,7.997,6.842,7.699C7.01,7.566,7.196,7.465,7.398,7.382c3.338-1.371,6.716-2.623,10.201-3.571
		c3.27-0.89,6.566-1.645,9.904-2.232c2.385-0.422,4.781-0.77,7.19-1.029c2.177-0.234,4.36-0.393,6.55-0.486
		c0.086-0.004,0.194,0.057,0.262-0.058c0.179,0,0.354,0,0.527,0c0.116,0.063,0.245,0.015,0.366,0.03c0.111,0,0.228,0,0.34,0
		c0.113,0,0.229,0,0.345,0c0.103,0,0.199,0,0.301,0c0.193-0.017,0.396,0.036,0.587-0.03c0.295,0,0.588,0,0.881,0
		c0.139,0.064,0.285,0.015,0.426,0.03c0.147,0,0.295,0,0.44,0c0.16-0.016,0.322,0.033,0.479-0.03c0.039,0,0.078,0,0.117,0
		c0.154,0.049,0.313,0.049,0.47,0C46.967,0,47.143,0,47.318,0z"/>
	<path fill="#58585B" d="M43.973,0c-0.188,0.116-0.395,0.037-0.588,0.058c-0.02-0.014-0.023-0.026-0.02-0.039
		C43.368,0.006,43.381,0,43.387,0C43.582,0,43.777,0,43.973,0z"/>
	<path fill="#58585B" d="M45.738,0.053c-0.158,0.001-0.314,0.002-0.471,0.003c-0.021-0.012-0.029-0.023-0.023-0.036
		C45.252,0.007,45.258,0,45.264,0c0.156,0,0.313,0,0.471,0c0.019,0.01,0.023,0.021,0.021,0.034
		C45.748,0.046,45.744,0.053,45.738,0.053z"/>
	<path fill="#58585B" d="M46.789,0c-0.156,0.1-0.313,0.081-0.469,0C46.477,0,46.633,0,46.789,0z"/>
	<path fill="#58585B" d="M45.738,0.053C45.734,0.035,45.734,0.018,45.734,0c0.156,0,0.313,0,0.469,0
		C46.061,0.124,45.893,0.031,45.738,0.053z"/>
	<path fill="#58585B" d="M45.264,0c0,0.019,0.002,0.037,0.004,0.056C45.129,0.038,44.979,0.112,44.854,0C44.99,0,45.127,0,45.264,0z
		"/>
	<path fill="#58585B" d="M43.09,0.052c-0.117-0.001-0.232-0.002-0.354-0.003c-0.016-0.012-0.021-0.023-0.014-0.034
		C42.729,0.005,42.734,0,42.742,0c0.115,0,0.234,0,0.352,0c0.021,0.013,0.025,0.024,0.02,0.036
		C43.104,0.047,43.098,0.052,43.09,0.052z"/>
	<path fill="#58585B" d="M42.742,0c-0.002,0.017-0.002,0.033-0.006,0.049c-0.115,0-0.232,0-0.35,0
		c-0.021-0.012-0.023-0.022-0.019-0.033C42.377,0.005,42.383,0,42.389,0C42.506,0,42.623,0,42.742,0z"/>
	<path fill="#58585B" d="M42.389,0c0,0.017,0,0.033-0.002,0.049C42.27,0.037,42.139,0.121,42.037,0C42.154,0,42.271,0,42.389,0z"/>
	<path fill="#58585B" d="M43.09,0.052C43.092,0.034,43.094,0.018,43.094,0c0.1,0,0.195,0,0.293,0c0,0.02,0,0.038-0.002,0.058
		C43.287,0.056,43.188,0.054,43.09,0.052z"/>
	<path fill="#58585B" d="M19.536,34.782c-2.704-0.013-5.297-0.157-7.862-0.632c-1.963-0.36-3.879-0.877-5.668-1.789
		c-1.054-0.535-2.021-1.192-2.781-2.11c-1.407-1.698-1.592-3.591-0.825-5.61c0.577-1.522,1.538-2.799,2.643-3.974
		c1.943-2.066,4.22-3.711,6.636-5.173c3.828-2.315,7.904-4.087,12.133-5.53c2.892-0.987,5.83-1.798,8.82-2.42
		c2-0.416,4.021-0.703,6.05-0.918c0.523-0.056,1.047-0.145,1.568,0c0.221,0.061,0.43,0.137,0.604,0.283
		c0.33,0.276,0.326,0.722-0.016,0.983c-0.268,0.203-0.582,0.27-0.904,0.302c-4.129,0.407-8.188,1.191-12.146,2.436
		c-3.269,1.025-6.405,2.351-9.28,4.234c-1.926,1.261-3.682,2.715-4.947,4.678c-0.688,1.066-1.151,2.219-1.198,3.501
		c-0.063,1.776,0.669,3.241,1.853,4.506c1.207,1.29,2.713,2.119,4.348,2.729c2.133,0.795,4.352,1.158,6.611,1.296
		c1.928,0.117,3.85,0.074,5.771-0.111c0.39-0.037,0.779-0.04,1.146,0.143c0.752,0.369,0.814,1.115,0.129,1.59
		c-0.504,0.351-1.088,0.484-1.67,0.595c-1.828,0.334-3.67,0.548-5.52,0.719C23.168,34.68,21.303,34.762,19.536,34.782z"/>
</g>
</svg>
