<?xml version="1.0" encoding="utf-8"?>
<!-- Generator: Adobe Illustrator 16.0.3, SVG Export Plug-In . SVG Version: 6.00 Build 0)  -->
<!DOCTYPE svg PUBLIC "-//W3C//DTD SVG 1.1//EN" "http://www.w3.org/Graphics/SVG/1.1/DTD/svg11.dtd">
<svg version="1.1" id="Layer_1" xmlns="http://www.w3.org/2000/svg" xmlns:xlink="http://www.w3.org/1999/xlink" x="0px" y="0px"
	 width="194.084px" height="19.417px" viewBox="0 0 194.084 19.417" enable-background="new 0 0 194.084 19.417"
	 xml:space="preserve">
<g>
	<path fill="#58585B" d="M79.888,18.046c-1.658,0-3.224,0-4.835,0c0-4.361,0-8.697,0-13.08c-1.655,0-3.267,0-4.951,0
		c0,4.342,0,8.691,0,13.072c-1.632,0-3.195,0-4.832,0c0-4.354,0-8.7,0-13.084c-1.686,0-3.296,0-4.954,0c0,4.356,0,8.691,0,13.072
		c-1.624,0-3.202,0-4.825,0c0-5.955,0-11.923,0-17.961c0.195,0,0.383,0,0.572,0C62.772,0.053,69.48,0.092,76.187,0
		c2.309-0.031,3.765,1.759,3.729,3.727c-0.086,4.57-0.028,9.145-0.028,13.715C79.888,17.634,79.888,17.824,79.888,18.046z"/>
	<path fill="#58585B" d="M94.985,18.072c-2.242,0-4.484,0.006-6.726-0.002c-1.941-0.004-3.397-1.342-3.42-3.281
		c-0.044-3.813-0.042-7.628-0.001-11.439c0.02-1.975,1.457-3.313,3.44-3.316c4.483-0.007,8.967-0.007,13.452,0
		c2.049,0.002,3.451,1.406,3.457,3.466c0.008,3.707,0.01,7.414,0,11.121c-0.006,2.051-1.424,3.447-3.476,3.449
		C99.468,18.076,97.226,18.072,94.985,18.072z M100.347,4.956c-3.587,0-7.104,0-10.632,0c-0.018,0.1-0.04,0.167-0.04,0.235
		c-0.004,2.539,0,5.079-0.011,7.62c-0.002,0.357,0.177,0.393,0.462,0.391c3.245-0.006,6.489-0.01,9.734,0.006
		c0.416,0.002,0.496-0.15,0.494-0.525c-0.015-2.045-0.008-4.092-0.008-6.139C100.347,6.036,100.347,5.525,100.347,4.956z"/>
	<path fill="#58585B" d="M37.402,10.669c-3.791,0-7.528,0-11.358,0c0,0.799-0.007,1.564,0.012,2.332
		c0.001,0.066,0.16,0.172,0.254,0.188c0.208,0.027,0.423,0.012,0.635,0.012c3.266,0,6.532,0,9.799,0c0.208,0,0.417,0,0.662,0
		c0,1.627,0,3.209,0,4.873c-0.166,0-0.333,0-0.501,0c-4.113,0-8.227,0.004-12.34-0.002c-1.931-0.004-3.363-1.408-3.367-3.328
		c-0.013-4.75-0.005-9.501-0.004-14.25c0-0.121,0.013-0.242,0.023-0.412c5.39,0,10.765,0,16.183,0c0,1.303,0,2.616,0,3.998
		c-3.765,0-7.532,0-11.329,0c0,0.869,0,1.669,0,2.527c3.788,0,7.54,0,11.332,0C37.402,7.975,37.402,9.287,37.402,10.669z"/>
	<path fill="#58585B" d="M146.753,18.072c-0.213,0-0.402,0-0.592,0c-4.042,0-8.084,0.002-12.125-0.002
		c-2.102,0-3.493-1.379-3.495-3.469c-0.004-4.66-0.001-9.32,0-13.979c0-0.172,0.015-0.346,0.022-0.553c5.406,0,10.779,0,16.193,0
		c0,1.328,0,2.64,0,4c-3.773,0-7.523,0-11.324,0c0,0.847,0,1.647,0,2.522c3.756,0,7.52,0,11.323,0c0,1.385,0,2.697,0,4.058
		c-3.769,0-7.519,0-11.321,0c0,0.861,0,1.674,0,2.539c3.772,0,7.523,0,11.319,0C146.753,14.832,146.753,16.423,146.753,18.072z"/>
	<path fill="#58585B" d="M151.79,0.03c0.225,0,0.434,0,0.639,0c4.82,0,9.641,0.051,14.459-0.023
		c2.146-0.033,3.633,1.717,3.604,3.631c-0.07,4.589-0.023,9.18-0.023,13.771c0,0.191,0,0.385,0,0.621c-1.607,0-3.184,0-4.828,0
		c0-4.338,0-8.686,0-13.071c-3.037,0-6.007,0-9.025,0c0,4.353,0,8.688,0,13.069c-1.624,0-3.203,0-4.827,0
		C151.79,12.078,151.79,6.104,151.79,0.03z"/>
	<path fill="#58585B" d="M180.345,4.92c-2.232,0-4.361,0-6.527,0c0-1.639,0-3.232,0-4.858c5.943,0,11.865,0,17.822,0
		c0,1.607,0,3.202,0,4.847c-2.144,0-4.271,0-6.468,0c0,4.399,0,8.746,0,13.129c-1.63,0-3.192,0-4.829,0
		C180.345,13.697,180.345,9.354,180.345,4.92z"/>
	<path fill="#58585B" d="M11.308,18.046c-1.623,0-3.189,0-4.8,0c0-4.361,0-8.697,0-13.098c-2.186,0-4.326,0-6.508,0
		c0-1.66,0-3.257,0-4.885c3.773,0,7.524,0,11.309,0C11.308,6.063,11.308,12.037,11.308,18.046z"/>
	<path fill="#58585B" d="M52.115,0.03c0,1.662,0,3.243,0,4.887c-1.616,0-3.211,0-4.848,0c0,4.398,0,8.73,0,13.111
		c-1.619,0-3.196,0-4.841,0c-0.006-0.162-0.021-0.348-0.021-0.531c-0.001-4.676-0.003-9.351,0-14.025
		c0.001-2.023,1.399-3.431,3.417-3.438c1.922-0.008,3.846-0.001,5.769-0.001C51.747,0.03,51.904,0.03,52.115,0.03z"/>
	<rect x="13.682" y="0.077" fill="#58585B" width="4.969" height="4.968"/>
	<path fill="#58585B" d="M123.302,0.02c-0.008,0-0.015,0.002-0.023,0.002l-0.52-0.003l-0.613,1.133l0.014-0.008
		c-1.438,2.703-2.891,5.399-4.34,8.097c-0.105,0.195-0.221,0.388-0.371,0.65c-0.141-0.248-0.246-0.428-0.344-0.609
		c-1.578-2.937-3.266-5.925-4.83-8.868c-0.02-0.034-0.034-0.055-0.051-0.084l-0.166-0.31l-1.01,0.007
		c-1.213,0.011-2.425,0.004-3.639,0.007c-0.146,0-0.317,0-0.521,0.02c3.523,6.559,7.039,13.085,10.563,19.642
		c3.533-6.574,7.025-13.076,10.564-19.663C126.367,0.03,124.835,0.047,123.302,0.02z"/>
</g>
</svg>
