<?xml version="1.0" encoding="utf-8"?>
<!-- Generator: Adobe Illustrator 16.0.3, SVG Export Plug-In . SVG Version: 6.00 Build 0)  -->
<!DOCTYPE svg PUBLIC "-//W3C//DTD SVG 1.1//EN" "http://www.w3.org/Graphics/SVG/1.1/DTD/svg11.dtd">
<svg version="1.1" id="Layer_1" xmlns="http://www.w3.org/2000/svg" xmlns:xlink="http://www.w3.org/1999/xlink" x="0px" y="0px"
	 width="56.667px" height="56.667px" viewBox="0 0 56.667 56.667" enable-background="new 0 0 56.667 56.667" xml:space="preserve">
<path fill="#58585B" d="M38.4,2.405C23.958-3.229,7.671,3.941,1.935,18.384c-2.561,6.454-2.458,13.316-0.41,19.46l0.512,0.309
	l0.269-0.537l0.039,0.025l2.868-6.966h9.424l2.049,5.226H12.69v0.92h13.112v-0.92h-4.507l-2.049-5.226h5.838v-9.012V20.74V8.961
	V8.857h7.682V8.96v11.779v0.921v7.989h-3.382v0.922h3.279v20.791h-3.279v0.92h7.787v-8.909V43.27h3.584
	c3.381,0,5.941-0.617,7.375-1.947c1.537-1.332,2.252-2.971,2.252-4.918c0-1.842-0.817-3.479-2.252-4.813
	c-1.434-1.332-3.688-1.945-6.555-1.945h-0.41h-3.994V8.961h3.994V7.936h-5.324h-3.073h-7.682h-2.664h-5.737V8.96h3.995v20.689
	h-1.835l-6.667-17.001h-0.614L2.128,35.662c-1.487-5.444-1.329-11.333,0.832-16.97C8.389,4.863,24.163-1.999,37.992,3.43
	c13.827,5.429,20.69,21.202,15.26,35.03c-5.43,13.826-21.101,20.69-34.929,15.263c-4.097-1.642-7.682-4.201-10.345-7.273
	c-0.512-0.615-0.717-0.922-0.922-1.537c-0.102-0.408-0.204-0.717-0.512-0.92c-0.307-0.205-0.614-0.205-0.922-0.104
	c-0.306,0.204-0.512,0.512-0.512,0.922c0,0.512,0.512,0.817,0.82,1.125c0.411,0.41,0.716,0.821,1.126,1.229
	c2.869,3.276,6.556,5.94,10.857,7.578c14.443,5.635,30.729-1.537,36.467-15.875C59.912,24.427,52.843,8.039,38.4,2.405z
	 M43.113,30.776c0.717,0.104,1.332,0.615,1.846,1.434c0.511,0.82,0.817,2.049,0.817,3.791c0,1.943-0.308,3.379-0.922,4.301
	s-1.33,1.537-2.151,1.74c-0.922,0.207-1.945,0.309-3.176,0.309h-2.355V30.673h3.994v-0.187
	C41.903,30.524,42.568,30.621,43.113,30.776z M9.925,19.511h0.102l4.199,10.138H5.521L9.925,19.511z"/>
</svg>
