<?xml version="1.0" encoding="utf-8"?>
<!-- Generator: Adobe Illustrator 16.0.3, SVG Export Plug-In . SVG Version: 6.00 Build 0)  -->
<!DOCTYPE svg PUBLIC "-//W3C//DTD SVG 1.1//EN" "http://www.w3.org/Graphics/SVG/1.1/DTD/svg11.dtd">
<svg version="1.1" id="Layer_1" xmlns="http://www.w3.org/2000/svg" xmlns:xlink="http://www.w3.org/1999/xlink" x="0px" y="0px"
	 width="63.5px" height="63px" viewBox="0 0 63.5 63" enable-background="new 0 0 63.5 63" xml:space="preserve">
<g>
	<g>
		<path fill="#58585B" d="M7.811,32.063c0,10.521,6.791,19.453,16.229,22.66v-5.592c-5.548-2.516-9.659-7.646-10.743-13.813H24.04
			v-5.725H13.173c0.862-6.514,5.085-11.979,10.866-14.599V9.399C14.602,12.606,7.811,21.542,7.811,32.063z"/>
		<path fill="#58585B" d="M24.153,54.885l-0.151-0.053C14.25,51.52,7.694,42.37,7.694,32.063s6.556-19.457,16.31-22.771l0.149-0.051
			v5.828L24.088,15.1c-5.787,2.621-9.909,8.123-10.781,14.381h10.847v5.953h-10.72c1.101,5.99,5.075,11.063,10.652,13.59
			l0.066,0.031L24.153,54.885L24.153,54.885z M23.922,9.561C14.349,12.885,7.924,21.907,7.924,32.063
			c0,10.152,6.424,19.177,15.998,22.5v-5.359c-5.653-2.587-9.667-7.764-10.741-13.862l-0.024-0.135h10.767V29.71H13.042l0.019-0.131
			c0.841-6.363,5.002-11.975,10.861-14.658V9.561z"/>
	</g>
	<g>
		<path fill="#58585B" d="M53.275,29.595H50.42h-2.373h-5.92V18.264c1.771,1.622,3.227,3.579,4.271,5.769h5.625
			c-2.451-6.876-7.951-12.304-14.877-14.644v5.59v34.166v5.592c9.457-3.195,16.265-12.142,16.265-22.674
			C53.408,31.229,53.359,30.406,53.275,29.595z M42.125,45.861V35.318h5.801C47.195,39.459,45.102,43.131,42.125,45.861z"/>
		<path fill="#58585B" d="M37.027,54.896V9.229l0.154,0.05c6.907,2.336,12.5,7.837,14.948,14.716l0.056,0.153h-5.859l-0.031-0.066
			c-1-2.095-2.361-3.961-4.053-5.555V29.48h11.137l0.012,0.103c0.088,0.842,0.135,1.675,0.135,2.479
			c0,10.323-6.567,19.479-16.342,22.782L37.027,54.896z M37.26,9.549v45.025c9.596-3.313,16.031-12.342,16.031-22.514
			c0-0.763-0.039-1.553-0.117-2.354H42.012V18.002l0.193,0.176c1.781,1.634,3.219,3.565,4.268,5.739h5.387
			C49.422,17.227,43.984,11.874,37.26,9.549z M42.012,46.121V35.205h6.051L48.04,35.34c-0.713,4.045-2.785,7.813-5.834,10.604
			L42.012,46.121z M42.242,35.434v10.164c2.871-2.713,4.836-6.307,5.547-10.164H42.242z"/>
	</g>
	<g>
		<g>
			<polygon fill="#58585B" points="35.035,9.559 35.063,9.405 27.533,9.405 27.27,13.743 			"/>
			<path fill="#58585B" d="M27.142,13.941l0.282-4.652h7.779l-0.063,0.345L27.142,13.941z M27.642,9.521l-0.245,4.022l7.471-4.022
				H27.642z"/>
		</g>
		<g>
			<polygon fill="#58585B" points="34.51,12.344 34.705,11.313 27.172,15.375 27.109,16.365 26.375,34.62 29.916,33.551 
				27.91,55.787 35.063,29.326 30.719,29.92 			"/>
			<path fill="#58585B" d="M28.021,55.816l-0.227-0.039l1.992-22.068l-3.533,1.071l0.004-0.163l0.738-18.256l0.063-1.057
				l7.803-4.208l-0.24,1.269l-3.754,17.42l4.355-0.596l-0.05,0.166L28.021,55.816z M30.045,33.391l-0.016,0.17l-1.888,20.929
				l6.767-25.024l-4.338,0.593l3.825-17.737l0.149-0.791l-7.267,3.917l-0.055,0.926l-0.726,18.093L30.045,33.391z"/>
		</g>
	</g>
	<g>
		<path fill="#58585B" d="M30.938,6.184c6.912,0,13.41,2.691,18.298,7.58c4.89,4.888,7.58,11.387,7.58,18.298
			c0,6.91-2.69,13.41-7.58,18.299c-4.889,4.886-11.387,7.578-18.298,7.578c-6.911,0-13.41-2.692-18.299-7.578
			C7.751,45.473,5.06,38.973,5.06,32.063c0-6.912,2.69-13.411,7.579-18.296C17.527,8.876,24.026,6.184,30.938,6.184 M30.938,1.24
			c-17.023,0-30.821,13.8-30.821,30.822s13.798,30.821,30.821,30.821S61.76,49.085,61.76,32.063S47.961,1.24,30.938,1.24
			L30.938,1.24z"/>
		<path fill="#58585B" d="M30.938,63C13.878,63,0,49.122,0,32.063S13.878,1.125,30.938,1.125c17.061,0,30.938,13.878,30.938,30.938
			C61.875,49.122,47.998,63,30.938,63z M30.938,1.355C14.004,1.355,0.23,15.13,0.23,32.063c0,16.934,13.774,30.705,30.707,30.705
			c16.934,0,30.706-13.771,30.706-30.705C61.645,15.13,47.871,1.355,30.938,1.355z M30.938,58.053
			c-6.941,0-13.468-2.703-18.381-7.607c-4.908-4.914-7.61-11.438-7.61-18.383c0-6.943,2.702-13.469,7.61-18.378
			c4.911-4.91,11.438-7.613,18.381-7.613s13.471,2.704,18.382,7.612c4.906,4.91,7.609,11.437,7.609,18.379
			c0,6.941-2.703,13.471-7.609,18.383C44.408,55.35,37.879,58.053,30.938,58.053z M30.938,6.299c-6.881,0-13.35,2.681-18.216,7.546
			C7.854,18.712,5.175,25.18,5.175,32.063c0,6.879,2.679,13.35,7.546,18.217c4.866,4.867,11.337,7.547,18.216,7.547
			c6.879,0,13.354-2.68,18.215-7.547c4.867-4.863,7.549-11.336,7.549-18.217c0-6.882-2.682-13.353-7.549-18.216
			C44.291,8.98,37.818,6.299,30.938,6.299z"/>
	</g>
</g>
</svg>
