<?xml version="1.0" encoding="utf-8"?>
<!-- Generator: Adobe Illustrator 16.0.3, SVG Export Plug-In . SVG Version: 6.00 Build 0)  -->
<!DOCTYPE svg PUBLIC "-//W3C//DTD SVG 1.1//EN" "http://www.w3.org/Graphics/SVG/1.1/DTD/svg11.dtd">
<svg version="1.1" id="Layer_1" xmlns="http://www.w3.org/2000/svg" xmlns:xlink="http://www.w3.org/1999/xlink" x="0px" y="0px"
	 width="117.225px" height="33.385px" viewBox="0 0 117.225 33.385" enable-background="new 0 0 117.225 33.385"
	 xml:space="preserve">
<g id="Layer_x0020_1">
	<g id="_749105600">
		<path fill="#58585B" d="M107.79,26.216c2.208-0.4,4.215-1.404,5.62-3.011c0.399-0.401,0.603-1.003,0.803-1.404
			c0.201-0.804-0.401-1.405-1.204-1.405c-0.401,0-1.004,0.2-1.405,0.604c-1.807,1.203-2.81,3.212-3.61,5.42L107.79,26.216z
			 M92.334,22.804c0-1.605-1.004-2.408-2.208-1.807c-0.604,0.201-1.004,0.603-1.605,1.205c-1.403,1.404-2.409,3.011-3.011,4.815
			c-0.201,0.604-0.201,1.005-0.201,1.605c0,1.004,0.604,1.604,1.809,1.403c1.004-0.201,1.807-0.803,2.407-1.604
			c1.204-1.204,2.009-2.812,2.408-4.416C92.134,23.606,92.134,23.005,92.334,22.804z M18.065,28.825v-0.2
			c-2.007-0.804-4.015-1.604-6.223-2.409c-1.204-0.4-2.408-0.4-3.612-0.4c-1.604,0-2.608,0.803-2.811,2.008
			c-0.201,1.203,0.603,2.207,2.007,2.811c3.814,1.405,7.227,0.4,10.438-1.604L18.065,28.825z M53.269,31.595
			c0.604-1.404,0.927-1.564,1.53-2.768l0,0c-0.201,0.199-0.402,0.199-0.402,0.4c-2.408,2.008-5.018,3.411-8.229,3.813
			c-0.604,0-1.405,0-2.007-0.201c-1.606-0.4-2.208-1.809-1.809-3.412c0-0.199,0-0.199,0.2-0.604c-0.2,0.201-0.401,0.402-0.602,0.604
			c-2.609,2.01-5.421,3.412-8.634,3.613c-2.607,0.199-5.018-0.401-7.427-1.204c-0.803-0.399-1.807-0.604-2.607-1.004
			c-0.401-0.201-0.805-0.201-1.204,0c-3.613,1.403-7.429,2.407-11.645,2.208c-2.207,0-4.415-0.401-6.623-1.204
			c-0.804-0.399-1.604-0.806-2.208-1.205C0.2,29.628,0.2,28.022,1.204,26.817c0.602-0.604,1.402-1.205,2.207-1.604
			c2.008-1.004,4.216-1.205,6.223-1.405c4.216-0.4,8.229,0.401,12.244,1.605c0.603,0.199,0.804,0.199,1.205-0.2
			c3.211-3.412,6.624-6.825,9.835-10.438c3.612-4.014,7.628-7.427,12.443-9.835c7.429-3.813,15.456-5.42,23.889-4.817
			c4.215,0.2,8.431,0.602,12.442,2.007c1.809,0.603,3.413,1.405,5.021,2.409c0.803,0.401,1.405,1.204,2.007,1.807
			c1.807,2.208,1.606,5.219-0.602,7.025c-2.01,1.604-4.218,2.007-6.624,2.208c-0.401-0.604-0.201-1.004,0.399-1.405
			c1.605-1.004,2.408-3.412,1.605-5.62c-0.604-1.606-1.605-3.012-3.211-3.814c-2.009-1.404-4.416-2.208-6.825-2.609
			c-4.215-0.803-8.431-1.003-12.646,0c-4.615,1.004-8.631,3.412-12.044,6.624c-2.208,2.008-4.215,4.216-6.223,6.424
			c-4.014,4.616-8.631,8.831-13.85,12.042c0,0-0.201,0.201-0.401,0.201c0.803,0.2,1.604,0.604,2.408,0.604
			c1.807,0.399,3.813,0.804,5.621,0.804c3.61,0.2,6.423-1.606,8.229-4.617c0.803-1.405,1.605-3.011,2.408-4.416
			c0.201-0.401,0.401-0.603,1.004-0.603c1.807,0,3.613,0,5.62,0c0.201,0,0.401,0,0.603,0c-0.199,0.201-0.199,0.4-0.399,0.603
			c-1.405,2.812-3.011,5.42-4.416,8.229c-0.201,0.399-0.604,1.004-0.201,1.403c0.402,0.401,1.004,0.401,1.405,0
			c0.803-0.399,1.807-0.803,2.607-1.403c1.809-1.404,3.212-3.211,4.416-5.221c0.604-1.203,1.204-2.208,1.809-3.41
			c0.199-0.201,0.399-0.402,0.603-0.402c2.208,0,4.215,0,6.423,0c-0.603,1.205-1.004,2.209-1.604,3.213l0,0
			c0.2-0.201,0.399-0.201,0.602-0.401c1.606-1.004,3.212-2.008,4.817-2.61c1.004-0.399,2.208-0.602,3.212-0.602
			c2.811,0,4.015,2.408,2.811,4.816c-0.603,1.205-1.205,2.408-1.807,3.412c-0.201,0.4-0.603,1.004-0.803,1.406
			c-0.401,0.803,0,1.403,1.003,1.202c0.603,0,1.004-0.198,1.405-0.603c0.603-0.401,1.202-0.805,1.807-1.204
			c0.201-0.2,0.401-0.603,0.603-0.804c0.805-4.215,4.817-8.028,8.832-8.631c0.805-0.201,1.808-0.201,2.609,0
			c1.604,0.199,2.81,0.803,3.412,2.407c1.405-2.608,2.607-5.218,4.015-7.626c0.2-0.401,0.401-0.603,1.003-0.603
			c2.008,0,3.814,0,6.022,0c-0.201,0.201-0.201,0.603-0.401,0.803c-2.409,4.816-5.019,9.634-7.427,14.452
			c-0.201,0.2-0.402,0.603-0.402,0.803c-0.2,0.804,0.201,1.205,0.806,1.004c0.602-0.2,1.202-0.401,1.807-0.603
			c0.401-0.2,0.602-0.401,0.803-0.401c0.804-0.401,1.204-1.003,1.605-2.007c1.204-4.215,4.416-6.624,8.631-7.828
			c1.405-0.4,3.012-0.604,4.617-0.201h0.198c1.205,0.401,2.409,1.004,2.61,2.409c0.2,1.405-0.402,2.408-1.405,3.211
			c-1.604,1.205-3.611,1.808-5.819,2.208c-0.604,0.201-1.204,0.201-2.007,0.402c-0.402,0-0.402,0.199-0.402,0.602
			c-0.2,1.605,1.004,2.811,2.811,3.012c1.405,0.2,3.013-0.201,4.416-0.804c0.805-0.401,1.605-0.803,2.609-1.004
			c0.201,1.004,0.201,1.205-0.604,1.606c-3.011,1.604-6.222,2.607-9.635,2.607c-0.602,0-1.003,0-1.604-0.199
			c-2.208-0.401-3.813-1.605-4.416-3.813c-0.604,0.401-1.004,0.803-1.605,1.204c-1.604,1.203-3.413,2.008-5.42,2.408
			c-2.608,0.4-3.813-0.4-4.215-3.01c-0.201,0.198-0.401,0.198-0.401,0.399c-1.403,1.003-2.811,2.007-4.615,2.407
			c-3.013,1.005-5.221-0.199-6.225-3.211c-0.2,0.199-0.399,0.4-0.602,0.4c-2.208,1.605-4.416,2.811-7.229,3.012
			c-0.399,0-1.004,0-1.403,0c-2.208-0.4-3.212-2.008-2.208-4.217c0.603-1.404,1.403-2.81,2.008-4.215
			c0.2-0.201,0.2-0.604,0.399-0.803c0.401-1.004-0.199-1.605-1.203-1.405c-0.805,0.201-1.808,0.604-2.408,1.005
			c-1.405,1.002-2.609,2.608-3.613,4.014c-0.803,1.404-1.605,3.013-2.609,4.416c-0.198,0.402-0.399,0.604-1.004,0.604
			C56.806,31.637,53.269,31.595,53.269,31.595z"/>
		<path fill="#58585B" d="M54.196,11.163c1.006,0,2.009,0.401,2.609,1.604c0.604,1.204,0.201,2.208-0.603,3.212
			c-1.003,1.204-2.408,1.806-4.016,1.404c-1.807-0.401-2.608-2.007-2.008-3.813c0.604-1.405,2.208-2.408,3.813-2.408h0.203V11.163z"
			/>
	</g>
</g>
</svg>
