<?xml version="1.0" encoding="utf-8"?>
<!-- Generator: Adobe Illustrator 16.0.3, SVG Export Plug-In . SVG Version: 6.00 Build 0)  -->
<!DOCTYPE svg PUBLIC "-//W3C//DTD SVG 1.1//EN" "http://www.w3.org/Graphics/SVG/1.1/DTD/svg11.dtd">
<svg version="1.1" id="Layer_1" xmlns="http://www.w3.org/2000/svg" xmlns:xlink="http://www.w3.org/1999/xlink" x="0px" y="0px"
	 width="111.083px" height="53.167px" viewBox="0 0 111.083 53.167" enable-background="new 0 0 111.083 53.167"
	 xml:space="preserve">
<path fill="#58585B" d="M77.918,18.221c0,0,3.272-2.133,2.99,1.707c0,0-1.279,8.248-1.141,12.088c0,0,0,6.826,1.141,8.104
	c0,0-1.141,0.145-3.272-0.283c0,0-1.705-5.262-1.991-13.511c0,0-0.143-6.543,0.711-7.11L77.918,18.221z M74.934,40.122h-3.699
	c0,0-4.122-8.816-2.561-33.703c0,0,5.974-5.547,6.257-1.281c0,0-1.991,18.345-1.705,20.905
	C73.229,26.042,72.943,31.872,74.934,40.122z M61.284,28.745L61.284,28.745c0,0-4.695,8.25-7.253,6.828
	c0,0-2.701-1.707,7.253-12.234V28.745z M66.402,24.335c-0.428-5.262-1.567-5.688-1.567-5.688
	c-3.555-2.275-10.235,5.403-10.235,5.403c-6.684,7.396-5.405,14.222-5.405,14.222c0.711,3.555,5.405,2.275,5.405,2.275
	c3.698-0.711,7.394-6.682,7.394-6.682c0.568,3.98,2.844,5.83,2.844,5.83h5.26C66.971,34.29,66.402,24.335,66.402,24.335z
	 M47.632,36.284l-0.284,0.281c0,0-3.271,4.834-9.1,5.121c0,0-7.537,0.568-7.678-5.262c0,0,0-6.826,4.691-11.662
	c0,0,4.694-5.404,8.818-5.545c0,0,3.98-0.566,5.688,3.7c0,0-1.139,2.988-4.266,2.417c0,0-0.569-0.854-1.422-1.28
	c0,0-1.708-0.853-3.983,1.991c0,0-7.11,7.961-3.127,11.377c0,0,3.555,2.559,10.238-5.262c0,0,0.568-0.566,0.996,1.564
	C48.343,34.577,48.057,35.573,47.632,36.284z M24.737,34.715L24.737,34.715c0,0-3.84,4.977-5.404,2.564
	c0,0-1.849-6.547,3.271-12.945c0,0,1.563-2.133,2.986-1.137C25.59,23.055,29.999,26.468,24.737,34.715z M26.301,18.647
	c-3.839-0.426-7.109,2.988-7.109,2.988c-4.551,4.548-5.12,10.807-5.12,10.807c-1.707,9.527,6.542,9.955,6.542,9.955
	c8.249,0,9.812-10.096,9.812-10.096C33.27,18.932,26.301,18.647,26.301,18.647z M101.243,2.435l-1.566,8.532h10.238
	c0,0,1.279,1.99-0.854,4.123h-9.671c0,0-3.41,29.01,1.422,28.299v2.418h-0.566c0,0-8.531,1.986-7.966-8.816l0.854-21.899h-9.102
	c0,0-0.566-3.697,1.85-4.122h8.105l0.145-4.834C94.273,6.134,99.678,1.582,101.243,2.435z M88.302,18.363
	c0,0,2.702-0.853,2.274,2.417c0,0-5.545,2.278-5.259,5.122c0,0,2.134,3.271,3.979,4.833c0,0,4.121,4.125,0.854,7.256
	c0,0-6.541,6.967-9.242,6.68c0,0-3.408-1.277-0.854-2.984c0,0,6.255-3.412,5.829-6.258c0,0,0.148-1.279-3.555-5.969
	c0,0-2.416-2.988-0.563-6.4C81.761,22.914,83.465,19.643,88.302,18.363z M38.958,49.364c0,0,0,0.143-0.145,0
	c-3.555-0.283-14.362-2.133-25.027,0.143c0,0-5.261,1.281-7.11,1.85c0,0-0.711,0.426-2.702-0.285c0,0-2.986-1.137-2.133-3.98
	c0,0,11.661-41.806,16.07-45.361c0,0,6.541-4.409,5.972,1.279L7.386,45.098c0,0-1.137,1.85,1.564,0.855
	c0,0,12.941-3.984,25.313-3.131c0,0,4.408,0,4.835,1.422C39.241,44.247,40.521,46.52,38.958,49.364z M105.083,18.221
	c0-0.285,0-0.711,0-0.996l0,0c-0.145,0.285-0.145,0.569-0.285,0.855l-0.426,1.136h-0.285l-0.426-1.136
	c-0.145-0.286-0.145-0.711-0.285-0.997l0,0c0,0.286,0,0.711,0,0.997v0.993h-0.285l0.144-2.415h0.429l0.428,1.136
	c0.142,0.286,0.142,0.568,0.283,0.855l0,0c0-0.285,0.145-0.567,0.282-0.855l0.429-1.136h0.428l0.142,2.415h-0.282L105.083,18.221z
	 M101.668,17.083h-0.711v-0.284h1.705v0.285h-0.711v2.275h-0.283V17.083z M67.542,48.083l1.984-2.559
	c0.428-0.428,0.711-0.711,0.997-1.139l0,0h-2.844v-1.564h5.261V44.1l-1.988,2.416c-0.429,0.428-0.711,0.855-0.994,1.139l0,0h3.271
	v1.564h-5.688V48.083z M60.43,44.958c0-0.854,0-1.422,0-1.99h1.705l0.142,0.855l0,0c0.286-0.43,0.854-0.996,1.991-0.996
	c1.277,0,2.275,0.855,2.275,2.846v3.838h-1.989v-3.555c0-0.854-0.286-1.422-0.997-1.422c-0.566,0-0.854,0.428-0.992,0.711
	c0,0.141,0,0.281,0,0.568v3.695H60.43V44.958L60.43,44.958z M56.733,48.225c0-0.711,0.426-1.277,1.137-1.277
	s1.139,0.426,1.139,1.277c0,0.711-0.428,1.281-1.139,1.281C57.299,49.506,56.733,48.936,56.733,48.225z M51.471,46.092
	L51.471,46.092c0,1.141,0.427,1.99,1.279,1.99c0.854,0,1.28-0.711,1.28-1.99c0-0.992-0.428-1.988-1.28-1.988
	C51.756,44.104,51.471,45.098,51.471,46.092z M56.165,45.952c0,2.418-1.708,3.412-3.413,3.412c-1.849,0-3.412-1.279-3.412-3.273
	c0-2.133,1.422-3.408,3.412-3.408C54.742,42.682,56.165,44.104,56.165,45.952z M48.768,49.081c-0.425,0.143-0.994,0.283-1.847,0.283
	c-2.133,0-3.413-1.279-3.413-3.273c0-1.848,1.28-3.408,3.698-3.408c0.568,0,1.138,0.143,1.565,0.283l-0.285,1.564
	c-0.284-0.143-0.568-0.143-1.138-0.143c-0.996,0-1.707,0.711-1.707,1.85c0,1.137,0.854,1.848,1.707,1.848
	c0.426,0,0.854-0.143,1.138-0.143L48.768,49.081z M40.38,48.225c0-0.711,0.426-1.277,1.137-1.277s1.137,0.428,1.137,1.277
	c0,0.711-0.426,1.281-1.137,1.281S40.38,48.936,40.38,48.225z M81.475,13.812l-5.402,1.422V9.119c0,0,4.119-1.137,5.402-1.137
	C82.754,7.982,81.475,13.812,81.475,13.812z"/>
</svg>
