<?xml version="1.0" encoding="utf-8"?>
<!-- Generator: Adobe Illustrator 16.0.3, SVG Export Plug-In . SVG Version: 6.00 Build 0)  -->
<!DOCTYPE svg PUBLIC "-//W3C//DTD SVG 1.1//EN" "http://www.w3.org/Graphics/SVG/1.1/DTD/svg11.dtd">
<svg version="1.1" id="Layer_1" xmlns="http://www.w3.org/2000/svg" xmlns:xlink="http://www.w3.org/1999/xlink" x="0px" y="0px"
	 width="143.667px" height="17.875px" viewBox="0 0 143.667 17.875" enable-background="new 0 0 143.667 17.875"
	 xml:space="preserve">
<path fill="#58585B" d="M32.262,4.028c-0.646-0.323-1.403-0.424-3.008-0.424h-7.591v10.154h3.886v-3.41h3.735
	c1.242,0,1.837-0.031,2.301-0.152c1.494-0.353,2.281-1.463,2.281-3.208C33.867,5.563,33.312,4.533,32.262,4.028z M29.103,7.824
	c-0.202,0.06-0.495,0.07-1.11,0.07H25.55V5.866h2.453c0.716,0,1.04,0.05,1.292,0.171c0.263,0.141,0.414,0.424,0.414,0.807
	C29.708,7.329,29.476,7.713,29.103,7.824z M142.759,4.604c0.172-0.041,0.221-0.122,0.221-0.293c0-0.141-0.049-0.252-0.15-0.293
	c-0.07-0.03-0.142-0.03-0.354-0.03h-0.856v1.121h0.442V4.704h0.243c0.182,0,0.203,0.021,0.223,0.252v0.152h0.463
	c-0.02-0.041-0.02-0.05-0.029-0.141C142.951,4.685,142.941,4.644,142.759,4.604z M142.355,4.473h-0.294V4.251h0.294
	c0.131,0,0.162,0.02,0.162,0.101C142.517,4.442,142.486,4.473,142.355,4.473z M142.304,3.504c-0.454,0-0.758,0.09-0.98,0.283
	c-0.189,0.161-0.291,0.424-0.291,0.757c0,0.363,0.092,0.615,0.291,0.787c0.225,0.192,0.526,0.283,0.98,0.283
	c0.879,0,1.281-0.343,1.281-1.06C143.585,3.837,143.183,3.514,142.304,3.504z M142.314,5.502c-0.797,0-1.161-0.293-1.161-0.958
	c0-0.637,0.374-0.929,1.161-0.929c0.775,0,1.15,0.292,1.15,0.939C143.464,5.199,143.089,5.502,142.314,5.502z M142.99,5.109
	c-0.02-0.041-0.02-0.05-0.029-0.141c-0.01-0.283-0.02-0.323-0.201-0.363c0.173-0.041,0.222-0.122,0.222-0.293
	c0-0.141-0.049-0.252-0.151-0.293c-0.068-0.03-0.141-0.03-0.354-0.03h-0.857V5.11h0.443V4.704h0.243
	c0.182,0,0.202,0.021,0.223,0.252v0.152L142.99,5.109L142.99,5.109z M142.355,4.473h-0.294V4.251h0.294
	c0.131,0,0.162,0.02,0.162,0.101C142.517,4.442,142.486,4.473,142.355,4.473z M142.99,5.109c-0.02-0.041-0.02-0.05-0.029-0.141
	c-0.01-0.283-0.02-0.323-0.201-0.363c0.173-0.041,0.222-0.122,0.222-0.293c0-0.141-0.049-0.252-0.151-0.293
	c-0.068-0.03-0.141-0.03-0.354-0.03h-0.857V5.11h0.443V4.704h0.243c0.182,0,0.202,0.021,0.223,0.252v0.152L142.99,5.109
	L142.99,5.109z M142.355,4.473h-0.294V4.251h0.294c0.131,0,0.162,0.02,0.162,0.101C142.517,4.442,142.486,4.473,142.355,4.473z
	 M11.377,3.18l-0.06,0.112c-1.09-0.626-2.382-0.767-3.624-0.717c-0.504,0.101-0.969,0.03-1.352,0.101
	c0.797-0.333,1.655-0.444,2.513-0.374c-0.868-0.101-1.736-0.01-2.543,0.273L5.978,2.716l-0.424,0.04H5.372L1.658,4.513
	c-1.444,0.686-2.06,2.412-1.384,3.855l3.705,7.853c0.696,1.445,2.412,2.06,3.865,1.373l0.232-0.102h-0.15l-0.03-0.01H7.744
	l-0.03-0.01H7.592l-0.03-0.01h-0.07l-0.021-0.012h-0.06l-0.031-0.01H7.33l-0.03-0.01H7.27l-0.03-0.01H7.209l-0.03-0.011H7.128
	L7.098,17.4l-0.091-0.01l-0.03-0.01L6.956,17.37h-0.03l-0.031-0.011h-0.02l-0.03-0.01l-0.03-0.01l-0.03-0.011h-0.02l-0.03-0.011
	h-0.01l-0.02-0.01l-0.061-0.01l-0.02-0.011h-0.02l-0.01-0.011h-0.03l-0.05-0.02h-0.02l-0.01-0.011h-0.02l-0.051-0.021l-0.03-0.01
	h-0.01l-0.01-0.01l-0.111-0.041c-2.14-0.818-1.07-0.828,0.929-0.584l0.02-0.123c-1.999-0.353-0.908-0.494-1.11-0.676
	c0.898,0.303,1.908,0.385,2.816,0.141c0.232-0.049,0.707-0.049,0.929-0.15c4.199-0.868,5.905-5.542,4.623-9.063
	c0.696,1.716,0.696,3.725-0.171,5.46c0.03-0.021,0.081-0.08,0.041,0.051C16.092,8.965,14.517,4.866,11.377,3.18z M11.277,11.366
	c-0.333,0.212-0.737,0.272-1.615,0.272h-4.25V6.673h3.926c0.808,0,1.191,0.041,1.524,0.171c0.424,0.171,0.696,0.606,0.696,1.121
	c0,0.424-0.142,0.676-0.535,0.928c0.363,0.152,0.484,0.252,0.615,0.455c0.151,0.223,0.222,0.495,0.222,0.797
	C11.862,10.67,11.64,11.144,11.277,11.366z M14.77,6.744c-0.424-1.121-1.151-2.18-2.049-2.866c-0.747-0.566-1.555-1-2.392-1.262
	C12.266,3.261,14.002,4.806,14.77,6.744z M9.581,9.762C9.46,9.74,9.46,9.74,8.905,9.732H7.31v0.695h1.595
	c0.535,0,0.535,0,0.646-0.021c0.171-0.03,0.282-0.151,0.282-0.333C9.833,9.923,9.743,9.802,9.581,9.762z M9.289,8.489
	C9.45,8.46,9.531,8.349,9.531,8.197c0-0.272-0.152-0.322-0.838-0.322H7.31v0.646h1.383C9.086,8.52,9.178,8.51,9.289,8.489z
	 M9.581,9.762C9.46,9.74,9.46,9.74,8.905,9.732H7.31v0.695h1.595c0.535,0,0.535,0,0.646-0.021c0.171-0.03,0.282-0.151,0.282-0.333
	C9.833,9.923,9.743,9.802,9.581,9.762z M9.289,8.489C9.45,8.46,9.531,8.349,9.531,8.197c0-0.272-0.152-0.322-0.838-0.322H7.31v0.646
	h1.383C9.086,8.52,9.178,8.51,9.289,8.489z M8.693,7.875H7.31v0.646h1.383c0.394,0,0.485-0.01,0.596-0.031
	C9.45,8.46,9.531,8.349,9.531,8.197C9.531,7.925,9.379,7.875,8.693,7.875z M9.581,9.762C9.46,9.74,9.46,9.74,8.905,9.732H7.31v0.695
	h1.595c0.535,0,0.535,0,0.646-0.021c0.171-0.03,0.282-0.151,0.282-0.333C9.833,9.923,9.743,9.802,9.581,9.762z M10.893,1.919
	l0.031,0.021h0.02L10.893,1.919z M10.803,1.888l-0.05-0.02h-0.021l0.041,0.02l0.041,0.011h0.01l-0.01-0.011H10.803z M10.651,1.838
	L10.6,1.818h-0.02l0.04,0.02l0.031,0.01h0.02l-0.01-0.01H10.651z M10.5,1.788h-0.031l0.021,0.01l0.03,0.01l0.05,0.011l-0.02-0.011
	L10.5,1.788z M10.368,1.757l0.041,0.011l-0.01-0.011H10.368z M10.257,1.717h-0.01l-0.051-0.01l-0.02-0.01l-0.03-0.01l-0.051-0.011
	l-0.05-0.01l-0.03-0.01h-0.02l-0.051-0.02h-0.01l-0.081-0.02h-0.01l-0.05-0.01h-0.02L9.732,1.595l-0.05-0.01l-0.051-0.01l-0.02-0.01
	h-0.03l-0.05-0.011L9.48,1.545l-0.04-0.01H9.43l-0.051-0.01h-0.05l-0.05-0.01H9.268l-0.05-0.011h-0.02l-0.031-0.01h-0.05l-0.05-0.01
	H9.036l-0.02-0.01H8.945l-0.04-0.009H8.854l-0.05-0.01H8.703l-0.061-0.01H8.531l-0.04-0.01H8.168l-0.071,0.03h0.374l0.151,0.011
	h0.01l0.05,0.01h0.111l0.05,0.01h0.05l0.051,0.01h0.101l0.01,0.011h0.071l0.03,0.01h0.05l0.061,0.01h0.021l0.03,0.01l0.05,0.01H9.43
	l0.02,0.009h0.02l0.061,0.01l0.05,0.01h0.03l0.02,0.01l0.051,0.011h0.01l0.041,0.01h0.041l0.02,0.01l0.05,0.01h0.01l0.041,0.011
	l0.041,0.01h0.01l0.061,0.01h0.011l0.04,0.01l0.04,0.011h0.01l0.05,0.02h0.021l0.03,0.01l0.05,0.011l0.051,0.02h0.03V1.74
	l-0.042-0.012L10.257,1.717z M14.437,4.463l-0.031-0.041l-0.01-0.021l-0.03-0.031l-0.04-0.041v-0.01L14.285,4.29l0.03,0.05
	l0.021,0.02l0.02,0.021l0.041,0.05v0.01l0.041,0.041l0.02,0.031L14.437,4.463z M14.265,4.251l-0.02-0.021l-0.041-0.04l-0.01-0.02
	l-0.03-0.03l-0.04-0.031l0.01,0.021l0.03,0.029l0.03,0.041l0.091,0.092V4.28L14.265,4.251z M14.042,4.008l-0.041-0.03l0.031,0.04
	l0.03,0.041h0.02v-0.01l-0.03-0.031L14.042,4.008z M13.982,3.947l-0.02-0.03l-0.041-0.04l-0.01-0.011l-0.031-0.03l-0.03-0.041
	l-0.021-0.01L13.79,3.746l-0.02-0.021l-0.02-0.021l-0.041-0.04L13.7,3.655l-0.031-0.03l-0.05-0.041v-0.01l-0.041-0.03l-0.03-0.03
	l-0.021-0.02l-0.04-0.04l-0.021-0.011l-0.03-0.02h-0.01l0.041,0.041l0.05,0.041l0.041,0.04l0.051,0.05l0.03,0.02l0.02,0.021
	l0.171,0.171l0.031,0.02l0.01,0.021l0.081,0.08l0.041,0.05h0.01v-0.01L13.982,3.947z M13.346,3.342l-0.03-0.031l-0.01-0.01
	l-0.05-0.041l-0.01-0.01l-0.03-0.031l-0.051-0.041h-0.01l-0.04-0.03l-0.03-0.03l-0.02-0.011l-0.041-0.029l-0.021-0.021l-0.03-0.02
	l-0.05-0.041l-0.051-0.028l-0.04-0.03l-0.051-0.04l-0.03-0.02l-0.021-0.01l-0.05-0.04l-0.01-0.011l-0.041-0.02l-0.03-0.01
	l0.051,0.041l0.05,0.029l0.051,0.041l0.05,0.031l0.04,0.03l0.011,0.01L12.902,3l0.03,0.02l0.02,0.021l0.091,0.07l0.101,0.081
	l0.051,0.04l0.041,0.031l0.02,0.01l0.03,0.031l0.041,0.041l0.05,0.04l0.03,0.031l0.02,0.01l-0.03-0.041L13.346,3.342z M12.499,2.706
	l-0.021-0.01l-0.03-0.011l0.051,0.041l0.041,0.03h0.01l0.041,0.031h0.01L12.58,2.766L12.499,2.706z M12.417,2.676l0.03,0.01
	l-0.05-0.03L12.417,2.676z M12.337,2.626l0.061,0.03l-0.061-0.04V2.626z M12.246,2.565l0.05,0.03l-0.02-0.02L12.246,2.565z
	 M12.175,2.514l-0.041-0.02l0.02,0.02l0.031,0.021l0.05,0.02l-0.01-0.02L12.175,2.514z M12.024,2.433l0.041,0.031h0.01l-0.01-0.01
	L12.024,2.433z M11.963,2.393l-0.05-0.029l-0.031-0.011l-0.02-0.01l-0.05-0.02l0.05,0.03l0.02,0.011l0.031,0.02l0.061,0.031
	l0.041,0.01l-0.041-0.02L11.963,2.393z M11.701,2.262H11.69l0.011,0.011l0.05,0.02l0.04,0.02l-0.04-0.03L11.701,2.262z M11.61,2.221
	l0.03,0.021l0.05,0.02l-0.05-0.03L11.61,2.221z M11.519,2.181l0.01,0.011l0.061,0.02l-0.061-0.031H11.519z M13.356,2.181
	C12.68,0.738,10.944,0.122,9.5,0.809L8.612,1.223h0.05l0.02,0.01h0.111l0.021,0.01h0.151l0.03,0.01h0.071l0.02,0.011h0.081
	l0.021,0.01h0.051l0.02,0.01h0.05l0.02,0.01h0.05l0.031,0.01h0.02l0.02,0.01h0.03L9.5,1.323h0.041l0.03,0.01h0.03l0.01,0.01h0.051
	l0.02,0.011h0.021l0.01,0.01h0.041l0.02,0.01h0.02l0.021,0.01h0.02l0.02,0.011h0.021l0.02,0.01h0.03l0.041,0.02h0.02l0.01,0.011
	h0.03l0.041,0.02l0.01,0.01h0.03l0.061,0.011l0.071,0.02h0.01l0.061,0.01l0.081,0.021l0.051,0.01l0.07,0.01l0.02,0.01l0.051,0.011
	c0.111,0.029,0.232,0.06,0.343,0.101h0.03l0.031,0.01l0.07,0.03l0.041,0.01l0.02,0.011c0.091,0.029,0.172,0.06,0.262,0.091
	l0.011,0.01l0.121,0.05h0.01l0.121,0.061h0.01l0.061,0.029l0.061,0.021l0.01,0.01h0.01l0.101,0.05l0.01,0.01h0.011l0.05,0.031
	l0.071,0.03l0.01,0.01L12.1,2.155l0.06,0.029l0.021,0.021l0.04,0.021l0.061,0.041l0.03,0.011l0.101,0.06l0.031,0.02l0.03,0.011
	l0.061,0.041l0.041,0.029l0.021,0.011l0.061,0.041l0.04,0.03l0.021,0.011l0.061,0.04l0.05,0.03l0.01,0.01l0.091,0.061l0.02,0.02
	l0.122,0.081v0.005l0.06,0.04l0.051,0.04h0.01l0.051,0.051l0.05,0.041l0.02,0.01l0.041,0.041l0.061,0.041l0.01,0.02l0.041,0.031
	l0.061,0.041l0.021,0.02l0.081,0.081l0.03,0.021l0.081,0.081l0.031,0.02l0.03,0.03l0.051,0.05l0.03,0.031l0.02,0.02l0.05,0.051h0.01
	l0.041,0.05l0.05,0.05L13.356,2.181z M17.071,10.025l-0.717-1.504v0.091l0.01,0.081l0.01,0.031v0.101l0.01,0.071v0.101l0.01,0.051
	v0.646l-0.01,0.092v0.01l-0.01,0.091v0.12l-0.01,0.082l-0.01,0.029v0.061l-0.01,0.041v0.061l-0.01,0.05l-0.01,0.05v0.063
	l-0.011,0.04l-0.01,0.06l-0.01,0.102v0.011l-0.01,0.029l-0.021,0.071v0.021l-0.02,0.081v0.02l-0.02,0.092l-0.021,0.101v0.01
	l-0.02,0.091l-0.01,0.01l-0.021,0.08v0.021l-0.02,0.081l-0.01,0.03l-0.01,0.061l-0.021,0.041l-0.01,0.061l-0.01,0.039L16,11.791
	l-0.01,0.041l-0.02,0.069l-0.01,0.021l-0.03,0.082v0.02l-0.041,0.07v0.021l-0.03,0.08l-0.01,0.012l-0.03,0.09l-0.041,0.092v0.01
	l-0.041,0.091V12.5l-0.04,0.082l-0.011,0.02l-0.03,0.07l-0.01,0.03l-0.03,0.062l-0.02,0.029l-0.071,0.142l-0.03,0.06l-0.021,0.031
	l-0.02,0.061l-0.02,0.029l-0.041,0.063l-0.01,0.02l-0.041,0.071v0.02l-0.05,0.081l-0.01,0.012l-0.05,0.08l-0.051,0.08v0.012
	l-0.05,0.08h-0.01l-0.051,0.08v0.021l-0.05,0.061l-0.021,0.021l-0.04,0.06l-0.021,0.03l-0.03,0.05l-0.03,0.041l-0.03,0.051
	l-0.061,0.07l-0.04,0.051l-0.021,0.03l-0.041,0.06l-0.02,0.021l-0.05,0.061l-0.01,0.021l-0.061,0.06v0.01l1.14-0.543
	C17.131,13.202,17.747,11.477,17.071,10.025z M16.344,8.501l0.01,0.02v-0.02H16.344z M132.675,11.174V9.912h6.309V7.32h-6.309V6.199
	h7.619V3.605h-11.508V13.76h11.974v-2.584h-8.085V11.174z M124.246,7.228l4.209-3.623h-5.268L119.22,7.43V3.605h-3.889V13.76h3.889
	v-2.575l1.785-1.686l2.807,4.259h4.927L124.246,7.228z M110.185,3.605V13.76h3.886V3.605H110.185z M108.914,9.086
	c-0.271-0.425-0.515-0.616-1.252-0.939c0.789-0.524,1.082-1.019,1.082-1.907c0-1.04-0.545-1.918-1.425-2.271
	c-0.676-0.273-1.463-0.363-3.108-0.363h-8.033v10.165h8.699c1.776,0,2.615-0.142,3.301-0.566c0.736-0.442,1.191-1.422,1.191-2.502
	C109.369,10.094,109.216,9.539,108.914,9.086z M100.062,6.058h2.827c1.392,0,1.715,0.121,1.715,0.656
	c0,0.313-0.171,0.545-0.495,0.606c-0.242,0.04-0.424,0.06-1.23,0.06h-2.815L100.062,6.058L100.062,6.058z M104.644,11.245
	c-0.223,0.031-0.223,0.031-1.321,0.05h-3.261V9.863h3.261c1.14,0.01,1.14,0.01,1.382,0.06c0.323,0.081,0.506,0.322,0.506,0.637
	C105.208,10.932,105,11.185,104.644,11.245z M84.123,3.605v2.584H88v7.569h3.887V6.189H95.8V3.605H84.123z M76.08,11.174V9.912h6.31
	V7.32h-6.31V6.199h7.619V3.605H72.203V13.76h11.97v-2.584H76.08V11.174z M67.075,3.605v5.561l-4.31-5.561h-4.391V13.76h3.887V8.248
	l4.44,5.51h4.259V3.605H67.075z M54.186,3.605h-5.128l-3.461,8.64v-1.069h-7.268v-7.57h-3.886V13.76h14.616l0.374-0.928h4.148
	l0.424,0.928h4.249L54.186,3.605z M50.138,10.245l1.373-3.734l1.312,3.734H50.138z"/>
</svg>
