<?xml version="1.0" encoding="utf-8"?>
<!-- Generator: Adobe Illustrator 16.0.3, SVG Export Plug-In . SVG Version: 6.00 Build 0)  -->
<!DOCTYPE svg PUBLIC "-//W3C//DTD SVG 1.1//EN" "http://www.w3.org/Graphics/SVG/1.1/DTD/svg11.dtd">
<svg version="1.1" id="Layer_1" xmlns="http://www.w3.org/2000/svg" xmlns:xlink="http://www.w3.org/1999/xlink" x="0px" y="0px"
	 width="128.333px" height="60px" viewBox="0 0 128.333 60" enable-background="new 0 0 128.333 60" xml:space="preserve">
<g>
	<path fill="#58585B" d="M63.95,54.708c-0.427-0.243-0.974-0.485-1.644-0.608c-0.606-0.121-1.397-0.242-2.25-0.242
		c-0.912,0-1.765,0.121-2.555,0.306c-0.791,0.243-1.46,0.485-2.008,0.854c-0.549,0.305-0.973,0.67-1.277,1.096
		c-0.304,0.426-0.486,0.852-0.486,1.275c0,0.305,0.121,0.607,0.365,0.911c0.243,0.306,0.67,0.55,1.277,0.791
		c0.607,0.185,1.459,0.306,2.555,0.306c0.364,0,0.791,0,1.277-0.063L60.057,60l3.346-0.607l-1.277-0.729
		c0.548-0.184,1.034-0.428,1.46-0.791c0.365-0.305,0.669-0.669,0.853-1.034c0.184-0.364,0.245-0.669,0.245-0.973
		C64.621,55.438,64.314,55.012,63.95,54.708z M60.787,56.289c-0.061,0.305-0.243,0.609-0.426,0.854
		c-0.184,0.303-0.426,0.485-0.729,0.668c-0.305,0.186-0.608,0.244-0.974,0.244c-0.243,0-0.486,0-0.669-0.062
		c-0.183-0.062-0.304-0.183-0.365-0.306c-0.121-0.063-0.183-0.185-0.183-0.363c0-0.063,0.062-0.122,0.062-0.184
		c0-0.242,0.062-0.486,0.243-0.791c0.184-0.307,0.486-0.607,0.791-0.791c0.363-0.242,0.729-0.363,1.095-0.363
		c0.243,0,0.486,0.06,0.669,0.121c0.184,0.121,0.305,0.183,0.426,0.304c0.062,0.122,0.121,0.305,0.121,0.426
		C60.848,56.107,60.848,56.229,60.787,56.289z"/>
	<polygon fill="#58585B" points="97.772,53.979 97.225,55.316 99.233,55.316 97.53,59.331 101.239,59.331 103.002,55.316 
		105.131,55.316 105.741,53.979 	"/>
	<polygon fill="#58585B" points="88.221,55.316 90.229,55.316 88.526,59.331 92.295,59.331 93.999,55.316 96.19,55.316 
		96.739,53.979 88.831,53.979 	"/>
	<path fill="#58585B" d="M81.409,53.979l-5.414,5.354h3.832l0.609-0.729h2.555v0.729h3.893l-0.852-5.354H81.409z M82.991,57.506
		h-1.703l1.885-2.311L82.991,57.506z"/>
	<path fill="#58585B" d="M40.268,53.979l-5.475,5.354h3.893l0.608-0.729h2.555v0.729h3.894l-0.852-5.354H40.268z M41.849,57.506
		h-1.703l1.886-2.311L41.849,57.506z"/>
	<path fill="#58585B" d="M5.413,53.979L0,59.333h3.832l0.608-0.729h2.615v0.729h3.832l-0.852-5.354H5.413z M7.055,57.506H5.291
		l1.885-2.311L7.055,57.506z"/>
	<polygon fill="#58585B" points="30.414,53.979 27.98,56.837 27.98,53.979 23.358,53.979 19.647,59.331 23.662,59.331 
		25.425,55.984 25.425,59.331 28.407,59.331 31.326,55.984 30.291,59.331 34.185,59.331 35.037,53.979 	"/>
	<polygon fill="#58585B" points="18.187,53.979 14.112,53.979 11.982,59.331 18.613,59.331 19.16,58.055 16.422,58.055 	"/>
	<path fill="#58585B" d="M0.128,44.512h42.549v6.633c14.62,0,27.826,0,42.447,0V50.49l0,0l0.002-5.979H127.7L127.708,0H0.108
		L0.128,44.512z M0.783,0.654h126.26v8.813l-0.32-0.079l-0.398-0.097l-0.402-0.094l-0.401-0.092l-0.399-0.089l-0.398-0.087
		l-0.4-0.085l-0.398-0.082l-0.397-0.08l-0.399-0.078l-0.396-0.076l-0.396-0.074l-0.399-0.073l-0.397-0.07l-0.396-0.07l-0.398-0.067
		l-0.396-0.067l-0.398-0.065l-0.396-0.064l-0.396-0.063l-0.396-0.063l-0.397-0.061l-0.397-0.061l-0.396-0.06l-0.396-0.06
		l-0.396-0.059l-0.397-0.058l-0.4-0.058l-0.396-0.058l-0.397-0.058l-0.42-0.053l-0.24-0.039l-0.248-0.038l-0.25-0.037l-0.25-0.036
		l-0.25-0.034l-0.25-0.033l-0.25-0.032l-0.25-0.031l-0.252-0.03l-0.254-0.029L112.006,6.9l-0.25-0.028l-0.254-0.026L111.25,6.82
		l-0.254-0.024l-0.254-0.025l-0.255-0.023l-0.254-0.024l-0.254-0.022l-0.256-0.023l-0.256-0.022l-0.259-0.021l-0.256-0.021
		l-0.258-0.021l-0.258-0.021l-0.256-0.023l-0.262-0.021l-0.512-0.043l-0.267-0.022l-0.265-0.022l-0.266-0.023l-0.85-0.06
		l-0.846-0.053l-0.842-0.045l-0.837-0.039l-0.836-0.033l-0.832-0.026l-0.829-0.02l-0.826-0.015L99.09,6.119l-0.82-0.003
		l-0.816-0.008l-0.82,0.008l-0.817,0.013l-0.817,0.017L94.18,6.168l-0.816,0.026l-0.818,0.03l-0.813,0.035l-0.815,0.039l-0.82,0.042
		l-0.818,0.047l-0.822,0.05L87.636,6.49l-0.82,0.056l-0.819,0.059l-0.824,0.062L84.344,6.73l-0.83,0.065l-0.83,0.068l-0.832,0.069
		l-0.834,0.072l-0.85,0.074l-0.426,0.053l-0.416,0.051l-0.412,0.051l-0.412,0.051L78.09,7.335l-0.408,0.052l-0.408,0.051
		L76.866,7.49l-0.408,0.053l-0.408,0.054l-0.405,0.054l-0.406,0.055L74.831,7.76l-0.408,0.056l-0.403,0.059l-0.403,0.06
		l-0.406,0.061l-0.404,0.063l-0.406,0.064l-0.404,0.065l-0.41,0.068l-0.407,0.069L70.77,8.397l-0.408,0.074l-0.408,0.078
		l-0.408,0.079L69.14,8.709l-0.41,0.085l-0.412,0.087l-0.412,0.09l-0.411,0.094L67.081,9.16l-0.229,0.053l-0.23,0.054l-0.229,0.056
		L66.157,9.38l-0.234,0.059l-0.231,0.06L65.458,9.56l-0.231,0.062l-0.231,0.063L64.76,9.749l-0.235,0.065l-0.24,0.062L64.05,9.943
		l-0.235,0.068l-0.236,0.068l-0.236,0.07l-0.236,0.07l-0.237,0.072l-0.238,0.072l-0.237,0.073l-0.24,0.074l-0.238,0.074l-0.24,0.075
		l-0.24,0.076l-0.24,0.076l-0.242,0.077l-0.241,0.077l-0.243,0.078l-0.242,0.079l-0.244,0.079l-0.244,0.079l-0.262,0.085
		L58.7,11.664l-0.738,0.296l-0.711,0.297l-0.684,0.299l-0.655,0.299l-0.628,0.3l-0.602,0.301L54.1,13.757l-0.551,0.3l-0.525,0.301
		l-0.5,0.3l-0.477,0.3l-0.452,0.299l-0.43,0.298l-0.412,0.299l-0.386,0.295l-0.363,0.295l-0.343,0.292l-0.322,0.29l-0.302,0.289
		l-0.283,0.286l-0.264,0.284l-0.244,0.282l-0.227,0.278l-0.209,0.276l-0.191,0.273l-0.175,0.27l-0.158,0.267l-0.143,0.263
		l-0.126,0.259l-0.111,0.255l-0.113,0.293l-0.032,0.183l-0.021,0.122l-0.02,0.12l-0.02,0.116l-0.017,0.113l-0.017,0.11l-0.013,0.108
		l-0.014,0.106l-0.012,0.104l-0.011,0.102l-0.01,0.101l-0.009,0.1l-0.007,0.099l-0.006,0.097l-0.005,0.096l-0.004,0.097
		l-0.003,0.096l-0.001,0.074L26.866,5.859H2.443l-1.66,1.48V0.654z M103.504,31.746c-2.021,0.137-4.047,0.163-6.068,0.27
		l-0.535-0.007l-0.656-0.01l-0.75-0.017l-0.836-0.022l-0.914-0.03l-0.981-0.043l-1.052-0.054l-1.102-0.067l-1.15-0.082l-1.188-0.1
		l-1.219-0.116l-1.242-0.137l-1.262-0.158l-1.266-0.181l-1.267-0.206l-1.256-0.229l-1.24-0.259l-1.215-0.287l-1.185-0.317
		l-1.143-0.348l-1.09-0.381l-1.035-0.414l-0.969-0.448l-0.895-0.482l-0.813-0.518l-0.726-0.551l-0.625-0.584l-0.52-0.616
		l-0.418-0.649l-0.309-0.685l-0.193-0.727l-0.08-0.783l0.008-0.208l0.02-0.228l0.035-0.225l0.047-0.223l0.063-0.221l0.076-0.22
		l0.092-0.219l0.104-0.218l0.121-0.218l0.137-0.217l0.15-0.216l0.168-0.216l0.186-0.215l0.199-0.214l0.215-0.214l0.232-0.212
		l0.248-0.211l0.27-0.21l0.279-0.209l0.303-0.206l0.314-0.205l0.334-0.204l0.352-0.201l0.365-0.199l0.387-0.197l0.398-0.195
		l0.418-0.193l0.438-0.19l0.451-0.188l0.469-0.186l0.482-0.184l0.504-0.18l0.508-0.171l0.521-0.168l0.528-0.162l0.539-0.158
		l0.553-0.153l0.56-0.148l0.568-0.146l0.575-0.139l0.591-0.135l0.598-0.129l0.604-0.124l0.615-0.12L83.559,14l0.633-0.108
		l0.645-0.104l0.646-0.099l0.658-0.094l0.668-0.088l0.674-0.082l0.686-0.078l0.689-0.071l0.699-0.066l0.707-0.062l0.715-0.055
		l0.725-0.05l0.729-0.044l0.735-0.038l0.744-0.032l0.752-0.026l0.762-0.021l0.767-0.015l0.771-0.009l0.765,0.004l0.758,0.009
		l0.748,0.016l0.74,0.022l0.729,0.028l0.721,0.034l0.717,0.041l0.705,0.046l0.693,0.053l0.688,0.059l0.682,0.064l0.67,0.069
		l0.66,0.076l0.654,0.082l0.646,0.088l0.641,0.093l0.629,0.099l0.621,0.104l0.611,0.11l0.604,0.115l0.599,0.12l0.592,0.127
		l0.582,0.131l0.574,0.137l0.565,0.143l0.562,0.147l0.551,0.152l0.545,0.157l0.537,0.162l0.529,0.168l0.522,0.173l0.512,0.176
		l0.5,0.186l0.481,0.188l0.474,0.189l0.451,0.191l0.437,0.194l0.418,0.195l0.401,0.197l0.385,0.198l0.367,0.201l0.353,0.202
		l0.334,0.203l0.315,0.205l0.302,0.207l0.282,0.207l0.267,0.209l0.25,0.21l0.231,0.211l0.218,0.212l0.198,0.213l0.185,0.213
		l0.168,0.214l0.149,0.215l0.138,0.215l0.118,0.215l0.104,0.216l0.092,0.217l0.076,0.219l0.063,0.219l0.049,0.222l0.035,0.224
		l0.021,0.227l0.01,0.229l-0.01,0.225l-0.021,0.22l-0.037,0.217l-0.052,0.213L125,23.612l-0.078,0.209l-0.092,0.206l-0.104,0.204
		l-0.117,0.201l-0.127,0.198l-0.14,0.196l-0.149,0.193l-0.157,0.19l-0.173,0.188l-0.178,0.184l-0.188,0.181l-0.19,0.177
		l-0.201,0.173l-0.207,0.169l-0.213,0.164l-0.22,0.16l-0.221,0.156l-0.223,0.151l-0.229,0.146l-0.229,0.143l-0.229,0.138
		l-0.229,0.133l-0.23,0.128l-0.227,0.123l-0.227,0.117l-0.223,0.113l-0.011,0.005l-10.953-3.086l-14.062,4.14L103.504,31.746z
		 M26.108,24.537H3.332l5.29-4.84l5.859-5.292L26.108,24.537z M0.783,31.186h31.246l10.157,7.832h24.408l-6.743-5.365l0.064,0.022
		l0.139,0.048l0.137,0.047l0.135,0.045l0.189,0.066l0.197,0.068l0.196,0.066l0.198,0.066l0.197,0.064l0.198,0.066l0.199,0.064
		l0.198,0.065l0.199,0.063l0.2,0.063l0.2,0.063l0.2,0.063l0.198,0.063l0.201,0.063l0.199,0.063l0.2,0.063l0.2,0.061l0.199,0.061
		l0.199,0.061l0.198,0.058l0.2,0.06l0.198,0.057l0.197,0.056l0.194,0.054l0.197,0.057l0.195,0.054l0.195,0.054l0.194,0.051
		l0.191,0.05l0.19,0.049l0.191,0.048l0.18,0.044l0.352,0.099l0.359,0.102l0.357,0.094l0.355,0.094l0.354,0.088l0.352,0.084
		l0.354,0.082l0.353,0.078l0.348,0.073l0.35,0.074l0.348,0.067l0.351,0.07l0.35,0.064l0.349,0.064l0.35,0.063l0.35,0.063
		l0.354,0.061l0.354,0.059l0.354,0.059l0.354,0.058l0.359,0.056l0.359,0.058l0.363,0.054l0.366,0.057l0.371,0.053l0.375,0.055
		l0.379,0.055l0.382,0.055l0.387,0.056l0.395,0.056l0.395,0.057l0.41,0.059l0.508,0.057l0.498,0.056l0.5,0.053l0.5,0.054
		l0.502,0.053l0.502,0.049l0.502,0.05l0.505,0.049l0.504,0.048l0.502,0.047l0.504,0.045l0.506,0.043l0.504,0.041l0.507,0.041
		l0.506,0.041l0.506,0.039l0.504,0.035l0.506,0.036l0.506,0.032l0.504,0.033l0.506,0.029l0.506,0.028l0.506,0.029l0.504,0.024
		l0.509,0.021l0.504,0.023l0.504,0.021l0.506,0.021l0.502,0.018l0.505,0.02l0.506,0.016l0.489,0.013l0.195,0.01l0.209,0.011
		l0.211,0.01l0.215,0.006l0.222,0.007l0.219,0.004l0.223,0.005l0.225,0.004l0.229,0.002h0.228h0.229h0.229l0.231-0.002l0.233-0.002
		l0.232-0.002l0.234-0.003l0.236-0.004l0.237-0.004L98.6,39.07l0.238-0.004l0.233-0.004l0.238-0.004l0.235-0.004l0.236-0.005
		l0.236-0.004l0.234-0.003l0.231-0.003l0.231-0.004l0.232-0.002h0.23l0.229-0.002h0.229l0.674-0.003l0.674-0.008l0.672-0.015
		l0.673-0.018L105,38.968l0.672-0.024l0.67-0.03l0.674-0.034l0.67-0.039l0.67-0.043l0.67-0.046l0.67-0.051l0.67-0.054l0.668-0.058
		l0.668-0.062l0.67-0.063l0.666-0.064l0.668-0.065l0.668-0.071l0.666-0.07l0.666-0.073l0.666-0.076l0.666-0.078l0.666-0.081
		l0.664-0.08l0.664-0.082l0.664-0.084l0.664-0.087l0.664-0.087l0.662-0.087l0.66-0.087l0.66-0.089l0.139-0.019l0.141-0.019
		l0.142-0.021l0.145-0.019l0.146-0.021l0.146-0.021l0.146-0.021l0.146-0.021l0.146-0.021l0.148-0.021l0.148-0.021l0.146-0.021
		l0.147-0.021l0.146-0.021l0.146-0.021l0.148-0.021l0.146-0.021l0.146-0.022l0.146-0.024l0.146-0.021l0.145-0.024l0.141-0.022
		l0.143-0.025l0.14-0.025l0.14-0.025l0.135-0.025l0.133-0.025l0.133-0.027l0.021-0.006v7.302c-14.041,0-28.746,0-42.578,0
		l0.002,6.622L43.33,50.506v-6.63L0.78,43.877V31.186H0.783z"/>
	<path fill="#58585B" d="M115.657,54.708c-0.305-0.243-0.791-0.426-1.4-0.548c-0.668-0.121-1.577-0.182-2.612-0.182h-4.14
		l-2.311,5.353h3.711l0.912-2.129l1.094,2.129h4.197l-1.885-2.25c0.426,0,0.91-0.062,1.338-0.244
		c0.426-0.182,0.791-0.364,1.096-0.669c0.303-0.243,0.426-0.548,0.426-0.791S115.958,54.891,115.657,54.708z M111.946,56.046
		c-0.182,0.122-0.426,0.243-0.791,0.306c-0.305,0.121-0.67,0.121-1.096,0.121l0.607-1.339c0.547,0,0.912,0.062,1.155,0.183
		c0.242,0.063,0.363,0.186,0.363,0.307C112.188,55.742,112.125,55.925,111.946,56.046z"/>
	<path fill="#58585B" d="M126.362,54.404c-0.73-0.305-1.703-0.487-2.98-0.487c-0.973,0-1.821,0.122-2.612,0.306
		c-0.791,0.242-1.461,0.485-2.011,0.854c-0.547,0.304-0.973,0.669-1.274,1.095c-0.305,0.429-0.426,0.854-0.426,1.274
		c0,0.307,0.121,0.609,0.362,0.912c0.242,0.308,0.668,0.551,1.277,0.791c0.547,0.186,1.398,0.308,2.373,0.308
		c0.061,0,0.182,0,0.303,0c1.035,0,1.89-0.122,2.681-0.308c0.786-0.183,1.459-0.483,2.006-0.852
		c0.549-0.304,0.976-0.669,1.217-1.095c0.306-0.427,0.427-0.791,0.427-1.156c0-0.062,0-0.062,0-0.121c0,0,0,0,0-0.061
		C127.518,55.195,127.09,54.708,126.362,54.404z M124.112,56.352c-0.121,0.305-0.305,0.607-0.486,0.854
		c-0.184,0.304-0.428,0.484-0.729,0.669c-0.244,0.185-0.609,0.243-0.975,0.243c-0.242,0-0.486-0.063-0.607-0.121
		c-0.184-0.063-0.365-0.122-0.426-0.244c-0.121-0.063-0.121-0.184-0.121-0.361c0-0.063,0-0.123,0-0.186
		c0-0.243,0.121-0.487,0.305-0.791c0.182-0.365,0.424-0.605,0.791-0.791c0.303-0.243,0.668-0.365,1.094-0.365
		c0.242,0,0.426,0.063,0.609,0.122c0.182,0.063,0.303,0.185,0.426,0.308c0.063,0.121,0.121,0.303,0.121,0.426
		C124.112,56.168,124.112,56.289,124.112,56.352z"/>
	<path fill="#58585B" d="M73.077,53.979l-1.391,3.565c-0.006,0.013-0.014,0.022-0.02,0.036c-0.011,0.021-0.021,0.038-0.029,0.055
		c-0.006,0.008-0.01,0.014-0.014,0.021c-0.248,0.394-0.91,0.488-1.373,0.39c-0.076-0.019-0.146-0.037-0.211-0.063
		c-0.049-0.021-0.09-0.045-0.127-0.069c-0.127-0.093-0.185-0.215-0.113-0.363l0,0l1.572-3.565H67.6l-1.398,3.591
		c-0.061,0.12-0.121,0.241-0.121,0.362c0,0.307,0.185,0.607,0.426,0.791c0.308,0.242,0.73,0.426,1.277,0.549
		c0.547,0.121,1.217,0.184,2.008,0.184s1.582-0.063,2.313-0.122c0.729-0.122,1.397-0.305,2.008-0.547
		c0.607-0.306,0.974-0.729,1.156-1.217l1.396-3.591h-3.588V53.979z"/>
</g>
</svg>
