<?xml version="1.0" encoding="utf-8"?>
<!-- Generator: Adobe Illustrator 16.0.3, SVG Export Plug-In . SVG Version: 6.00 Build 0)  -->
<!DOCTYPE svg PUBLIC "-//W3C//DTD SVG 1.1//EN" "http://www.w3.org/Graphics/SVG/1.1/DTD/svg11.dtd">
<svg version="1.1" id="Layer_1" xmlns="http://www.w3.org/2000/svg" xmlns:xlink="http://www.w3.org/1999/xlink" x="0px" y="0px"
	 width="150px" height="36.625px" viewBox="0 0 150 36.625" enable-background="new 0 0 150 36.625" xml:space="preserve">
<g>
	<g>
		<path fill="#58585B" d="M134.055,3.852c4.168-0.005,15.945,0,15.945,0l-0.604,4.309c0,0-12.979-0.014-13.209-0.008
			c-0.412,0-0.483,0.241-0.502,0.391l-0.191,1.369c0,0-0.128,0.43,0.33,0.445c0.104,0.012,7.775-0.003,11.412-0.007
			c1.98-0.029,1.625,1.797,1.625,1.797s-0.84,6.127-0.926,6.654c-0.119,0.861-0.162,2.183-2.377,2.214
			c-4.283-0.012-16.162-0.012-16.162-0.012l0.58-4.308c0,0,12.434-0.018,12.967-0.018c0.541,0,0.591-0.374,0.591-0.374l0.19-1.406
			c0,0,0.088-0.381-0.435-0.335c-1.897,0.003-8.146,0.009-10.767-0.006c-1.633,0-2.229-0.48-2.027-1.944
			c0.271-2.028,0.773-5.824,0.836-6.248C131.445,5.516,131.604,3.885,134.055,3.852"/>
		<path fill="#58585B" d="M45.906,3.885c4.167,0,15.946,0.003,15.946,0.003l-0.631,4.298c0,0-12.957-0.004-13.187,0.007
			c-0.406,0-0.482,0.236-0.497,0.388l-0.2,1.364c0,0-0.119,0.433,0.337,0.449c0.105,0.013,7.777-0.003,11.413-0.004
			c1.977-0.027,1.621,1.795,1.621,1.795s-0.836,6.124-0.923,6.651c-0.12,0.866-0.162,2.181-2.38,2.22
			c-4.281-0.012-16.253-0.012-16.253-0.012l0.6-4.314c0,0,12.507-0.011,13.038-0.011c0.546,0,0.6-0.379,0.6-0.379l0.183-1.403
			c0,0,0.088-0.378-0.436-0.337c-1.896,0-8.137,0.009-10.757-0.006c-1.635,0.006-2.234-0.479-2.031-1.944
			c0.27-2.028,0.778-5.822,0.837-6.245C43.302,5.542,43.453,3.921,45.906,3.885"/>
		<path fill="#58585B" d="M39.987,3.932C36.864,3.915,29.35,3.896,26.059,3.899c-1.058,0.005-2.468,0.299-2.756,2.391
			c-0.314,2.359-1.26,9.171-1.726,12.64c-0.306,2.187,1.563,2.135,1.91,2.135c0.349,0.002,16.032,0.013,16.032,0.013l0.604-4.326
			c0,0-12.763,0.063-13.013,0.047c0-0.019-0.552,0.056-0.521-0.377l0.195-1.519c0.028-0.075,0.095-0.254,0.473-0.252
			c2.472-0.002,8.853-0.013,11.38-0.013c1.92-0.016,2.021-1.9,2.021-1.9l0.943-6.965C41.604,5.772,42.159,3.885,39.987,3.932
			 M36.672,8.429l-0.237,1.72c0,0-0.043,0.229-0.265,0.193c-0.169,0.006-7.413,0.013-8.684,0.016l-0.158-0.2
			c0.056-0.444,0.195-1.48,0.221-1.646c0.021-0.21,0.146-0.252,0.28-0.271c0.124-0.005,7.212-0.005,8.621-0.006
			C36.725,8.204,36.672,8.429,36.672,8.429"/>
		<path fill="#58585B" d="M0.02,18.748L2.273,2.324l5.021-0.006l-1.83,13.769c-0.02,0.216-0.087,0.683,0.624,0.683l14.197-0.011
			l-0.603,4.34c0,0-17.074,0.021-17.584,0.021C-0.097,21.124-0.042,19.372,0.02,18.748"/>
		<path fill="#58585B" d="M89.921,18.754l1.986-14.868l4.698-0.004l-1.601,12.246c-0.019,0.219-0.073,0.678,0.593,0.678l12.85-0.008
			l-0.57,4.258c-0.173,0.044-14.871,0.026-16.007,0.026C89.818,21.087,89.863,19.361,89.921,18.754"/>
		<path fill="#58585B" d="M109.805,18.746l1.989-14.864l4.697-0.009l-1.599,12.246c-0.016,0.217-0.076,0.678,0.59,0.678
			l12.875-0.049l-0.586,4.267c0,0-15.545,0.061-16.02,0.061C109.697,21.079,109.752,19.357,109.805,18.746"/>
		<polygon fill="#58585B" points="87.893,21.044 82.966,21.056 85.281,3.958 90.202,3.953 		"/>
		<path fill="#58585B" d="M63.684,2.411c0,0,6.081-0.009,6.746-0.009c0.682,0,0.846,0.659,0.861,0.803l1.017,8.881l0.202,0.135
			c0.178,0.011,0.215-0.135,0.215-0.135l3.263-9.024c0.039-0.097,0.252-0.659,0.998-0.65c0.35-0.009,6.886-0.009,6.886-0.009
			l-2.554,18.641l-5.119,0.002l1.684-11.969h-0.046L73.191,21.06h-4.006L67.794,9.088l-0.052-0.004l-1.63,11.98l-4.989-0.008
			L63.684,2.411z"/>
	</g>
	<g>
		<path fill="#58585B" d="M35.408,29.247h-1.571c-0.157,0-0.209,0.092-0.209,0.209v1.61c0,0.119,0.052,0.209,0.209,0.209h0.904
			c0.117,0,0.248,0.093,0.248,0.839c0,0.772-0.131,0.864-0.248,0.864h-0.904c-0.157,0-0.209,0.092-0.209,0.209v3.197
			c0,0.116-0.093,0.209-0.21,0.209h-1.572c-0.117,0-0.209-0.093-0.209-0.209v-8.697c0-0.117,0.092-0.211,0.209-0.211h3.563
			c0.118,0,0.262,0.094,0.249,0.904C35.645,29.155,35.526,29.247,35.408,29.247z"/>
		<path fill="#58585B" d="M40.753,34.577c0,0.668-0.248,1.244-0.693,1.625c-0.419,0.354-1.021,0.523-1.677,0.523
			c-0.656,0-1.257-0.17-1.677-0.523c-0.445-0.381-0.694-0.957-0.694-1.625v-5.08c0-0.67,0.249-1.246,0.694-1.627
			c0.42-0.352,1.021-0.521,1.677-0.521c0.656,0,1.258,0.172,1.677,0.521c0.445,0.381,0.693,0.957,0.693,1.627V34.577z
			 M38.841,29.692c0-0.275-0.092-0.498-0.405-0.498c-0.328,0-0.406,0.25-0.406,0.498v4.662c0,0.25,0.078,0.498,0.406,0.498
			c0.313,0,0.405-0.223,0.405-0.498V29.692z"/>
		<path fill="#58585B" d="M46.517,36.411c0,0.119-0.092,0.248-1.021,0.248c-0.982,0-1.074-0.129-1.074-0.248v-3.223
			c0-0.262-0.105-0.354-0.302-0.354h-0.131c-0.196,0-0.235,0.117-0.235,0.25c0,2.725,0,2.043,0,3.326
			c0,0.116-0.092,0.246-1.061,0.246c-0.865,0-0.957-0.13-0.957-0.246v-8.726c0-0.117,0.092-0.211,0.21-0.211h2.305
			c1.101,0,2.109,0.709,2.109,1.99v1.032c0,0.617-0.196,1.115-0.707,1.297c-0.079,0.027-0.132,0.119,0,0.146
			c0.589,0.131,0.72,0.732,0.732,1.191L46.517,36.411z M44.46,29.665c0-0.365-0.17-0.418-0.498-0.418
			c-0.17,0-0.209,0.092-0.209,0.209v1.416c0,0.117,0.039,0.209,0.209,0.209c0.262,0,0.498-0.078,0.498-0.342V29.665z"/>
		<path fill="#58585B" d="M54.848,36.411c0.012,0.119-0.092,0.248-0.97,0.248c-0.904,0-0.982-0.129-0.996-0.248l-0.156-1.584
			c-0.013-0.196-0.078-0.223-0.223-0.223h-0.289c-0.209,0-0.209,0.064-0.223,0.223l-0.157,1.584
			c-0.013,0.119-0.091,0.248-1.008,0.248c-0.864,0-0.97-0.129-0.957-0.248l1.441-8.772c0.014-0.117,0.092-0.248,0.995-0.248
			c0.996,0,1.074,0.131,1.088,0.248L54.848,36.411z M52.477,30.466c-0.014-0.119-0.026-0.186-0.105-0.186
			c-0.065,0-0.092,0.063-0.104,0.186l-0.197,2.553c-0.014,0.119,0.052,0.184,0.17,0.184h0.236c0.117,0,0.183-0.063,0.171-0.184
			L52.477,30.466z"/>
		<path fill="#58585B" d="M62.037,29.247h-1.571c-0.156,0-0.21,0.092-0.21,0.209v1.61c0,0.119,0.054,0.209,0.21,0.209h0.904
			c0.117,0,0.249,0.093,0.249,0.839c0,0.772-0.132,0.864-0.249,0.864h-0.904c-0.156,0-0.21,0.092-0.21,0.209v3.197
			c0,0.116-0.091,0.209-0.209,0.209h-1.571c-0.118,0-0.21-0.093-0.21-0.209v-8.697c0-0.117,0.092-0.211,0.21-0.211h3.562
			c0.118,0,0.263,0.094,0.25,0.904C62.273,29.155,62.155,29.247,62.037,29.247z"/>
		<path fill="#58585B" d="M64.985,36.411c0,0.119-0.092,0.248-1.008,0.248c-0.917,0-1.009-0.129-1.009-0.248v-8.772
			c0-0.117,0.092-0.248,1.009-0.248c0.916,0,1.008,0.131,1.008,0.248V36.411z"/>
		<path fill="#58585B" d="M69.688,29.3h-0.694c-0.118,0-0.21,0.092-0.21,0.209l-0.025,6.902c0,0.116-0.092,0.246-1.035,0.246
			c-0.891,0-0.982-0.13-0.982-0.246l0.014-6.902c0-0.117-0.093-0.209-0.21-0.209h-0.694c-0.118,0-0.236-0.092-0.249-0.893
			c-0.014-0.824,0.131-0.933,0.249-0.933h3.838c0.117,0,0.262,0.104,0.248,0.933C69.924,29.208,69.806,29.3,69.688,29.3z"/>
		<path fill="#58585B" d="M74.535,29.3h-0.694c-0.119,0-0.21,0.092-0.21,0.209l-0.026,6.902c0,0.116-0.092,0.246-1.034,0.246
			c-0.891,0-0.983-0.13-0.983-0.246l0.014-6.902c0-0.117-0.092-0.209-0.21-0.209h-0.694c-0.116,0-0.235-0.092-0.248-0.893
			c-0.013-0.824,0.132-0.933,0.248-0.933h3.839c0.117,0,0.262,0.104,0.248,0.933C74.771,29.208,74.652,29.3,74.535,29.3z"/>
		<path fill="#58585B" d="M79.105,36.595h-3.434c-0.117,0-0.211-0.092-0.211-0.209v-8.697c0-0.117,0.094-0.211,0.211-0.211h3.434
			c0.117,0,0.248,0.094,0.248,0.865c0,0.813-0.131,0.904-0.248,0.904h-1.441c-0.156,0-0.209,0.092-0.209,0.209v1.336
			c0,0.119,0.053,0.211,0.209,0.211h0.773c0.117,0,0.232,0.09,0.232,0.838c0,0.771-0.115,0.863-0.232,0.863h-0.773
			c-0.156,0-0.209,0.092-0.209,0.211v1.699c0,0.118,0.053,0.213,0.209,0.213h1.441c0.117,0,0.248,0.092,0.248,0.877
			C79.354,36.503,79.225,36.595,79.105,36.595z"/>
		<path fill="#58585B" d="M84.751,36.411c0,0.119-0.092,0.248-1.021,0.248c-0.983,0-1.074-0.129-1.074-0.248v-3.223
			c0-0.262-0.105-0.354-0.303-0.354h-0.131c-0.195,0-0.234,0.117-0.234,0.25c0,2.725,0,2.043,0,3.326
			c0,0.116-0.092,0.246-1.063,0.246c-0.862,0-0.954-0.13-0.954-0.246v-8.726c0-0.117,0.092-0.211,0.209-0.211h2.305
			c1.103,0,2.108,0.709,2.108,1.99v1.032c0,0.617-0.194,1.115-0.706,1.297c-0.078,0.027-0.133,0.119,0,0.146
			c0.59,0.131,0.721,0.732,0.731,1.191L84.751,36.411z M82.695,29.665c0-0.365-0.172-0.418-0.498-0.418
			c-0.17,0-0.209,0.092-0.209,0.209v1.416c0,0.117,0.039,0.209,0.209,0.209c0.262,0,0.498-0.078,0.498-0.342V29.665z"/>
		<path fill="#58585B" d="M93.121,31.526c0,0.615-0.354,1.977-2.396,1.977c-0.156,0-0.248,0.105-0.248,0.267l0.025,2.646
			c0,0.117-0.092,0.248-1.049,0.248c-0.877,0-0.969-0.131-0.969-0.248V27.69c0-0.117,0.092-0.211,0.209-0.211h2.162
			c1.1,0,2.266,0.709,2.266,1.992V31.526z M91.262,29.665c0-0.326-0.184-0.418-0.537-0.418c-0.184,0-0.209,0.092-0.209,0.209v2.213
			c0,0.146,0.064,0.211,0.209,0.211c0.328,0,0.537-0.131,0.537-0.381V29.665z"/>
		<path fill="#58585B" d="M97.719,36.595h-3.535c-0.119,0-0.211-0.092-0.211-0.209v-8.75c0-0.117,0.092-0.248,0.982-0.248
			c0.943,0,1.035,0.131,1.035,0.248v6.979c0,0.119,0.052,0.213,0.209,0.213h1.52c0.118,0,0.249,0.092,0.249,0.861
			C97.968,36.503,97.837,36.595,97.719,36.595z"/>
		<path fill="#58585B" d="M103.05,36.411c0.013,0.119-0.092,0.248-0.97,0.248c-0.902,0-0.982-0.129-0.995-0.248l-0.157-1.584
			c-0.013-0.196-0.078-0.223-0.223-0.223h-0.288c-0.209,0-0.209,0.064-0.224,0.223l-0.156,1.584
			c-0.014,0.119-0.092,0.248-1.01,0.248c-0.863,0-0.969-0.129-0.955-0.248l1.441-8.772c0.012-0.117,0.092-0.248,0.992-0.248
			c0.995,0,1.073,0.131,1.09,0.248L103.05,36.411z M100.68,30.466c-0.014-0.119-0.027-0.186-0.104-0.186
			c-0.064,0-0.094,0.063-0.104,0.186l-0.195,2.553c-0.014,0.119,0.051,0.184,0.17,0.184h0.234c0.116,0,0.184-0.063,0.172-0.184
			L100.68,30.466z"/>
		<path fill="#58585B" d="M108.839,36.411c0,0.119-0.091,0.248-0.877,0.248c-0.812,0-0.931-0.182-0.957-0.301l-1.047-3.693
			c-0.04-0.131-0.104-0.184-0.157-0.184s-0.131,0.066-0.131,0.184l0.053,3.746c0,0.119-0.092,0.248-1.062,0.248
			c-0.853,0-0.943-0.129-0.943-0.248v-8.772c0-0.117,0.093-0.248,0.892-0.248c0.824,0,0.877,0.146,0.916,0.248l1.074,3.442
			c0.039,0.117,0.104,0.185,0.17,0.185c0.039,0,0.119-0.022,0.119-0.209l-0.063-3.418c0-0.117,0.092-0.248,1.021-0.248
			c0.904,0,0.995,0.131,0.995,0.248L108.839,36.411L108.839,36.411z"/>
		<path fill="#58585B" d="M113.527,36.595h-3.43c-0.119,0-0.211-0.092-0.211-0.209v-8.697c0-0.117,0.092-0.211,0.211-0.211h3.43
			c0.119,0,0.25,0.094,0.25,0.865c0,0.813-0.131,0.904-0.25,0.904h-1.439c-0.156,0-0.21,0.092-0.21,0.209v1.336
			c0,0.119,0.054,0.211,0.21,0.211h0.771c0.119,0,0.236,0.09,0.236,0.838c0,0.771-0.117,0.863-0.236,0.863h-0.771
			c-0.156,0-0.21,0.092-0.21,0.211v1.699c0,0.118,0.054,0.213,0.21,0.213h1.439c0.119,0,0.25,0.092,0.25,0.877
			C113.777,36.503,113.646,36.595,113.527,36.595z"/>
		<path fill="#58585B" d="M118.113,29.3h-0.694c-0.118,0-0.21,0.092-0.21,0.209l-0.025,6.902c0,0.116-0.092,0.246-1.035,0.246
			c-0.891,0-0.979-0.13-0.979-0.246l0.017-6.902c0-0.117-0.095-0.209-0.211-0.209h-0.693c-0.117,0-0.235-0.092-0.248-0.893
			c-0.014-0.824,0.131-0.933,0.248-0.933h3.838c0.117,0,0.263,0.104,0.248,0.933C118.35,29.208,118.23,29.3,118.113,29.3z"/>
	</g>
</g>
</svg>
