<svg id="Layer_1" data-name="Layer 1" xmlns="http://www.w3.org/2000/svg" width="109" height="52.3974" viewBox="0 0 109 52.3974"><defs><style>.cls-1{fill:#59595c;}</style></defs><title>Gazprom</title><path class="cls-1" d="M89.7088,49.7758a.58.58,0,0,1-.5655.5973.56.56,0,0,1-.5734-.5973V37.4151a.56.56,0,0,1,.5734-.5973.5745.5745,0,0,1,.5655.5973Zm-4.7627-.3186c0,1.2663.1593,3.2335,2.7,3.2335h2.9946c2.5407,0,2.7-1.9672,2.7-3.2335V37.8054c0-1.2663-.1592-3.2335-2.7-3.2335H87.654c-2.5406,0-2.7,1.9672-2.7,3.2335V49.4572Z" transform="translate(-0.4444 -0.3013)"/><path class="cls-1" d="M62.184,52.6907H54.7692V50.4129l3.48-13.5871h-3.114V34.5719H61.969v2.2539L58.5045,50.3652H62.184Zm7.4069-18.1188c2.5326,0,2.6919,1.9672,2.6919,3.2335v5.4874c0,1.2663-.1593,3.2335-2.6919,3.2335H67.52v6.1644H63.8884V34.5639h5.7025ZM39.8042,52.6907H36.8017c-2.5327,0-2.692-1.9672-2.692-3.2335V37.8054c0-1.2663.1593-3.2335,2.692-3.2335h3.0025c2.5407,0,2.7,1.9672,2.7,3.2335V40.37H38.8724V37.4151a.5811.5811,0,0,0-.5734-.5973.5545.5545,0,0,0-.5655.5973V49.7758a.5636.5636,0,0,0,.5655.5973.5811.5811,0,0,0,.5734-.5973V45.81h-.5416v-1.991h4.1813v5.6467C42.5121,50.7235,42.3528,52.6907,39.8042,52.6907ZM79.841,34.5719c2.5406,0,2.6919,1.9672,2.6919,3.2335V43.42a2.14,2.14,0,0,1-1.3061,2.1982l1.784,7.0644H79.2755l-1.2345-6.706h-.2628v6.706H74.1465V34.5559H79.841Zm-28.3053,0,1.8876,18.1268H49.8712L49.5287,47.88H47.8164L47.49,52.6987H43.9377l1.8876-18.1268Zm47.38,18.1188H95.3V34.5639h4.7149l2.3494,12.735,2.3655-12.735h4.7148V52.6907h-3.6317V41.3256h-.1354l-1.8636,11.3651h-2.8991L99.051,41.3256h-.1354ZM31.8,34.5639V46.9484A18.1268,18.1268,0,1,1,18.5713,16.4291v13.627a10.1752,10.1752,0,0,0-7.2,2.9786,10.6943,10.6943,0,0,0-1.25,1.5133A10.182,10.182,0,0,0,25.7472,47.45c.0159-.008.0239-.0159.04-.0239h0c.0159-.008.0159-.0159.0239-.0239a5.0966,5.0966,0,0,0-7.2078-7.2077c0,.008-.0159.0159-.0238.0239V34.5559H31.8ZM49.4172,45.8812l-.6292-9.0554h-.2071L47.96,45.8812Zm18.5569-1.6167c.3982,0,.677-.3345.677-.908V37.7178c0-.5735-.2788-.908-.677-.908h-.4619v7.4547Zm10.266-.5416c.39,0,.6691-.3345.6691-.9079V37.7178c0-.5735-.2788-.908-.6691-.908h-.47v6.9131ZM29.4108,9.7629A30.9856,30.9856,0,0,0,25.1339.3013a33.2193,33.2193,0,0,0-3.9583,8.2749,30.0861,30.0861,0,0,0-.98,11.9227,32.9755,32.9755,0,0,0,2.015,7.6457,26.6289,26.6289,0,0,0,2.9468,5.2884A28.7709,28.7709,0,0,0,30.032,21.0245,28.36,28.36,0,0,0,29.4108,9.7629Zm-4.2769,22.46a13.4156,13.4156,0,0,1-1.4814-6.0131A12.6435,12.6435,0,0,1,25.1419,20.26a13.578,13.578,0,0,1,1.4415,5.6945A12.963,12.963,0,0,1,25.1339,32.2224Zm3.95-14.2084A26.0476,26.0476,0,0,1,28.5426,23a30.0526,30.0526,0,0,0-.6052-7.08A30.47,30.47,0,0,0,25.118,8.2736a30.5225,30.5225,0,0,0-2.7875,7.63,36.3028,36.3028,0,0,0-.6452,7.168,35.3662,35.3662,0,0,1-.4619-6.945,30.3157,30.3157,0,0,1,1.0035-6.2918A34.779,34.779,0,0,1,25.11,2.9136a30.8433,30.8433,0,0,1,2.9309,6.8175A29.7461,29.7461,0,0,1,29.0842,18.014Z" transform="translate(-0.4444 -0.3013)"/></svg>