<?xml version="1.0" encoding="utf-8"?>
<!-- Generator: Adobe Illustrator 16.0.3, SVG Export Plug-In . SVG Version: 6.00 Build 0)  -->
<!DOCTYPE svg PUBLIC "-//W3C//DTD SVG 1.1//EN" "http://www.w3.org/Graphics/SVG/1.1/DTD/svg11.dtd">
<svg version="1.1" id="Layer_1" xmlns="http://www.w3.org/2000/svg" xmlns:xlink="http://www.w3.org/1999/xlink" x="0px" y="0px"
	 width="150px" height="34.5px" viewBox="0 0 150 34.5" enable-background="new 0 0 150 34.5" xml:space="preserve">
<path fill="#58585B" d="M13.836,0.267H2.526c-0.671,0-1.259,0.207-1.764,0.625C0.252,1.312,0,1.8,0,2.365v27.932
	c0,0.989,0.176,1.755,0.534,2.266c0.36,0.512,0.946,0.771,1.771,0.771h1.648c0.642,0,1.199-0.27,1.671-0.795
	c0.467-0.527,0.703-1.273,0.703-2.242V6.479h3.396v23.727c0,2.082,0.847,3.129,2.549,3.129h1.518c0.642,0,1.175-0.283,1.604-0.841
	c0.426-0.557,0.632-1.319,0.632-2.288V3.731l-0.083-0.045c0-2.282-0.611-3.419-1.832-3.419H13.836L13.836,0.267z M25.688,10.928
	c0.092,0,0.154,0.008,0.191,0.015c0.038,0.009,0.075,0.023,0.122,0.055l0.115,0.45l1.32,13.163c0,0.273,0.054,0.564,0.175,0.879
	c0,0.549-0.115,0.984-0.344,1.306c-0.236,0.32-0.495,0.479-0.793,0.479h-1.099c-0.763,0-1.136-0.61-1.136-1.83
	c0-0.139,0-0.252,0-0.358c0-0.091,0.029-0.244,0.083-0.474l1.053-13.164l0.046-0.244l0.068-0.229L25.688,10.928L25.688,10.928z
	 M27.993,0.267h-4.587c-0.923,0-1.671,0.52-2.258,1.556c-0.579,1.03-0.938,2.268-1.069,3.695l-1.992,17.91v2.662v0.133
	c0,1.547,0.32,2.868,0.962,3.943c0.641,1.084,1.503,1.885,2.579,2.396c1.083,0.511,2.259,0.771,3.525,0.771h1.497
	c1.16,0,2.267-0.321,3.319-0.954c1.052-0.633,1.915-1.466,2.587-2.511c0.335-0.533,0.596-1.066,0.77-1.587
	c0.168-0.521,0.252-1.076,0.252-1.657h0.091v-3.327L31.19,5.478c-0.168-1.373-0.503-2.586-1.007-3.633
	C29.679,0.794,28.947,0.267,27.993,0.267L27.993,0.267z M51.154,0.267H38.195h-0.137c-0.595,0-1.106,0.199-1.519,0.596
	c-0.419,0.389-0.625,0.893-0.625,1.502l-0.046,0.07l-0.045,0.068l0.092,1.344c-0.062,0.061-0.092,0.099-0.092,0.129
	c0,0.595,0.152,1.022,0.457,1.273c0.306,0.26,0.687,0.442,1.152,0.565l1.902,0.352c-0.94,0.344-1.405,1.06-1.405,2.151v0.129v19.092
	c-1.373,0-2.289,0.161-2.755,0.478c-0.404,0.266-0.604,0.846-0.604,1.736v0.139v1.09c0,0.842,0.253,1.436,0.763,1.803
	c0.504,0.365,1.352,0.55,2.551,0.55h2.792h0.129c0.404,0,0.786-0.063,1.129-0.19c0.35-0.131,0.687-0.313,0.999-0.574
	c0.596-0.457,0.894-1.043,0.894-1.762v-0.139L43.781,8.315l0.045-0.045c0-1.405,0.703-2.106,2.098-2.106h0.138h1.786v25.383v0.133
	c0,0.418,0.274,0.776,0.823,1.074c0.275,0.146,0.542,0.268,0.817,0.367c0.274,0.098,0.541,0.146,0.793,0.146h0.092h1.053h0.176
	c0.595,0,1.129-0.193,1.594-0.574c0.473-0.375,0.711-0.84,0.711-1.397v-0.128L53.769,2.93V2.724c0-1.64-0.824-2.458-2.479-2.458
	L51.154,0.267L51.154,0.267z M60.952,33.174h-2.8c-0.222-0.021-0.413-0.113-0.579-0.253c-0.162-0.146-0.313-0.319-0.442-0.526
	l-0.475-0.938c-0.137-0.533-0.197-1.687-0.197-3.438l-0.092-7.832l-0.045-9.99c0-5.021,0.061-7.617,0.174-7.784
	c0-0.625,0.267-1.137,0.786-1.543c0.52-0.404,1.145-0.603,1.877-0.603h0.649c0.527,0,1.037,0.191,1.557,0.573
	c0.512,0.382,0.823,0.832,0.924,1.352l0.045,2.93l0.045,3.617c0,0.641-0.008,1.135-0.023,1.48c-0.016,0.344-0.038,0.625-0.068,0.848
	l3.938-4.068V2.281c0-0.526,0.252-0.984,0.763-1.389c0.473-0.42,1.015-0.625,1.611-0.625h1.044c0.9,0.137,1.519,0.397,1.869,0.786
	c0.35,0.382,0.527,1.037,0.527,1.961v27.839c0,0.758-0.092,1.307-0.283,1.641c-0.183,0.337-0.579,0.566-1.191,0.681l-1.967,0.16
	c-0.809-0.108-1.375-0.358-1.703-0.765c-0.297-0.41-0.45-1.029-0.45-1.854V15.781l-4.021,4.271v10.532
	c0,0.367-0.047,0.731-0.137,1.093c-0.039,0.373-0.192,0.701-0.443,0.997C61.593,32.968,61.297,33.135,60.952,33.174L60.952,33.174z
	 M87.389,0.267c0.688,0,1.297,0.244,1.832,0.725c0.531,0.487,0.807,1.023,0.807,1.602v1.297c0,0.55-0.274,1.045-0.814,1.488
	c-0.548,0.436-1.152,0.656-1.824,0.656l-2.434,0.092v25.329c0,0.42-0.207,0.831-0.626,1.251c-0.222,0.223-0.437,0.382-0.642,0.48
	c-0.199,0.101-0.42,0.147-0.656,0.147h-2.105c-0.412,0-0.824-0.192-1.228-0.581c-0.406-0.39-0.604-0.824-0.604-1.298V6.127
	l-1.298-0.045l-1.364-0.046c-0.613,0-1.184-0.221-1.718-0.671c-0.512-0.458-0.764-0.953-0.764-1.473v0.084V2.595
	c0-0.579,0.253-1.114,0.764-1.602c0.503-0.482,1.044-0.725,1.625-0.725L87.389,0.267L87.389,0.267z M96.438,33.174h-2.799
	c-0.222-0.021-0.412-0.113-0.58-0.253c-0.16-0.146-0.313-0.319-0.439-0.526l-0.475-0.938c-0.14-0.533-0.199-1.687-0.199-3.438
	l-0.094-7.832l-0.045-9.99c0-5.021,0.063-7.617,0.176-7.784c0-0.625,0.268-1.137,0.787-1.543c0.519-0.404,1.143-0.603,1.877-0.603
	h0.646c0.527,0,1.039,0.191,1.557,0.573c0.512,0.382,0.825,0.832,0.926,1.352l0.045,2.93l0.048,3.617
	c0,0.641-0.009,1.135-0.024,1.48c-0.015,0.344-0.037,0.625-0.07,0.848l3.939-4.068V2.281c0-0.526,0.251-0.984,0.764-1.389
	c0.473-0.42,1.015-0.625,1.609-0.625h1.045c0.9,0.137,1.52,0.397,1.87,0.786c0.351,0.382,0.524,1.037,0.524,1.961v27.839
	c0,0.758-0.092,1.307-0.28,1.641c-0.185,0.337-0.579,0.566-1.192,0.681l-1.967,0.16c-0.811-0.108-1.373-0.358-1.701-0.765
	c-0.3-0.41-0.451-1.029-0.451-1.854V15.781l-4.021,4.271v10.532c0,0.367-0.046,0.731-0.139,1.093
	c-0.037,0.373-0.189,0.701-0.44,0.997C97.08,32.968,96.782,33.135,96.438,33.174L96.438,33.174z M111.648,0h-0.129
	c-1.391,0.137-2.084,0.968-2.084,2.503v0.092v28.39l0.045,0.137v0.177c0,0.794,0.209,1.297,0.611,1.527
	c0.412,0.22,1.1,0.387,2.055,0.512h0.129h0.473c1.533,0,2.412-0.742,2.617-2.216v-0.137V14.377h2.32
	c0.526,0,0.961,0.146,1.313,0.443c0.353,0.297,0.521,0.694,0.521,1.183l0.139,14.582v0.129c0,0.763,0.173,1.39,0.531,1.877
	c0.357,0.496,0.869,0.742,1.525,0.742h4.58c0.578,0,1.07-0.222,1.467-0.672c0.396-0.442,0.623-1.009,0.678-1.681v-1.229v-0.174
	c0-0.374-0.137-0.77-0.422-1.189c-0.279-0.412-0.621-0.642-1.029-0.688h-1.83v-12.37h0.175c-0.121,0-0.175-0.044-0.175-0.153V13.95
	v-0.138c0-0.548-0.176-1.037-0.527-1.465c-0.35-0.42-0.816-0.679-1.396-0.77c0.504-0.063,0.97-0.298,1.383-0.717
	c0.389-0.412,0.626-0.901,0.717-1.45l-0.046-1.228l-0.045-1.099l0.091-1.138c0.984,0,1.748-0.212,2.288-0.64
	c0.549-0.42,0.815-1.054,0.815-1.885V2.366c0-0.61-0.256-1.136-0.795-1.58c-0.525-0.435-1.113-0.657-1.754-0.657h-3.793
	c-0.687,0-1.291,0.222-1.803,0.671c-0.518,0.45-0.77,1.015-0.77,1.702v4.58c0,1.167-0.732,1.748-2.19,1.748h-1.969l0.177-6.236
	V2.503c0-0.716-0.223-1.312-0.68-1.786c-0.457-0.48-1.037-0.716-1.756-0.716h-0.137L111.648,0L111.648,0z M143,6.173h-1.831
	c-1.315,0-1.963,0.641-1.963,1.916v0.694h3.701H143V6.173L143,6.173z M147.021,0.267c0.731,0,1.305,0.266,1.724,0.803
	c0.421,0.54,0.626,1.304,0.626,2.304v1.144v26.65c0,0.547-0.207,1.021-0.617,1.402c-0.406,0.392-0.87,0.641-1.396,0.765h-0.178
	h-1.791c-0.757,0-1.344-0.308-1.765-0.917c-0.419-0.609-0.624-1.221-0.624-1.831V14.69h-3.932v16.025v0.137
	c0,0.672-0.274,1.252-0.816,1.74c-0.54,0.496-1.175,0.741-1.885,0.741h-3.756c-0.655,0-1.289-0.206-1.894-0.62
	c-0.603-0.404-0.907-0.922-0.907-1.547v-1.495c0-0.719,0.299-1.276,0.887-1.674c0.587-0.392,1.259-0.588,1.998-0.588h0.429v-0.138
	V14.377V8.654c0-0.625,0.13-1.175,0.39-1.641c0.26-0.473,0.527-0.748,0.797-0.84l-1.451-0.198c-0.392-0.046-0.727-0.138-1.018-0.283
	c-0.299-0.145-0.51-0.344-0.662-0.618c-0.131-0.298-0.199-0.71-0.199-1.229v-0.96c0-0.817,0.252-1.465,0.771-1.923
	c0.509-0.466,1.213-0.695,2.112-0.695v0.137L147.021,0.267L147.021,0.267z"/>
</svg>
