<?xml version="1.0" encoding="utf-8"?>
<!-- Generator: Adobe Illustrator 16.0.3, SVG Export Plug-In . SVG Version: 6.00 Build 0)  -->
<!DOCTYPE svg PUBLIC "-//W3C//DTD SVG 1.1//EN" "http://www.w3.org/Graphics/SVG/1.1/DTD/svg11.dtd">
<svg version="1.1" id="Layer_1" xmlns="http://www.w3.org/2000/svg" xmlns:xlink="http://www.w3.org/1999/xlink" x="0px" y="0px"
	 width="150px" height="20.75px" viewBox="0 0 150 20.75" enable-background="new 0 0 150 20.75" xml:space="preserve">
<g>
	<path fill="#58585B" d="M19.753,4.161c-0.13-0.32-0.307-0.612-0.523-0.882c-0.032-0.084-0.065-0.169-0.162-0.204
		c0,0.003,0,0.005,0,0.008c-0.002-0.002,0.001-0.005-0.001-0.007c-0.173-0.209-0.349-0.419-0.524-0.629c0,0,0,0-0.001-0.001
		c0.001,0,0.001,0.001,0.002,0.001c-0.022-0.112-0.106-0.169-0.195-0.222c0,0.001,0,0.001,0,0.002l0,0l-0.001-0.001l0,0
		c-0.033-0.072-0.081-0.128-0.16-0.152c0,0.001,0.001,0.001,0.001,0.002c-0.001,0-0.001-0.001-0.002-0.002l0.002,0.002l0,0
		c-0.039-0.066-0.087-0.123-0.163-0.15c-0.053-0.074-0.106-0.15-0.203-0.172c-0.283-0.264-0.601-0.479-0.944-0.658
		c-0.228-0.154-0.467-0.283-0.73-0.367c0,0.001,0,0.001,0.001,0.002c-0.001-0.001-0.003-0.002-0.004-0.004
		c-0.368-0.199-0.77-0.314-1.173-0.412C14.621,0.229,14.262,0.17,13.907,0.1c-0.469,0-0.937,0-1.407,0
		c-0.035,0.033-0.08,0.025-0.123,0.027c-1.24,0.04-2.327,0.51-3.324,1.21c-0.383,0.271-0.397,0.655-0.069,1
		C9.11,2.469,9.241,2.596,9.371,2.725c0.39,0.387,0.61,0.407,1.078,0.117c1.137-0.703,2.364-0.979,3.688-0.752
		c1.271,0.219,2.327,0.819,3.173,1.795c1.394,1.609,1.733,3.883,0.76,5.792c-1.013,1.987-2.701,2.991-4.911,3.051
		c-1.874,0.053-3.75,0.012-5.625,0.014c-0.211,0-0.415-0.033-0.611-0.106c-0.654-0.25-0.854-1.037-0.397-1.565
		c0.247-0.286,0.571-0.372,0.935-0.372c1.901,0.002,3.803,0.002,5.704,0c0.156,0,0.311-0.008,0.467-0.029
		c1.496-0.213,2.706-1.57,2.602-3.111c-0.062-0.908-0.41-1.641-1.102-2.209c-0.571-0.47-1.242-0.68-1.979-0.68
		C11.26,4.667,9.369,4.667,7.476,4.667c-0.313,0-0.623,0.003-0.935,0.048C3.67,5.123,1.631,6.641,0.448,9.29
		C0.171,9.911,0.034,10.571,0,11.252c0,0.539,0,1.078,0,1.615c0.045,0.004,0.051,0.033,0.053,0.07
		c0.029,0.408,0.126,0.805,0.246,1.193c0.449,1.463,1.275,2.662,2.47,3.617C3.837,18.6,5.051,19.135,6.4,19.256
		c0.934,0.085,1.89,0.088,2.818-0.188c0.786-0.232,1.523-0.556,2.189-1.035c0.389-0.279,0.417-0.604,0.082-0.941
		c-0.141-0.143-0.283-0.281-0.424-0.424c-0.327-0.324-0.502-0.334-0.899-0.086c-1.263,0.787-2.616,1.065-4.082,0.725
		c-1.165-0.271-2.143-0.848-2.919-1.764c-1.183-1.394-1.547-2.998-1.163-4.76c0.279-1.28,1.007-2.304,2.053-3.088
		C4.888,7.07,5.837,6.653,6.872,6.628c2.16-0.053,4.322-0.021,6.484-0.012c0.596,0.002,1.107,0.729,0.945,1.301
		c-0.166,0.586-0.541,0.857-1.204,0.855C11.214,8.77,9.33,8.76,7.446,8.758c-0.214,0-0.433,0.016-0.643,0.055
		C5.36,9.09,4.131,10.438,4.371,12.106c0.122,0.854,0.532,1.511,1.216,2.017c0.578,0.424,1.239,0.563,1.936,0.563
		c1.684,0.006,3.368,0.004,5.052,0.002c0.818-0.002,1.63-0.051,2.425-0.26c1.565-0.412,2.864-1.242,3.891-2.49
		c0.928-1.126,1.459-2.417,1.595-3.875c0.128-1.375-0.103-2.672-0.731-3.899C19.754,4.163,19.753,4.162,19.753,4.161z M18.38,2.315
		c-0.02-0.021-0.033-0.047-0.031-0.086c0,0,0,0,0.001,0C18.346,2.27,18.367,2.289,18.38,2.315z"/>
	<path fill="#58585B" d="M144.232,5.358c0.742-0.264,1.484-0.26,2.246-0.107c0.58,0.117,1.03,0.419,1.367,0.903
		c0.17,0.247,0.243,0.538,0.379,0.804c0.148,0.293,0.284,0.34,0.603,0.232c0.215-0.071,0.43-0.152,0.653-0.201
		c0.231-0.053,0.396-0.178,0.52-0.373c0-0.069,0-0.139,0.002-0.207c-0.041-0.01-0.045-0.041-0.057-0.075
		c-0.229-0.794-0.652-1.456-1.313-1.965c-0.844-0.649-1.84-0.818-2.86-0.87c-0.637-0.032-1.267,0.053-1.883,0.205
		c-0.717,0.176-1.367,0.492-1.869,1.037c-0.685,0.74-0.971,1.648-0.976,2.646c-0.005,1.051,0.004,2.1-0.004,3.149
		c-0.003,0.399,0.021,0.792,0.104,1.181c0.172,0.801,0.531,1.502,1.172,2.021c0.951,0.773,2.101,0.934,3.271,0.938
		c0.437,0.002,0.886-0.039,1.323-0.142c0.98-0.225,1.813-0.676,2.427-1.494c0.282-0.375,0.447-0.807,0.662-1.215
		c0-0.158,0-0.313,0-0.471c-0.326-0.252-0.726-0.311-1.104-0.418c-0.4-0.118-0.563-0.045-0.711,0.338
		c-0.021,0.057-0.037,0.111-0.06,0.166c-0.237,0.615-0.636,1.089-1.248,1.344c-0.71,0.295-1.449,0.313-2.192,0.156
		c-0.617-0.129-1.123-0.416-1.463-0.976c-0.291-0.474-0.348-1-0.348-1.527c-0.001-1.062-0.037-2.127,0.029-3.191
		C142.96,6.364,143.473,5.626,144.232,5.358z"/>
	<path fill="#58585B" d="M110.273,4.1c-0.734-0.442-1.545-0.562-2.373-0.601c-0.678-0.033-1.355,0.049-2.028,0.147
		c-0.776,0.113-1.524,0.324-2.239,0.649c-0.402,0.183-0.574,0.507-0.574,0.939c0.002,1.432,0,2.864,0,4.296
		c0,0.484,0,0.972-0.002,1.46c0,0.955,0.004,1.91-0.002,2.865c-0.004,0.361,0.107,0.494,0.504,0.518
		c0.233,0.017,0.469,0.004,0.703,0.004c0.53-0.002,0.627-0.142,0.625-0.61c-0.012-2.569-0.006-5.141-0.005-7.709
		c0-0.362,0.06-0.437,0.411-0.537c0.958-0.272,1.93-0.406,2.923-0.258c0.584,0.088,1.095,0.318,1.438,0.838
		c0.277,0.422,0.373,0.898,0.378,1.386c0.014,1.571,0.005,3.141,0.005,4.715c0,0.58-0.001,1.162,0.001,1.743
		c0.001,0.208,0.071,0.347,0.308,0.398c0.312,0.067,0.619,0.024,0.93,0.03c0.494,0.011,0.636-0.141,0.636-0.643
		c0.001-1.998,0.001-3.996,0-5.99c-0.001-0.506-0.042-1.01-0.158-1.502C111.541,5.334,111.096,4.594,110.273,4.1z"/>
	<path fill="#58585B" d="M34.757,11.179c-0.26-0.099-0.534-0.16-0.804-0.236c-0.433-0.123-0.564-0.055-0.713,0.365
		c-0.259,0.729-0.707,1.284-1.457,1.543c-0.657,0.226-1.336,0.235-2.01,0.106c-0.416-0.08-0.808-0.244-1.132-0.541
		c-0.54-0.496-0.705-1.145-0.704-1.836c0.003-1.14-0.061-2.285,0.039-3.428c0.073-0.828,0.467-1.438,1.235-1.768
		c0.734-0.313,1.51-0.299,2.275-0.158c0.576,0.106,1.07,0.394,1.402,0.905c0.152,0.235,0.258,0.493,0.355,0.755
		c0.088,0.24,0.24,0.42,0.516,0.346c0.35-0.096,0.692-0.221,1.032-0.348c0.176-0.065,0.299-0.234,0.255-0.404
		c-0.217-0.846-0.644-1.567-1.349-2.108c-0.838-0.644-1.82-0.826-2.836-0.874c-0.71-0.034-1.418,0.055-2.104,0.257
		c-1.701,0.502-2.579,1.767-2.648,3.505c-0.025,0.606-0.004,1.215-0.004,2.084c0.036,0.623-0.094,1.518,0.104,2.4
		c0.185,0.813,0.558,1.512,1.227,2.034c0.949,0.743,2.072,0.886,3.215,0.896c0.428,0.004,0.868-0.046,1.3-0.136
		c1.56-0.328,2.572-1.261,3.094-2.746C35.15,11.498,35.055,11.293,34.757,11.179z"/>
	<path fill="#58585B" d="M85.96,11.201c-0.231-0.127-0.497-0.164-0.746-0.242c-0.515-0.168-0.671-0.08-0.858,0.44
		c-0.17,0.47-0.435,0.871-0.854,1.154c-0.723,0.489-1.523,0.53-2.359,0.426c-1.394-0.178-2.019-1.071-2.039-2.267
		c-0.021-1.209-0.08-2.425,0.041-3.635c0.076-0.763,0.448-1.342,1.17-1.665c0.752-0.337,1.539-0.324,2.318-0.189
		c0.568,0.098,1.059,0.381,1.395,0.879c0.183,0.271,0.279,0.578,0.418,0.867c0.119,0.248,0.293,0.331,0.541,0.256
		c0.283-0.088,0.563-0.183,0.841-0.287c0.343-0.129,0.44-0.303,0.335-0.642c-0.266-0.838-0.721-1.543-1.469-2.036
		c-0.678-0.451-1.432-0.641-2.235-0.726c-0.867-0.093-1.713-0.015-2.539,0.223c-1.694,0.488-2.576,1.75-2.646,3.47
		c-0.024,0.614-0.004,1.231-0.004,2.082c0.045,0.66-0.1,1.563,0.103,2.458c0.19,0.824,0.581,1.521,1.26,2.045
		c0.929,0.719,2.032,0.849,3.146,0.867c0.451,0.004,0.908-0.043,1.354-0.142c1.55-0.338,2.562-1.271,3.071-2.764
		C86.294,11.504,86.215,11.341,85.96,11.201z"/>
	<path fill="#58585B" d="M121.869,12.924c-0.439,0-0.876-0.028-1.307-0.106c-0.604-0.11-1.043-0.437-1.233-1.041
		c-0.11-0.354-0.169-0.717-0.171-1.085c-0.008-1.647,0-3.298-0.008-4.947c-0.002-0.183,0.041-0.229,0.226-0.228
		c0.833,0.012,1.667,0.006,2.5,0.004c0.295,0,0.401-0.105,0.403-0.396c0.003-0.271,0-0.539,0-0.808c0-0.387-0.122-0.51-0.508-0.51
		c-0.799-0.002-1.6-0.008-2.396,0.004c-0.186,0.002-0.229-0.047-0.227-0.229c0.011-0.938,0.006-1.875,0.004-2.813
		c0-0.354-0.106-0.459-0.461-0.461c-0.313-0.004-0.625-0.004-0.938,0c-0.343,0.004-0.425,0.084-0.425,0.426
		c-0.003,0.937-0.012,1.875,0.005,2.813c0.004,0.227-0.063,0.27-0.272,0.264c-0.483-0.018-0.974-0.008-1.459-0.006
		c-0.313,0.002-0.453,0.141-0.459,0.453c-0.004,0.278-0.004,0.557,0.002,0.833c0.006,0.335,0.103,0.427,0.433,0.429
		c0.483,0.002,0.973,0.012,1.458-0.006c0.225-0.007,0.307,0.037,0.302,0.289c-0.021,0.885-0.008,1.77-0.008,2.655
		c0,0.694,0.004,1.388,0,2.082c-0.004,0.561,0.04,1.116,0.163,1.663c0.229,1.021,0.764,1.791,1.781,2.155
		c0.867,0.313,1.771,0.3,2.672,0.271c0.193-0.006,0.344-0.142,0.338-0.379c-0.008-0.304,0-0.604-0.004-0.912
		C122.279,13.028,122.18,12.922,121.869,12.924z"/>
	<path fill="#58585B" d="M130.913,3.492c-0.748-0.002-1.492,0.051-2.233,0.151c-0.724,0.099-1.432,0.256-2.113,0.526
		c-0.379,0.151-0.707,0.412-0.698,1.015c0.021,1.422,0.006,2.846,0.006,4.27c0,1.482-0.001,2.966,0.001,4.451
		c0.001,0.337,0.122,0.462,0.46,0.472c0.261,0.007,0.521,0.007,0.781,0c0.454-0.012,0.587-0.137,0.586-0.574
		c-0.007-2.604,0-5.206-0.009-7.811c-0.002-0.252,0.097-0.397,0.318-0.46c0.66-0.186,1.329-0.315,2.018-0.324
		c0.354-0.004,0.713,0.004,1.066-0.003c0.227-0.004,0.371-0.085,0.418-0.349c0.047-0.27,0.049-0.534,0.033-0.799
		C131.52,3.602,131.383,3.493,130.913,3.492z"/>
	<path fill="#58585B" d="M136.369,3.805c-0.286-0.005-0.572-0.002-0.859,0c-0.404,0-0.519,0.114-0.519,0.52
		c-0.001,1.58,0,3.16,0,4.738c0,1.614,0.005,3.23-0.005,4.847c-0.002,0.276,0.117,0.436,0.369,0.453
		c0.369,0.024,0.744,0.021,1.115-0.007c0.229-0.017,0.348-0.168,0.348-0.424c-0.004-3.23-0.002-6.458-0.004-9.688
		C136.814,3.947,136.671,3.809,136.369,3.805z"/>
	<path fill="#58585B" d="M60.1,0.305c-0.269,0.015-0.54,0.021-0.807,0c-0.453-0.037-0.572,0.153-0.572,0.574c0,1.016,0,2.03,0,3.055
		c-0.596-0.121-1.169-0.271-1.759-0.354c-0.835-0.119-1.66-0.112-2.474,0.078c-0.878,0.205-1.613,0.657-2.109,1.432
		c-0.433,0.679-0.613,1.441-0.634,2.233c-0.025,0.988-0.001,1.979-0.009,2.965c-0.004,0.484,0.011,0.965,0.107,1.439
		c0.256,1.24,0.92,2.149,2.137,2.601c1.106,0.405,2.245,0.381,3.396,0.271c0.796-0.076,1.563-0.248,2.306-0.533
		c0.752-0.287,0.902-0.399,0.904-1.276c0.011-3.938,0.005-7.88,0.005-11.819c0.001-0.074,0.012-0.146-0.002-0.213
		C60.527,0.452,60.484,0.286,60.1,0.305z M58.462,12.647c-0.396,0.131-0.804,0.222-1.217,0.271c-0.393,0.049-0.79,0.088-1.187,0.057
		c-0.58-0.049-1.144-0.141-1.633-0.504c-0.439-0.328-0.666-0.771-0.76-1.287c-0.124-0.68-0.037-1.365-0.054-2.045
		c-0.013-0.537-0.009-1.076-0.001-1.613c0.018-1.26,0.701-2.116,1.984-2.271c1.037-0.125,2.023,0.057,3.005,0.354
		c0.156,0.049,0.118,0.14,0.119,0.231c0.001,1.076,0.001,2.152,0.001,3.229c0,1.064-0.008,2.135,0.006,3.204
		C58.729,12.485,58.638,12.591,58.462,12.647z"/>
	<path fill="#58585B" d="M72.556,4.469c-0.884-0.709-1.926-0.912-3.011-0.971c-0.625-0.033-1.247,0.048-1.855,0.204
		c-0.856,0.221-1.591,0.639-2.137,1.354c-0.604,0.795-0.798,1.719-0.836,2.683c-0.029,0.771-0.002,1.546-0.007,2.315
		c-0.003,0.551,0.037,1.098,0.156,1.637c0.285,1.279,1.037,2.168,2.261,2.63c0.807,0.306,1.65,0.38,2.515,0.331
		c0.593-0.031,1.176-0.1,1.737-0.277c1.017-0.326,1.808-0.944,2.327-1.889c0.18-0.328,0.117-0.525-0.208-0.713
		c-0.156-0.09-0.317-0.172-0.477-0.26c-0.496-0.271-0.675-0.223-0.986,0.256c-0.249,0.379-0.564,0.689-0.976,0.895
		c-0.979,0.48-2.001,0.488-3.021,0.197c-0.729-0.209-1.193-0.729-1.386-1.471c-0.133-0.512-0.045-1.034-0.075-1.553
		c-0.008-0.173,0.055-0.208,0.218-0.206c1.086,0.007,2.171,0.003,3.256,0.003c1.077,0,2.153-0.007,3.229,0.004
		c0.469,0.004,0.688-0.285,0.694-0.649c0.014-0.759,0.059-1.521-0.099-2.271C73.687,5.824,73.285,5.055,72.556,4.469z M71.9,8.231
		c-0.851-0.008-1.701-0.004-2.553-0.004c-0.851,0-1.701-0.004-2.552,0.004c-0.169,0.002-0.218-0.041-0.216-0.213
		c0.005-0.506-0.021-1.014,0.179-1.496c0.313-0.754,0.9-1.191,1.675-1.342c0.805-0.154,1.621-0.166,2.396,0.185
		c0.836,0.379,1.211,1.067,1.279,1.95c0.019,0.232-0.008,0.47,0.007,0.703C72.126,8.19,72.07,8.233,71.9,8.231z"/>
	<path fill="#58585B" d="M97.404,4.315c-0.84-0.588-1.795-0.756-2.776-0.815c-0.634-0.038-1.267,0.044-1.884,0.203
		c-0.971,0.25-1.766,0.756-2.313,1.608c-0.439,0.686-0.639,1.461-0.645,2.254c-0.012,1.295-0.121,2.597,0.092,3.888
		c0.229,1.393,0.989,2.371,2.318,2.871c0.8,0.301,1.633,0.377,2.484,0.327c0.584-0.03,1.152-0.104,1.713-0.271
		c1.002-0.301,1.771-0.9,2.313-1.785c0.241-0.395,0.19-0.684-0.237-0.873c-0.134-0.063-0.262-0.135-0.389-0.205
		c-0.48-0.277-0.667-0.229-0.971,0.229c-0.324,0.49-0.754,0.861-1.313,1.063c-0.839,0.306-1.702,0.312-2.555,0.103
		c-0.796-0.194-1.326-0.72-1.536-1.521c-0.133-0.511-0.039-1.036-0.068-1.553c-0.013-0.181,0.059-0.208,0.217-0.206
		c1.086,0.005,2.172,0.003,3.256,0.003c1.068,0,2.139-0.011,3.203,0.004c0.502,0.008,0.713-0.301,0.723-0.708
		c0.012-0.724,0.043-1.451-0.102-2.168C98.736,5.752,98.27,4.917,97.404,4.315z M96.982,8.229c-0.866-0.006-1.732-0.002-2.603-0.002
		c-0.842,0-1.683-0.004-2.521,0.002c-0.162,0.002-0.227-0.027-0.221-0.207c0.012-0.498-0.027-0.998,0.161-1.477
		c0.313-0.777,0.923-1.229,1.714-1.374c0.793-0.146,1.598-0.153,2.363,0.189c0.703,0.313,1.078,0.87,1.242,1.604
		c0.081,0.36,0.023,0.722,0.052,1.08C97.186,8.2,97.125,8.231,96.982,8.229z"/>
	<path fill="#58585B" d="M47.771,6.594c-0.159-0.92-0.594-1.676-1.367-2.229c-0.893-0.639-1.917-0.813-2.973-0.87
		c-0.558-0.03-1.114,0.04-1.659,0.158c-0.741,0.161-1.426,0.459-1.989,0.983c-0.77,0.719-1.096,1.637-1.116,2.662
		c-0.023,1.18,0,2.359-0.01,3.54c-0.002,0.237,0.027,0.471,0.068,0.692c0.254,1.383,1.063,2.313,2.379,2.789
		c0.802,0.29,1.634,0.374,2.49,0.331c0.682-0.034,1.343-0.135,1.976-0.385c1.354-0.533,2.208-1.696,2.254-3.183
		c0.02-0.661,0.003-1.319,0.003-2.227C47.791,8.27,47.916,7.426,47.771,6.594z M46.011,10.677c0.034,1.075-0.573,1.884-1.592,2.147
		c-1.021,0.264-2.026,0.271-2.959-0.271c-0.578-0.337-0.881-0.873-0.932-1.562c-0.087-1.154-0.035-2.303-0.035-3.453
		c-0.001-1.271,0.671-2.079,1.984-2.275c0.884-0.131,1.757-0.127,2.565,0.354c0.641,0.382,0.934,0.958,0.96,1.677
		c0.022,0.605,0.005,1.215,0.005,1.821C46.008,9.637,45.994,10.155,46.011,10.677z"/>
</g>
</svg>
