<?xml version="1.0" encoding="utf-8"?>
<!-- Generator: Adobe Illustrator 16.0.3, SVG Export Plug-In . SVG Version: 6.00 Build 0)  -->
<!DOCTYPE svg PUBLIC "-//W3C//DTD SVG 1.1//EN" "http://www.w3.org/Graphics/SVG/1.1/DTD/svg11.dtd">
<svg version="1.1" id="Layer_1" xmlns="http://www.w3.org/2000/svg" xmlns:xlink="http://www.w3.org/1999/xlink" x="0px" y="0px"
	 width="180.833px" height="53.167px" viewBox="0 0 180.833 53.167" enable-background="new 0 0 180.833 53.167"
	 xml:space="preserve">
<path fill="#58585B" d="M177.187,11.211c-0.089,0.131-0.185,0.258-0.267,0.393c-0.652,1.084-1.903,1.587-3.135,1.256
	c-1.193-0.32-2.019-1.43-2.012-2.707c0.006-1.248,0.833-2.333,2.021-2.652c1.229-0.33,2.48,0.178,3.131,1.267
	c0.08,0.136,0.173,0.266,0.26,0.399C177.187,9.849,177.187,10.53,177.187,11.211z"/>
<path fill="#58585B" d="M1.458,26.239c0.308-12.19,9.176-22.873,21.079-25.206c7.525-1.476,14.454,0.015,20.74,4.435
	c0.305,0.213,0.332,0.396,0.229,0.727C38.317,22.896,25.377,36.169,8.813,41.769c-0.588,0.197-1.186,0.369-1.771,0.57
	c-0.261,0.09-0.423,0.057-0.594-0.188c-2.517-3.555-4.107-7.479-4.656-11.803C1.619,28.988,1.566,27.611,1.458,26.239z"/>
<path fill="#58585B" d="M50.132,12.875c6.948,10.795,5.195,26.952-7.375,35.636C30.868,56.724,15.58,53.41,7.765,43.75
	c0.492-0.154,0.963-0.305,1.436-0.447c4.65-1.412,9.383-2.498,14.126-3.543c4.05-0.893,8.118-1.715,12.063-3.025
	c3.007-1,5.872-2.293,8.362-4.291c3.836-3.072,6.16-7.046,6.899-11.915C51.039,17.961,50.86,15.683,50.132,12.875z"/>
<path fill="#58585B" d="M125.138,35.748c0,0.322-0.001,0.512,0,0.695c0.001,3.318,0.004,6.637,0.004,9.953
	c0,0.83-0.123,0.949-0.95,0.951c-0.8,0-1.6,0.002-2.398-0.002c-0.645-0.002-0.828-0.182-0.828-0.809
	c0-5.863-0.027-11.729,0.016-17.592c0.016-2.095,0.05-4.217,0.79-6.22c1.681-4.547,4.901-7.347,9.707-8.084
	c6.614-1.015,12.668,3.4,13.791,10.011c0.757,4.463-0.339,8.428-3.728,11.549c-4.477,4.123-11.416,3.963-15.957-0.068
	C125.475,36.037,125.363,35.941,125.138,35.748z M125.209,27.12c0.08,0.628,0.105,1.271,0.25,1.884
	c0.707,3.023,2.558,5.031,5.541,5.881c2.951,0.838,5.674,0.334,7.83-1.949c2.271-2.406,2.783-5.322,1.926-8.457
	c-1.164-4.25-5.481-6.71-9.603-5.549C127.693,19.902,125.266,23.275,125.209,27.12z"/>
<path fill="#58585B" d="M69.467,35.763c0,0.287,0,0.459,0,0.629c0,3.361,0.001,6.723,0.001,10.084c0,0.711-0.152,0.867-0.847,0.869
	c-0.859,0.002-1.717,0.006-2.576-0.002c-0.547-0.002-0.727-0.178-0.727-0.713c0.003-6.338-0.018-12.676,0.031-19.014
	c0.021-2.661,0.496-5.239,2.005-7.524c2.096-3.175,5.01-5.048,8.801-5.494c6.429-0.756,12.202,3.46,13.459,9.954
	c0.961,4.961-1.063,10.033-5.06,12.691c-4.489,2.984-10.608,2.523-14.643-1.104C69.8,36.039,69.679,35.941,69.467,35.763z
	 M85.459,26.91c-0.039-0.433-0.069-0.964-0.146-1.49c-0.058-0.377-0.158-0.752-0.271-1.117c-1.557-5.034-7.313-7.275-11.599-4.422
	c-3.129,2.083-4.312,5.142-3.704,8.816c0.975,5.895,7.613,8.037,11.837,5.508C84.269,32.591,85.364,30.06,85.459,26.91z"/>
<path fill="#58585B" d="M97.79,29.804c0.453,1.477,1.316,2.596,2.459,3.512c3.467,2.781,8.139,2.434,11.154-0.838
	c0.319-0.346,0.616-0.438,1.049-0.207c0.86,0.459,1.748,0.867,2.607,1.326c0.577,0.311,0.625,0.676,0.202,1.178
	c-2.041,2.439-4.677,3.789-7.798,4.254c-3.219,0.479-6.227-0.078-8.924-1.924c-3.035-2.074-4.711-5.008-5.139-8.641
	c-0.439-3.732,0.496-7.082,2.995-9.921c2.017-2.293,4.588-3.58,7.62-3.942c6.382-0.762,11.588,3.427,13.072,9.285
	c0.221,0.869,0.295,1.775,0.434,2.665c0.089,0.581-0.225,0.956-0.71,1.147c-1.19,0.473-2.379,0.977-3.606,1.328
	c-2.387,0.68-4.822,0.611-7.265,0.336c-1.526-0.174-3.06-0.336-4.59-0.377C100.135,28.951,98.958,29.275,97.79,29.804z
	 M113.415,24.965c-0.943-3.717-4.986-7.166-9.576-6.223c-3.457,0.712-6.926,4.569-6.506,7.332c0.127-0.032,0.254-0.053,0.377-0.094
	c2.344-0.802,4.744-0.86,7.187-0.663c1.931,0.158,3.867,0.39,5.804,0.127C111.598,25.322,112.489,25.131,113.415,24.965z"/>
<path fill="#58585B" d="M158.068,39.234c-3.694,0.006-6.794-1.406-9.467-3.869c-0.384-0.354-0.379-0.617,0.022-0.953
	c0.728-0.605,1.463-1.201,2.203-1.793c0.455-0.365,0.641-0.355,1.079,0.035c1.412,1.256,3.017,2.123,4.896,2.438
	c1.552,0.256,3.065,0.16,4.502-0.539c0.29-0.143,0.567-0.324,0.817-0.527c1.508-1.229,1.364-3.201-0.289-4.23
	c-0.813-0.506-1.735-0.65-2.648-0.828c-1.811-0.354-3.646-0.602-5.357-1.334c-0.609-0.262-1.214-0.552-1.777-0.901
	c-3.291-2.04-3.496-5.489-2.021-8.155c1.224-2.207,3.224-3.427,5.64-3.845c3.779-0.654,7.297,0.04,10.379,2.454
	c0.688,0.538,0.719,0.836,0.084,1.413c-0.569,0.518-1.152,1.019-1.75,1.504c-0.498,0.404-0.816,0.411-1.313,0.013
	c-1.663-1.332-3.558-1.888-5.67-1.725c-1.037,0.08-2.006,0.376-2.833,1.032c-1.464,1.162-1.423,2.992,0.088,4.081
	c1.074,0.774,2.334,1.051,3.592,1.324c1.397,0.304,2.813,0.545,4.194,0.909c0.72,0.189,1.415,0.525,2.067,0.893
	c3.815,2.146,3.998,7.067,1.328,9.817c-1.465,1.512-3.313,2.238-5.344,2.553C159.69,39.121,158.875,39.158,158.068,39.234z"/>
<path fill="#58585B" d="M176.631,26.95c0,3.61,0,7.222-0.002,10.835c0,0.674-0.155,0.836-0.834,0.84
	c-0.858,0.004-1.717,0.006-2.574,0c-0.613-0.006-0.791-0.189-0.791-0.811c-0.002-7.234-0.002-14.474,0-21.71
	c0.001-0.616,0.181-0.781,0.804-0.781c0.888-0.001,1.774-0.002,2.664,0c0.558,0.002,0.731,0.179,0.731,0.748
	C176.631,19.697,176.631,23.323,176.631,26.95z"/>
</svg>
