<?xml version="1.0" encoding="utf-8"?>
<!-- Generator: Adobe Illustrator 16.0.3, SVG Export Plug-In . SVG Version: 6.00 Build 0)  -->
<!DOCTYPE svg PUBLIC "-//W3C//DTD SVG 1.1//EN" "http://www.w3.org/Graphics/SVG/1.1/DTD/svg11.dtd">
<svg version="1.1" id="Layer_1" xmlns="http://www.w3.org/2000/svg" xmlns:xlink="http://www.w3.org/1999/xlink" x="0px" y="0px"
	 width="230.208px" height="53.167px" viewBox="0 0 230.208 53.167" enable-background="new 0 0 230.208 53.167"
	 xml:space="preserve">
<g>
	<g>
		<path fill="#58585B" d="M16.264,19.479H8.68L5.1,39.786H0l4.433-25.155h12.686L16.264,19.479z"/>
		<path fill="#58585B" d="M25.328,35.618H20.01l-1.56,4.168h-5.282l10.47-25.155h5.459l1.604,25.155h-5.283L25.328,35.618z
			 M25.177,30.762l-0.067-2.875c-0.008-1.793,0.097-4.849,0.206-6.897h-0.142c-0.611,2.05-1.545,5.104-2.219,6.897l-1.083,2.875
			H25.177z"/>
		<path fill="#58585B" d="M35.081,32.09l1.723-9.772c0.939-5.32,4.319-8.193,9.242-8.193c5.03,0,7.329,2.873,6.568,8.193h-5.1
			c0.262-2.3-0.437-3.233-2.38-3.233c-1.547,0-2.621,1.004-3.016,3.233l-1.721,9.772c-0.382,2.156,0.305,3.166,1.887,3.166
			c1.972,0,3.041-0.936,3.576-3.166h5.101c-1.041,5.285-4.45,8.123-9.55,8.123C36.521,40.213,34.148,37.375,35.081,32.09z"/>
		<path fill="#58585B" d="M71.22,19.479h-4.923L62.72,39.786h-5.249l3.579-20.307h-4.921l0.856-4.849h15.091L71.22,19.479z"/>
		<path fill="#58585B" d="M91.025,23.183c-0.943,5.357-4.592,8.512-9.806,8.512h-2.19l-1.422,8.091h-5.105l4.435-25.155h7.297
			C89.441,14.631,91.974,17.792,91.025,23.183z M85.776,23.183c0.434-2.441-0.425-3.704-2.471-3.704h-2.121l-1.299,7.367h2.12
			C84.053,26.847,85.351,25.59,85.776,23.183z"/>
		<path fill="#58585B" d="M101.38,35.618h-5.319l-1.56,4.168h-5.28l10.468-25.155h5.465l1.601,25.155h-5.282L101.38,35.618z
			 M101.229,30.762l-0.067-2.875c-0.007-1.793,0.101-4.849,0.214-6.897h-0.146c-0.613,2.05-1.545,5.104-2.221,6.897l-1.084,2.875
			H101.229z"/>
		<path fill="#58585B" d="M130.697,14.631l-4.437,25.155h-5.139l1.808-10.242h-5.175l-1.809,10.242h-5.135l4.432-25.155h5.138
			l-1.772,10.061h5.177l1.771-10.061H130.697z"/>
		<path fill="#58585B" d="M133.163,32.09l1.721-9.772c0.941-5.32,4.326-8.193,9.246-8.193c5.029,0,7.33,2.873,6.568,8.193h-5.101
			c0.261-2.3-0.44-3.233-2.38-3.233c-1.547,0-2.616,1.004-3.014,3.233l-1.727,9.772c-0.378,2.156,0.309,3.166,1.887,3.166
			c1.979,0,3.039-0.936,3.578-3.166h5.104c-1.039,5.285-4.453,8.123-9.553,8.123C134.603,40.213,132.23,37.375,133.163,32.09z"/>
	</g>
	<g>
		<g>
			<path fill="#58585B" d="M189.392,8.404c-2.456-0.016-4.906,0.009-7.343,0.29c-4.965,0.568-10.019,2.033-14.123,4.967
				c-3.393,2.426-6.58,5.609-8.516,9.337c-1.078,2.069-1.916,4.485-2.308,6.792c-1.017,6.016,0.046,13.021,2.121,18.725
				c0.348,0.961,1.516,3.729,1.86,4.633c-1.262-10.596,2.084-15.141,8.781-20.061c4.118-3.029,9.361-4.191,14.43-5.451
				c5.219-1.3,10.687-2.766,15.074-6.013c2.67-1.977,5.197-4.695,6.967-7.469c2.07-3.239,3.332-6.564,5.379-9.806
				c-1.188,0.659-5.643,2.933-9.26,3.254C198.079,7.983,193.774,8.429,189.392,8.404z"/>
		</g>
		<path fill="#58585B" d="M212.095,11.146c-0.462,0.819-0.899,1.65-1.343,2.481c-0.818,1.545-1.67,3.152-2.644,4.646
			c-1.429,2.183-2.853,3.897-4.354,5.24c-4.471,3.983-10.002,5.669-14.828,6.791c-3.354,0.779-12.473,3.705-14.346,4.602
			c-3.496,1.672-7.986,5.105-9.59,8.689c-0.984,2.228-1.322,4.7-0.943,6.973c0.076,0.449,0.262,2.072,0.406,2.514
			c0.471-2.287,0.926-4.59,2.065-6.656c1.181-2.139,2.992-3.775,5.005-5.121c1.25-0.824,2.566-1.596,3.895-2.293
			c4.123-2.179,8.647-3.395,13.022-4.568c5.279-1.42,10.733-2.885,15.445-6.051c2.136-1.438,4.138-3.296,5.788-5.38
			c2.41-3.057,4.068-6.696,5.563-10.163c0.887-2.06,1.739-3.843,2.68-5.612c1.146-2.149,2.642-3.893,4.25-5.64
			c-0.771,0.357-1.561,0.739-2.321,1.169c-1.155,0.644-2.125,1.312-2.97,2.037C214.799,6.601,213.351,8.915,212.095,11.146z"/>
		<path fill="#58585B" d="M228.442,10.794c-1.348-7.295,0.02-10.155,0.123-10.286c-0.984,0.579-1.955,1.234-2.73,1.83
			c-2.774,2.144-4.131,5.512-5.252,8.732c-1.195,3.448-2.483,6.85-4.394,9.975c-1.11,1.819-2.373,3.534-3.826,5.088
			c-1.42,1.517-2.962,2.931-4.647,4.148c-3.141,2.266-6.67,4.084-10.305,5.424c-6.183,2.277-12.233,2.527-18.44,5.385
			c-4.78,2.204-10.195,6.396-10.54,12.077c5.703-5.245,12.681-5.664,20.091-5.591c11.628,0.111,23.588-1.872,32.315-11.296
			c4.613-4.979,7.127-10.535,7.738-17.625C228.805,16.019,228.918,13.371,228.442,10.794z"/>
	</g>
</g>
</svg>
