<?xml version="1.0" encoding="utf-8"?>
<!-- Generator: Adobe Illustrator 16.0.3, SVG Export Plug-In . SVG Version: 6.00 Build 0)  -->
<!DOCTYPE svg PUBLIC "-//W3C//DTD SVG 1.1//EN" "http://www.w3.org/Graphics/SVG/1.1/DTD/svg11.dtd">
<svg version="1.1" id="Layer_1" xmlns="http://www.w3.org/2000/svg" xmlns:xlink="http://www.w3.org/1999/xlink" x="0px" y="0px"
	 width="59.5px" height="53.167px" viewBox="0 0 59.5 53.167" enable-background="new 0 0 59.5 53.167" xml:space="preserve">
<rect fill="#58585B" width="59.539" height="53.431"/>
<circle fill="#58585B" stroke="#FFFFFF" stroke-width="1.0941" stroke-miterlimit="10" cx="29.77" cy="26.716" r="21.108"/>
<polygon fill="#FFFFFF" points="40.57,24.493 40.57,29.13 39.396,29.13 39.396,30.477 48.663,30.477 48.663,26.955 47.889,26.955 
	45.705,29.137 45.073,29.137 45.073,24.481 45.961,24.481 45.961,22.84 39.374,22.84 39.374,24.47 "/>
<polygon fill="#FFFFFF" points="25.048,24.048 20.181,28.916 21.115,29.85 22.096,28.869 24.523,31.296 23.646,32.175 
	25.036,33.565 31.338,27.263 30.199,26.123 28.695,27.626 "/>
<polygon fill="#FFFFFF" points="12.807,24.493 12.807,29.13 11.633,29.13 11.633,30.477 20.899,30.477 20.899,26.955 20.124,26.955 
	17.941,29.137 17.309,29.137 17.309,24.481 18.198,24.481 18.198,22.84 11.61,22.84 11.61,24.47 "/>
<path fill="#FFFFFF" d="M35.915,22.863c-1.181,0-6.736-0.051-6.736-0.051v1.641h0.992v4.667h-0.787v1.385h7.625
	c0,0,2.291-0.7,2.291-3.949C39.299,23.308,37.094,22.863,35.915,22.863z M34.291,29.035v-4.018c0,0,1.624,0.495,1.589,2.017
	C35.846,28.625,34.291,29.035,34.291,29.035z"/>
<circle fill="#FFFFFF" cx="24.911" cy="21.518" r="2.325"/>
</svg>
