<?xml version="1.0" encoding="utf-8"?>
<!-- Generator: Adobe Illustrator 16.0.3, SVG Export Plug-In . SVG Version: 6.00 Build 0)  -->
<!DOCTYPE svg PUBLIC "-//W3C//DTD SVG 1.1//EN" "http://www.w3.org/Graphics/SVG/1.1/DTD/svg11.dtd">
<svg version="1.1" id="Layer_1" xmlns="http://www.w3.org/2000/svg" xmlns:xlink="http://www.w3.org/1999/xlink" x="0px" y="0px"
	 width="94.333px" height="60px" viewBox="0 0 94.333 60" enable-background="new 0 0 94.333 60" xml:space="preserve">
<g>
	<g>
		<path fill="#4E4E53" d="M47.336,10.639H16.525l0.003-1.689c0-6.773,3.84-8.938,7.287-8.95h16.234
			c3.447,0.012,7.29,2.176,7.287,8.95V10.639L47.336,10.639z"/>
		<path fill="#4E4E53" d="M35.807,24.144c0,0,0.068,5.666-0.989,8.82c4.789-1.038,6.746-5.546,7.541-8.82H35.807L35.807,24.144z
			 M42.761,35.924h0.14v-2.528C42.901,34.307,42.853,35.146,42.761,35.924z"/>
		<path fill="#4E4E53" d="M6.964,48.29h25.688c5.024,0,10.255-1.954,10.252-11.359v-3.694v-9.092c0,0,0.536,10.891-10.211,10.891
			L6.964,35.024c0,0-6.975-0.658-6.962,6.485v6.78H6.964z"/>
		<path fill="#4E4E53" d="M20.582,24.144c0,0-5.592,0.145-5.864-5.353V9.329c0,0-0.472-9.312,6.184-9.329h-9.848
			C3.954,0,0.002,3.433,0.002,8.442v7.818c0,0-0.414,7.885,10.45,7.887L20.582,24.144z"/>
		<path fill="#4E4E53" d="M63.802,6.962C63.802,1.955,60.687,0,56.84,0H42.9c4.904,0.012,5.939,5.064,6.146,7.727l0.006,34.949
			c0.006,3.997,3.362,5.614,6.957,5.614h7.793V6.962z"/>
		<path fill="#4E4E53" d="M69.942,25.58v22.71h3.078c2.185,0,2.752-2.457,2.752-4.21c0-0.065,0-0.131,0-0.196
			c0-8.956,0.031-17.913,0.051-26.867C71.775,18.501,69.942,22.728,69.942,25.58z"/>
		<path fill="#4E4E53" d="M78.342,14.756h13.601V0H75.82c-0.091,0-0.176,0.003-0.267,0.006l-0.221,0.011
			c-3.019,0.19-5.394,2.19-5.394,6.945v14.761C69.942,21.724,70.827,14.756,78.342,14.756z"/>
	</g>
	<g>
		<path fill="#4E4E53" d="M22.699,55.343h-6.401c-0.439,0-0.824,0.04-1.166,0.119v-2.448h7.567c0.774,0,1.163,0.389,1.163,1.166
			C23.865,54.954,23.476,55.343,22.699,55.343L22.699,55.343z M22.699,51.851L22.699,51.851h-7.564h-1.748v1.163v4.656v1.421v0.908
			h1.748v-0.908V57.67c0-0.777,0.39-1.163,1.163-1.163h6.403c1.938,0,2.908-0.777,2.908-2.33
			C25.609,52.625,24.639,51.851,22.699,51.851z"/>
		<path fill="#4E4E53" d="M31.947,55.051l-3.753-3.2h-2.641l4.809,4.077c0.288,0.222,0.43,0.46,0.43,0.706v3.365h1.745v-3.376
			c0-0.466,0.108-0.783,0.322-0.951l4.92-3.821h-1.745L31.947,55.051z"/>
		<polygon fill="#4E4E53" points="41.894,53.014 45.97,53.014 45.97,59.999 47.716,59.999 47.716,53.014 51.787,53.014 
			51.787,51.851 41.894,51.851 		"/>
		<path fill="#4E4E53" d="M52.953,54.18c0,0.774,0.241,1.356,0.727,1.745c-0.485,0.389-0.727,0.968-0.727,1.745
			c0,1.552,0.968,2.329,2.908,2.329h9.311v-1.166h-9.311c-0.774,0-1.163-0.386-1.163-1.163s0.389-1.163,1.163-1.163h9.311v-1.166
			h-9.311c-0.774,0-1.163-0.392-1.163-1.164c0-0.777,0.389-1.168,1.163-1.168h9.311v-1.164h-9.311
			C53.921,51.851,52.953,52.625,52.953,54.18z"/>
		<path fill="#4E4E53" d="M66.338,54.18v3.49c0,1.552,0.968,2.329,2.908,2.329h9.314v-1.166h-9.314
			c-0.771,0-1.163-0.386-1.163-1.163v-3.49c0-0.777,0.392-1.166,1.163-1.166h9.314v-1.163h-9.314
			C67.306,51.851,66.338,52.625,66.338,54.18z"/>
		<polygon fill="#4E4E53" points="90.199,51.851 90.199,55.343 81.469,55.343 81.469,51.851 79.724,51.851 79.724,59.999 
			81.469,59.999 81.469,56.507 90.199,56.507 90.199,59.999 91.946,59.999 91.946,51.851 		"/>
		<path fill="#4E4E53" d="M0.002,54.18c0,1.552,0.97,2.327,2.911,2.327h3.799h2.602c0.776,0,1.164,0.389,1.164,1.163
			c0,0.777-0.387,1.166-1.164,1.166H0.002v1.166h9.311c1.941,0,2.911-0.774,2.911-2.329c0-1.553-0.97-2.327-2.911-2.327H7.417H2.913
			c-0.777,0-1.163-0.389-1.163-1.163c0-0.777,0.386-1.169,1.163-1.169h9.312v-1.163H2.913C0.972,51.851,0.002,52.625,0.002,54.18z"
			/>
	</g>
</g>
</svg>
