<?xml version="1.0" encoding="utf-8"?>
<!-- Generator: Adobe Illustrator 16.0.3, SVG Export Plug-In . SVG Version: 6.00 Build 0)  -->
<!DOCTYPE svg PUBLIC "-//W3C//DTD SVG 1.1//EN" "http://www.w3.org/Graphics/SVG/1.1/DTD/svg11.dtd">
<svg version="1.1" id="Layer_1" xmlns="http://www.w3.org/2000/svg" xmlns:xlink="http://www.w3.org/1999/xlink" x="0px" y="0px"
	 width="196.5px" height="53.167px" viewBox="0 0 196.5 53.167" enable-background="new 0 0 196.5 53.167" xml:space="preserve">
<g>
	<path fill="#58585B" d="M44.876,53.197c-3.073,0.105-6.14-0.078-8.923-1.354c-0.481-0.223-0.979-0.172-1.403,0.277
		c-1.144,1.207-30.228,0.553-31.603,0.553c-0.529-0.002-1.118-0.157-1.576-0.42c-1.13-0.648-1.398-1.771-1.37-2.983
		c0.006-0.259,0.12-0.515,0.131-0.772c0.051-1.123,0.08-2.248,0.122-3.373C0.44,40.115,0.691,35.11,0.94,30.104
		c0.074-1.487,0.147-2.974,0.218-4.461c0.152-3.204,0.295-6.406,0.43-9.61c0.126-3.012,0.201-6.026,0.343-9.039
		c0.053-1.123,0.167-2.244,0.19-3.367c0.012-0.605,0.104-1.179,0.424-1.675C2.943,1.331,3.42,0.769,4.249,0.713
		C4.901,0.67,5.554,0.584,6.206,0.584c11.58-0.012,23.16-0.018,34.74-0.01c1.886,0.002,3.771,0.081,5.656,0.134
		c0.169,0.005,0.359,0.051,0.5,0.141c1.262,0.807,1.704,1.728,1.432,3.277c-0.152,0.871-0.44,1.72-0.693,2.571
		c-0.174,0.586-0.004,0.834,0.604,0.897c1.044,0.108,6.034,0.279,6.801,0.278c4.619-0.011,9.246,0.229,13.855-0.281
		c0.39-0.043,0.645-0.207,0.708-0.591c0.139-0.848,0.601-3.97,0.798-4.656c0.26-0.905,0.95-1.478,1.839-1.621
		c0.93-0.151,1.893-0.123,2.84-0.125c4.246-0.018,24.685-0.032,28.957-0.025c0.763,0.001,1.522,0.008,2.282,0.018
		c0.984,0.012,1.838,0.304,2.42,1.16c0.188,0.278,0.441,0.307,0.731,0.191c0.515-0.202,1.04-0.378,1.541-0.607
		c1.144-0.522,2.382-0.739,3.597-0.875c1.621-0.182,24.783,0.172,25.74,0.267c0.752,0.075,1.229,0.598,1.629,1.198
		c0.508,0.766,0.463,1.604,0.342,2.454c-0.123,0.881-0.272,1.759-0.377,2.643c-0.063,0.528,0.133,0.674,0.656,0.645
		c0.698-0.039,1.404-0.108,2.1-0.056c1.658,0.124,3.326,0.234,4.902,0.833c0.676,0.257,1.354,0.531,1.987,0.875
		c0.474,0.256,0.899,0.287,1.376,0.083c0.574-0.246,1.166-0.455,1.729-0.722c1.226-0.579,2.557-0.748,3.863-0.887
		c3.038-0.325,6.07-0.254,9.021,0.693c0.576,0.186,1.137,0.432,1.683,0.694c0.497,0.237,0.96,0.495,1.533,0.231
		c0.565-0.259,1.158-0.463,1.724-0.728c1.338-0.626,2.793-0.773,4.219-0.917c1.521-0.152,3.065-0.119,4.599-0.059
		c1.459,0.056,4.31,0.649,5.258,1.218c0.698,0.419,2.704,1.711,3.007,1.939c0.887,0.671,1.57,1.524,2.137,2.464
		c1.14,1.893,1.963,3.769,1.275,8.392c-0.131,0.883-1.792,12.903-2.066,15.122c-0.487,3.971-1.293,7.818-3.771,11.063
		c-0.694,0.91-1.563,1.633-2.463,2.286c-1.188,0.867-2.533,1.491-3.955,1.923c-0.418,0.127-0.823,0.307-1.252,0.389
		c-0.784,0.149-1.582,0.242-2.366,0.396c-3.021,0.583-6.725,0.356-9.604-0.797c-0.524-0.213-1.036-0.458-1.564-0.658
		c-0.271-0.104-0.607-0.26-0.851-0.187c-0.636,0.197-1.226,0.529-1.849,0.769c-0.504,0.19-1.018,0.374-1.543,0.479
		c-1.494,0.293-4.131,0.445-5.664,0.461c-9.518,0.091-33.902,0.07-37.965-0.032c-3.759-0.093-9.009,0.396-12.646-0.774
		c-1.069-0.346-2.08-0.807-3.038-1.388c-0.351-0.211-0.517-0.198-0.699,0.161c-0.606,1.199-1.571,1.768-2.924,1.76
		C96.726,52.675,47,53.123,44.876,53.197z M106.159,7.974c-0.017-0.122-0.04-0.181-0.031-0.235c0.171-1.154,0.31-2.315,0.534-3.459
		c0.15-0.771-0.102-1.14-0.879-1.084c-0.291,0.021-13.758,0.024-14.14,0.045c-0.369,0.019-0.598,0.211-0.655,0.585
		c-0.273,1.776-0.882,5.799-0.968,6.013c-0.06,0.146-0.196,0.339-0.327,0.364c-0.497,0.098-1.005,0.146-1.51,0.191
		c-0.281,0.025-0.402-0.142-0.359-0.416c0.044-0.288,0.818-4.968,0.972-5.875c0.111-0.656-0.081-0.867-0.728-0.868
		c-4.728,0-9.458-0.06-14.185-0.006c-0.598,0.007-0.833,0.227-0.907,0.788c-0.052,0.391-0.626,4.004-0.881,5.53
		c-0.043,0.256-0.063,0.612-0.229,0.724c-0.164,0.113-0.557,0.175-0.816,0.168c-4.569-0.1-8.146-0.18-12.226-0.191
		c-1.177-0.002-4.176-0.402-4.756,0.838c-0.118,0.253-0.24,0.25-0.479,0.185c-1.082-0.296-2.159-0.633-3.261-0.828
		c-2.008-0.354-4.015-0.214-6.004,0.215c-0.202,0.044-0.337,0.017-0.274-0.227c0.345-1.327,0.693-2.652,1.045-3.976
		c0.228-0.858,0.477-1.711,0.695-2.57c0.111-0.433-0.051-0.633-0.512-0.65c-0.452-0.018-0.906,0.001-1.359,0.001
		c-9.381,0-18.763-0.007-28.143-0.009c-2.624-0.001-5.247-0.003-7.87-0.003c-0.805,0-1.61,0.005-2.416,0.003
		c-0.385-0.001-0.617,0.18-0.647,0.564C4.75,5,4.645,6.208,4.586,7.419C4.143,16.564,3.765,25.713,3.37,34.862
		c-0.208,4.792-0.432,9.583-0.658,14.375c-0.024,0.521,0.196,0.772,0.709,0.778c0.834,0.01,1.668,0.014,2.503,0.014
		c5.738,0.002,11.477,0.002,17.216,0c3.06,0,6.118-0.007,9.178,0c0.449,0,0.733-0.189,0.851-0.604
		c0.159-0.559,0.294-1.125,0.431-1.691c0.1-0.416,0.199-0.449,0.557-0.186c0.384,0.287,0.776,0.563,1.157,0.859
		c1.213,0.93,2.637,1.346,4.092,1.693c3.59,0.854,51.087-0.077,59.1-0.075c0.674,0,0.912-0.202,1.006-0.89
		c0.141-1.025,0.219-1.717,0.381-2.737c0.084-0.54,0.278-1.407,0.404-1.94c0.038-0.01,0.076-0.021,0.114-0.028
		c0.108,0.175,0.214,0.356,0.33,0.526c0.438,0.633,0.829,1.313,1.339,1.887c0.934,1.049,2.098,1.762,3.398,2.33
		c1.131,0.494,2.297,0.791,3.484,0.951c4.501,0.609,8.98,0.34,13.503,0.334c5.979-0.016,21.541-0.019,22.454,0.014
		c2.271,0.078,3.309-0.227,3.784-0.518c1.707-1.055,1.204-0.781,2.606-0.381c1.01,0.284,2.653,0.762,3.694,0.834
		c2.662,0.182,5.288-0.066,7.802-1.039c0.623-0.242,1.254-0.502,1.809-0.871c0.879-0.584,1.068-0.545,1.962,0.026
		c0.788,0.505,1.678,0.884,2.565,1.19c0.734,0.259,1.537,0.322,2.305,0.494c1.623,0.359,3.265,0.279,4.893,0.14
		c0.938-0.081,1.848-0.435,2.783-0.542c0.977-0.112,1.801-0.573,2.66-0.954c1.101-0.483,2.063-1.199,2.908-2.063
		c0.943-0.961,1.722-2.047,2.233-3.275c0.427-1.027,0.8-2.081,0.923-3.229c0.281-2.632,1.771-11.841,2.092-13.825
		c0.166-1.023,0.346-2.044,0.485-3.071c0.183-1.33,0.464-2.663,0.455-3.995c-0.005-0.962-0.129-1.957-0.47-2.919
		c-0.723-2.045-2.064-3.515-3.876-4.624c-1.284-0.785-2.716-1.183-4.173-1.357c-1.363-0.165-2.729-0.359-4.144-0.17
		c-1.522,0.204-3.036,0.377-4.502,0.855c-1.103,0.359-2.144,0.859-3.082,1.539c-0.267,0.193-0.392,0.151-0.627-0.031
		c-0.844-0.657-1.758-1.207-2.778-1.543c-0.578-0.189-1.195-0.26-1.772-0.455c-1.201-0.403-2.456-0.333-3.687-0.442
		c-0.762-0.067-1.545,0.07-2.313,0.158c-1.45,0.167-2.867,0.458-4.229,1.027c-0.896,0.375-1.736,0.81-2.516,1.39
		c-0.116,0.086-0.424,0.08-0.531-0.013c-0.669-0.578-1.419-0.991-2.218-1.373c-1.229-0.589-2.522-0.862-3.854-1.047
		c-0.273-0.038-0.553-0.046-0.83-0.058c-0.684-0.033-1.377-0.141-2.051-0.073c-1.305,0.129-2.596,0.358-3.894,0.549
		c-0.633,0.094-0.66,0.053-0.547-0.604c0.345-1.971,0.678-3.944,1.015-5.917c0.012-0.072,0.021-0.145,0.026-0.218
		c0.036-0.652-0.103-0.833-0.749-0.858c-0.428-0.017-6.318-0.136-10.164-0.079c-1.671,0.025-2.602-0.01-3.111,0.184
		c-1.214,0.457-1.594,1.208-2.449,0.824c-1.275-0.573-2.266-1.007-3.203-1.213c-1.461-0.321-3.258,0.023-4.738,0.176
		c-0.967,0.1-1.939,0.308-2.862,0.612c-0.934,0.309-1.827,0.755-2.698,1.216c-1.063,0.558-2.009,1.288-2.813,2.192
		C106.787,7.417,106.484,7.665,106.159,7.974z"/>
	<path fill="#58585B" d="M20.916,25.479c-0.048,0.082-0.114,0.159-0.141,0.246c-0.43,1.45-0.853,2.903-1.28,4.354
		c-0.56,1.898-1.132,3.797-1.679,5.701c-0.322,1.118-0.595,2.256-0.91,3.379c-0.295,1.051-0.622,2.094-0.924,3.143
		c-0.177,0.615-0.325,1.24-0.499,1.857c-0.111,0.391-0.225,0.784-0.38,1.16c-0.046,0.111-0.238,0.229-0.364,0.229
		c-2.343,0.016-4.685,0.014-7.026,0.016c-0.24,0-0.329-0.093-0.318-0.35c0.093-2.131,0.161-4.264,0.261-6.396
		c0.061-1.297,0.184-2.593,0.246-3.89c0.064-1.33,0.076-2.661,0.133-3.991c0.08-1.868,0.186-3.735,0.272-5.603
		c0.036-0.803,0.05-1.608,0.076-2.413c0.034-1.067,0.053-2.134,0.104-3.199c0.07-1.457,0.174-2.913,0.248-4.37
		c0.062-1.21,0.097-2.423,0.153-3.635c0.057-1.211,0.127-2.421,0.188-3.631C9.089,7.8,9.221,7.676,9.517,7.679
		c1.961,0.017,3.923,0.029,5.884,0.034c0.303,0,0.431,0.132,0.414,0.423c-0.039,0.714-0.09,1.427-0.119,2.142
		c-0.075,1.854-0.121,3.711-0.214,5.564c-0.078,1.501-0.239,2.997-0.303,4.498c-0.049,1.166-0.007,2.335-0.002,3.503
		c0,0.082,0.037,0.165,0.096,0.412c0.165-0.225,0.296-0.339,0.346-0.481c0.245-0.699,0.474-1.404,0.695-2.11
		c0.151-0.485,0.275-0.979,0.421-1.466c0.275-0.922,0.555-1.842,0.835-2.761c0.217-0.71,0.434-1.421,0.659-2.129
		c0.323-1.012,0.656-2.021,0.979-3.034c0.167-0.526,0.323-1.057,0.481-1.585c0.26-0.878,0.515-1.757,0.778-2.633
		c0.102-0.339,0.394-0.362,0.677-0.366c0.511-0.007,1.023,0.002,1.535,0.003c1.947,0,3.895,0,5.841,0.002
		c0.544,0,0.595,0.072,0.577,0.609c-0.042,1.229-0.049,2.459-0.102,3.687c-0.049,1.152-0.146,2.303-0.207,3.455
		c-0.038,0.717-0.051,1.433-0.072,2.149c-0.053,1.771-0.113,3.538-0.15,5.307c-0.008,0.34,0.075,0.681,0.116,1.022
		c0.049,0.017,0.097,0.033,0.146,0.049c0.109-0.131,0.267-0.245,0.321-0.396c0.166-0.468,0.285-0.951,0.434-1.425
		c0.189-0.61,0.392-1.217,0.584-1.827c0.175-0.554,0.344-1.109,0.513-1.665c0.323-1.06,0.642-2.119,0.962-3.179
		c0.172-0.572,0.336-1.146,0.515-1.714c0.323-1.027,0.657-2.05,0.979-3.077c0.275-0.875,0.546-1.751,0.813-2.629
		C34.02,7.83,34.117,7.677,34.4,7.679c1.668,0.013,3.336,0.008,5.005,0.019c0.646,0.004,0.756,0.148,0.577,0.771
		c-0.307,1.064-0.65,2.117-0.945,3.184c-0.306,1.109-0.566,2.231-0.859,3.344c-0.11,0.423-0.264,0.834-0.387,1.255
		c-0.298,1.023-0.6,2.045-0.883,3.072c-0.32,1.166-0.612,2.339-0.931,3.504c-0.169,0.618-0.377,1.223-0.556,1.839
		c-0.174,0.602-0.33,1.21-0.499,1.813c-0.317,1.136-0.645,2.269-0.958,3.405c-0.309,1.126-0.602,2.256-0.908,3.381
		c-0.157,0.578-0.333,1.148-0.492,1.725c-0.324,1.178-0.631,2.361-0.967,3.536c-0.437,1.529-0.901,3.052-1.342,4.58
		c-0.178,0.616-0.35,1.235-0.475,1.864c-0.072,0.363-0.238,0.548-0.599,0.566c-0.146,0.008-0.292,0.021-0.438,0.021
		c-2.503,0.002-5.006,0.002-7.509,0.002c-0.562,0-0.673-0.141-0.587-0.688c0.047-0.301,0.082-0.605,0.086-0.914
		c0.038-2.664,0.062-5.326,0.104-7.987c0.018-1.171,0.06-2.339,0.106-3.509c0.076-1.926,0.175-3.85,0.241-5.774
		c0.013-0.402-0.078-0.809-0.12-1.213C21.016,25.479,20.966,25.479,20.916,25.479z"/>
	<path fill="#58585B" d="M92.885,45.574c-0.659,0-1.318-0.019-1.977,0.008c-0.287,0.01-0.455-0.067-0.596-0.326
		c-0.347-0.633-0.422-0.58-1.041-0.271c-0.933,0.466-1.871,0.974-2.968,0.958c-0.219-0.002-0.441-0.021-0.658,0.006
		c-1.321,0.157-2.547-0.229-3.666-0.838c-1.085-0.59-1.835-1.5-1.878-2.855c-0.034-1.075,0.138-2.117,0.324-3.172
		c0.344-1.938,0.628-3.891,0.935-5.834c0.21-1.326,0.408-2.651,0.629-3.977c0.301-1.801,0.618-3.598,0.927-5.397
		c0.021-0.13,0.031-0.261,0.054-0.391c0.281-1.757,0.532-3.519,0.863-5.268c0.158-0.844,0.717-1.488,1.361-2.044
		c1.095-0.945,2.423-1.319,3.811-1.474c1.072-0.12,2.12,0.146,3.144,0.461c0.35,0.107,0.687,0.249,1.028,0.381
		c0.305,0.119,0.438-0.017,0.479-0.306c0.136-0.953,0.255-1.908,0.411-2.857c0.198-1.209,0.429-2.413,0.639-3.62
		c0.042-0.244,0.008-0.506,0.083-0.738c0.043-0.136,0.23-0.32,0.354-0.321c1.814-0.016,3.628,0.001,5.442-0.004
		c1.008-0.003,1.073,0.075,0.905,1.08c-0.245,1.455-0.458,2.915-0.701,4.369c-0.313,1.856-0.648,3.709-0.954,5.568
		c-0.196,1.195-0.349,2.398-0.536,3.594c-0.212,1.341-0.447,2.678-0.667,4.017c-0.235,1.442-0.47,2.883-0.692,4.326
		c-0.16,1.024-0.285,2.056-0.453,3.076c-0.171,1.038-0.385,2.067-0.558,3.104c-0.19,1.139-0.349,2.279-0.528,3.418
		c-0.191,1.211-0.396,2.418-0.589,3.629c-0.061,0.375-0.119,0.752-0.146,1.129c-0.025,0.359-0.183,0.543-0.545,0.541
		c-0.745,0-1.492,0-2.238,0C92.885,45.556,92.885,45.564,92.885,45.574z M88.15,41.384c0.728-0.012,1.331-0.444,1.45-1.086
		c0.261-1.391,0.503-2.784,0.74-4.182c0.056-0.328,0.038-0.672,0.094-1c0.194-1.166,0.416-2.328,0.608-3.492
		c0.204-1.226,0.382-2.453,0.576-3.676c0.189-1.186,0.393-2.364,0.58-3.545c0.183-1.153,0.325-2.314,0.539-3.461
		c0.154-0.823-0.152-1.462-0.863-1.604c-0.724-0.143-1.543,0.424-1.666,1.154c-0.063,0.374-0.138,0.745-0.198,1.12
		c-0.215,1.341-0.416,2.684-0.638,4.023c-0.311,1.87-0.641,3.737-0.952,5.606c-0.236,1.424-0.457,2.85-0.684,4.275
		c-0.24,1.499-0.483,2.998-0.714,4.496C86.908,40.757,87.445,41.396,88.15,41.384z"/>
	<path fill="#58585B" d="M120.49,20.773c-0.979,0-1.961-0.008-2.942,0.004c-0.331,0.004-0.405-0.149-0.356-0.438
		c0.199-1.164,0.402-2.327,0.593-3.492c0.183-1.14,0.354-2.281,0.521-3.422c0.119-0.819-0.621-1.365-1.437-1.057
		c-0.5,0.188-0.845,0.546-0.927,1.08c-0.305,1.933-0.575,3.871-0.881,5.804c-0.149,0.936-0.354,1.863-0.524,2.795
		c-0.048,0.259-0.071,0.521-0.113,0.781c-0.229,1.397-0.462,2.793-0.694,4.191c-0.004,0.028-0.014,0.057-0.018,0.085
		c-0.266,1.698-0.523,3.399-0.794,5.099c-0.206,1.295-0.431,2.588-0.635,3.883c-0.177,1.111-0.341,2.226-0.507,3.336
		c-0.006,0.029-0.01,0.06-0.012,0.088c-0.066,0.88,0.156,1.209,0.854,1.3c0.854,0.106,1.322-0.281,1.494-1.121
		c0.23-1.144,0.33-2.313,0.516-3.466c0.184-1.141,0.408-2.271,0.602-3.406c0.098-0.561,0.162-1.126,0.238-1.688
		c0.055-0.397,0.256-0.568,0.682-0.564c1.945,0.018,3.894,0.016,5.838,0.004c0.328-0.003,0.438,0.15,0.395,0.426
		c-0.148,0.891-0.326,1.778-0.479,2.67c-0.088,0.533-0.137,1.072-0.229,1.604c-0.194,1.149-0.411,2.297-0.612,3.446
		c-0.052,0.287-0.086,0.578-0.106,0.869c-0.104,1.398-0.688,2.555-1.673,3.555c-0.862,0.877-1.889,1.521-2.99,1.945
		c-1.295,0.498-2.646,0.885-4.091,0.851c-1.265-0.028-2.509-0.093-3.741-0.397c-1.273-0.313-2.462-0.805-3.311-1.828
		c-0.652-0.793-0.974-1.766-0.933-2.806c0.03-0.829,0.104-1.661,0.216-2.485c0.176-1.332,0.379-2.66,0.598-3.985
		c0.188-1.151,0.441-2.293,0.621-3.445c0.307-1.978,0.563-3.959,0.867-5.936c0.142-0.922,0.36-1.832,0.519-2.752
		c0.208-1.238,0.364-2.484,0.583-3.72c0.354-1.996,0.467-4.042,1.154-5.97c0.61-1.712,1.703-3.022,3.316-3.901
		c1.736-0.944,3.612-1.278,5.557-1.365c1.277-0.057,2.535,0.056,3.783,0.373c1.182,0.302,2.223,0.811,2.947,1.815
		c0.563,0.781,0.827,1.699,0.809,2.64c-0.021,1.002-0.178,2.005-0.316,3.001c-0.188,1.33-0.418,2.652-0.633,3.979
		c-0.032,0.216-0.063,0.433-0.11,0.647c-0.222,1.01-0.222,1.009-1.263,1.007c-0.789,0-1.58,0-2.37,0
		C120.49,20.793,120.49,20.783,120.49,20.773z"/>
	<path fill="#58585B" d="M43.217,46.005c-0.945-0.071-1.905-0.071-2.834-0.236c-1.124-0.199-2.235-0.551-3.086-1.361
		c-0.424-0.402-0.838-0.902-1.029-1.441c-0.348-0.982-0.622-2.016-0.276-3.088c0.093-0.289,0.095-0.604,0.144-0.907
		c0.217-1.326,0.444-2.65,0.653-3.978c0.17-1.082,0.315-2.168,0.484-3.252c0.188-1.209,0.396-2.418,0.585-3.629
		c0.189-1.213,0.361-2.426,0.55-3.639c0.137-0.88,0.286-1.758,0.436-2.636c0.092-0.532,0.148-1.078,0.303-1.591
		c0.413-1.365,0.962-2.676,2.176-3.536c0.676-0.478,1.376-0.982,2.145-1.249c1-0.347,2.068-0.54,3.123-0.666
		c0.905-0.109,1.846-0.132,2.747-0.014c1.699,0.222,3.376,0.598,4.704,1.809c0.487,0.444,0.878,0.961,1.046,1.633
		c0.256,1.024,0.3,2.027,0.043,3.068c-0.205,0.833-0.273,1.701-0.394,2.554c-0.165,1.155-0.302,2.315-0.489,3.468
		c-0.173,1.064-0.421,2.117-0.592,3.184c-0.304,1.902-0.568,3.813-0.861,5.717c-0.229,1.488-0.384,2.996-0.75,4.449
		c-0.3,1.198-0.837,2.354-1.851,3.164c-0.543,0.438-1.101,0.875-1.709,1.207c-0.477,0.26-1.037,0.383-1.571,0.524
		C45.705,45.88,44.478,46.058,43.217,46.005z M48.495,20.43c-0.107-0.199-0.225-0.608-0.489-0.868
		c-0.575-0.569-1.883-0.084-2.069,0.841c-0.252,1.255-0.498,2.513-0.707,3.776c-0.186,1.122-0.296,2.256-0.479,3.379
		c-0.441,2.707-0.906,5.412-1.357,8.117c-0.108,0.648-0.194,1.3-0.301,1.947c-0.131,0.791-0.272,1.58-0.417,2.369
		c-0.102,0.559,0.149,0.971,0.561,1.293c0.363,0.284,0.775,0.266,1.156,0.041c0.467-0.275,0.832-0.656,0.925-1.217
		c0.263-1.582,0.518-3.164,0.77-4.747c0.156-0.979,0.287-1.965,0.451-2.942c0.186-1.107,0.406-2.209,0.594-3.316
		c0.073-0.432,0.085-0.872,0.154-1.305c0.195-1.223,0.404-2.445,0.609-3.668c0.057-0.344,0.128-0.685,0.182-1.028
		C48.21,22.279,48.335,21.457,48.495,20.43z"/>
	<path fill="#58585B" d="M143.75,45.563c-0.805-0.001-1.609-0.005-2.415,0.002c-0.285,0.004-0.476-0.067-0.509-0.397
		c-0.027-0.295-0.195-0.367-0.46-0.209c-1.126,0.67-2.322,1.072-3.656,0.994c-0.524-0.033-1.054-0.021-1.581-0.01
		c-0.875,0.02-1.654-0.289-2.415-0.673c-1.104-0.558-1.573-1.526-1.504-2.692c0.076-1.277,0.3-2.547,0.472-3.815
		c0.146-1.101,0.285-2.2,0.473-3.294c0.283-1.654,0.955-3.104,2.299-4.195c1.113-0.904,2.306-1.688,3.576-2.352
		c1.213-0.633,2.422-1.271,3.621-1.926c1.023-0.56,1.629-1.387,1.744-2.594c0.112-1.206,0.336-2.402,0.513-3.603
		c0.11-0.752-0.125-1.216-0.716-1.412c-0.479-0.159-1.121,0.154-1.438,0.671c-0.593,0.969-0.812,2.062-0.987,3.15
		c-0.186,1.107-0.269,2.231-0.373,3.35c-0.033,0.333-0.229,0.364-0.483,0.363c-1.142-0.004-2.283-0.008-3.425-0.007
		c-0.701,0-1.404,0.007-2.106,0.018c-0.362,0.005-0.544-0.106-0.472-0.522c0.246-1.453,0.466-2.912,0.709-4.366
		c0.121-0.733,0.238-1.471,0.417-2.192c0.223-0.9,0.642-1.702,1.245-2.428c0.742-0.896,1.699-1.456,2.725-1.915
		c0.486-0.219,1.025-0.36,1.557-0.433c1.615-0.222,3.23-0.586,4.875-0.298c1.318,0.23,2.668,0.395,3.771,1.271
		c0.688,0.548,1.229,1.199,1.38,2.102c0.078,0.461,0.252,0.926,0.228,1.38c-0.057,0.972-0.205,1.938-0.33,2.907
		c-0.062,0.478-0.146,0.952-0.227,1.426c-0.191,1.15-0.396,2.3-0.585,3.451c-0.174,1.053-0.333,2.104-0.499,3.158
		c-0.242,1.527-0.482,3.061-0.732,4.588c-0.24,1.482-0.502,2.964-0.739,4.445c-0.28,1.758-0.548,3.517-0.818,5.275
		c-0.112,0.737-0.213,0.807-0.974,0.786C145.186,45.548,144.468,45.564,143.75,45.563z M139.45,41.398
		c0.7,0.021,1.299-0.578,1.418-1.396c0.146-1.01,0.301-2.018,0.463-3.022c0.229-1.438,0.476-2.877,0.707-4.313
		c0.082-0.515-0.083-0.701-0.593-0.604c-0.756,0.142-1.291,0.647-1.783,1.192c-0.162,0.179-0.314,0.396-0.383,0.623
		c-0.137,0.457-0.236,0.932-0.313,1.402c-0.246,1.586-0.486,3.176-0.712,4.764C138.139,40.873,138.593,41.371,139.45,41.398z"/>
	<path fill="#58585B" d="M153.92,33.36c0.951,0,1.902,0.005,2.854-0.001c0.326-0.002,0.496,0.092,0.435,0.463
		c-0.224,1.324-0.425,2.65-0.64,3.977c-0.123,0.766-0.273,1.522-0.375,2.291c-0.09,0.681,0.344,1.283,0.935,1.389
		c0.408,0.07,1.114-0.426,1.325-0.915c0.795-1.854,0.886-3.81,0.706-5.772c-0.065-0.726-0.476-1.332-1.13-1.742
		c-0.766-0.48-1.521-0.979-2.264-1.49c-0.853-0.59-1.711-1.174-2.518-1.818c-0.842-0.677-1.339-1.563-1.376-2.681
		c-0.036-1.003,0.129-1.973,0.319-2.952c0.195-1.015,0.263-2.056,0.455-3.072c0.373-1.959,1.203-3.687,2.918-4.815
		c0.986-0.649,2.106-1.058,3.309-1.188c1.001-0.108,1.997-0.324,2.998-0.342c1.454-0.027,2.91,0.203,4.238,0.783
		c1.379,0.603,2.396,1.607,2.475,3.269c0.057,1.216-0.002,2.414-0.264,3.613c-0.245,1.126-0.358,2.279-0.528,3.421
		c-0.005,0.029,0.002,0.06-0.004,0.089c-0.188,1.146-0.11,1.03-1.13,1.028c-1.684-0.003-3.367,0.002-5.049-0.003
		c-0.596-0.002-0.623-0.075-0.498-0.642c0.188-0.854,0.359-1.714,0.49-2.578c0.141-0.919,0.256-1.845,0.315-2.772
		c0.022-0.333-0.063-0.726-0.237-1.007c-0.15-0.24-0.479-0.477-0.755-0.509c-0.442-0.051-0.868,0.173-1.108,0.578
		c-0.453,0.76-0.75,1.58-0.772,2.479c-0.021,0.716,0.007,1.436-0.06,2.148c-0.094,1.019,0.435,1.721,1.148,2.281
		c0.983,0.771,2.021,1.475,3.055,2.182c0.52,0.353,1.106,0.604,1.606,0.977c0.778,0.582,1.321,1.364,1.552,2.314
		c0.364,1.504,0.066,2.988-0.189,4.472c-0.188,1.093-0.354,2.188-0.551,3.278c-0.194,1.088-0.603,2.095-1.297,2.961
		c-0.309,0.387-0.625,0.795-1.022,1.074c-0.589,0.416-1.229,0.783-1.894,1.063c-0.6,0.256-1.256,0.376-1.891,0.547
		c-0.225,0.063-0.456,0.138-0.686,0.14c-1.564,0.008-3.141,0.109-4.688-0.035c-1.271-0.123-2.521-0.572-3.517-1.438
		c-0.373-0.321-0.713-0.784-0.852-1.249c-0.226-0.775-0.344-1.604-0.375-2.41c-0.021-0.586,0.17-1.183,0.268-1.771
		c0.193-1.149,0.396-2.3,0.58-3.45c0.082-0.521,0.146-1.044,0.181-1.568c0.028-0.433,0.19-0.623,0.647-0.609
		c0.951,0.025,1.901,0.007,2.854,0.007C153.92,33.351,153.92,33.354,153.92,33.36z"/>
	<path fill="#58585B" d="M171.768,33.375c0.922,0,1.844,0.008,2.769-0.004c0.555-0.008,0.618,0.051,0.521,0.586
		c-0.197,1.074-0.414,2.146-0.586,3.224c-0.164,1.036-0.293,2.082-0.41,3.126c-0.056,0.479,0.149,0.867,0.597,1.072
		c0.446,0.209,0.811,0.004,1.149-0.295c0.592-0.521,0.789-1.248,0.906-1.951c0.193-1.16,0.301-2.35,0.324-3.528
		c0.021-1.149-0.405-2.112-1.477-2.752c-1.101-0.658-2.151-1.397-3.201-2.134c-0.573-0.398-1.112-0.848-1.646-1.299
		c-0.665-0.563-0.927-1.315-0.972-2.172c-0.06-1.146,0.046-2.271,0.296-3.396c0.219-0.98,0.318-1.988,0.49-2.98
		c0.295-1.718,0.972-3.222,2.391-4.329c1.139-0.887,2.439-1.346,3.846-1.537c0.98-0.133,1.967-0.305,2.953-0.324
		c1.424-0.026,2.818,0.295,4.162,0.744c1.508,0.502,2.551,2.11,2.561,3.704c0.013,1.5-0.299,2.957-0.528,4.427
		c-0.154,0.98-0.333,1.958-0.479,2.939c-0.039,0.272-0.146,0.394-0.416,0.394c-1.933-0.002-3.863-0.001-5.797-0.003
		c-0.314-0.001-0.428-0.093-0.344-0.459c0.217-0.938,0.303-1.911,0.566-2.833c0.281-0.985,0.254-1.971,0.22-2.959
		c-0.013-0.34-0.144-0.742-0.36-0.995c-0.433-0.503-1.275-0.385-1.646,0.25c-0.297,0.507-0.533,1.082-0.646,1.657
		c-0.179,0.912-0.272,1.847-0.321,2.777c-0.054,0.993,0.338,1.835,1.148,2.438c1.053,0.783,2.109,1.561,3.188,2.307
		c0.524,0.363,1.176,0.574,1.635,0.999c0.5,0.464,0.949,1.048,1.238,1.663c0.604,1.281,0.469,2.639,0.205,3.998
		c-0.213,1.104-0.369,2.219-0.518,3.332c-0.227,1.702-0.723,3.299-1.943,4.549c-0.752,0.766-1.625,1.415-2.729,1.648
		c-0.342,0.072-0.671,0.199-1.002,0.311c-1.901,0.622-3.866,0.438-5.792,0.301c-1.274-0.092-2.554-0.514-3.581-1.398
		c-0.775-0.672-1.236-1.514-1.297-2.543c-0.105-1.844,0.258-3.633,0.639-5.422c0.073-0.342,0.063-0.698,0.113-1.047
		c0.085-0.576,0.181-1.149,0.283-1.726c0.061-0.321,0.291-0.396,0.591-0.394c0.966,0.01,1.932,0.002,2.897,0.002
		C171.768,33.354,171.768,33.363,171.768,33.375z"/>
	<path fill="#58585B" d="M68.759,27.521c-0.965,0-1.93-0.003-2.896,0.002c-0.298,0.004-0.444-0.124-0.416-0.421
		c0.048-0.494,0.09-0.99,0.166-1.479c0.183-1.182,0.382-2.361,0.577-3.54c0.069-0.418,0.136-0.837,0.218-1.252
		c0.095-0.474-0.116-1.055-0.466-1.23c-0.504-0.254-1.411-0.148-1.664,0.252c-0.204,0.325-0.374,0.699-0.45,1.074
		c-0.25,1.245-0.457,2.5-0.669,3.752c-0.235,1.382-0.47,2.764-0.688,4.148c-0.169,1.08-0.3,2.168-0.471,3.25
		c-0.212,1.34-0.454,2.674-0.671,4.014c-0.245,1.513-0.476,3.027-0.714,4.543c-0.225,1.427-0.452,2.854-0.678,4.281
		c-0.093,0.584-0.154,0.635-0.76,0.635c-1.916,0.004-3.833,0.006-5.749,0.018c-0.308,0.002-0.397-0.158-0.354-0.415
		c0.135-0.819,0.285-1.638,0.425-2.457c0.093-0.546,0.181-1.09,0.265-1.637c0.037-0.244,0.051-0.493,0.09-0.737
		c0.218-1.398,0.431-2.797,0.665-4.191c0.194-1.152,0.434-2.297,0.617-3.448c0.303-1.904,0.564-3.813,0.868-5.717
		c0.152-0.95,0.358-1.892,0.54-2.837c0.017-0.087,0.039-0.172,0.053-0.259c0.251-1.583,0.508-3.167,0.752-4.752
		c0.181-1.183,0.356-2.367,0.512-3.554c0.052-0.403,0.243-0.547,0.636-0.546c1.873,0.01,3.746,0.007,5.62,0.004
		c0.285,0,0.512,0.029,0.572,0.388c0.045,0.273,0.261,0.262,0.484,0.19c0.843-0.275,1.675-0.612,2.538-0.796
		c1.285-0.275,2.551-0.101,3.774,0.406c0.778,0.323,1.408,0.857,1.727,1.589c0.248,0.573,0.312,1.283,0.261,1.916
		c-0.109,1.321-0.332,2.633-0.537,3.946c-0.17,1.079-0.39,2.151-0.573,3.229c-0.06,0.345-0.085,0.696-0.109,1.045
		c-0.029,0.405-0.21,0.59-0.644,0.58c-0.949-0.022-1.9-0.009-2.853-0.009C68.759,27.509,68.759,27.517,68.759,27.521z"/>
	<path fill="#58585B" d="M125.244,45.569c-0.924,0-1.846-0.005-2.77,0.001c-0.549,0.004-0.658-0.143-0.551-0.68
		c0.208-1.041,0.417-2.084,0.592-3.135c0.283-1.711,0.533-3.432,0.812-5.147c0.176-1.108,0.377-2.213,0.556-3.321
		c0.184-1.154,0.348-2.312,0.529-3.463c0.203-1.283,0.427-2.564,0.627-3.848c0.216-1.386,0.408-2.774,0.62-4.16
		c0.21-1.371,0.42-2.743,0.649-4.11c0.191-1.136,0.426-2.264,0.625-3.398c0.252-1.452,0.5-2.903,0.729-4.359
		c0.078-0.504,0.068-1.022,0.139-1.527c0.084-0.587,0.266-0.727,0.842-0.728c1.887-0.004,3.775-0.002,5.664-0.012
		c0.357-0.001,0.45,0.118,0.385,0.481c-0.209,1.147-0.373,2.304-0.563,3.455c-0.188,1.123-0.401,2.24-0.58,3.365
		c-0.208,1.326-0.37,2.659-0.586,3.984c-0.303,1.875-0.651,3.742-0.95,5.616c-0.312,1.959-0.57,3.928-0.879,5.89
		c-0.188,1.198-0.431,2.388-0.638,3.582c-0.222,1.28-0.437,2.56-0.642,3.843c-0.067,0.432-0.076,0.874-0.146,1.307
		c-0.172,1.037-0.371,2.068-0.547,3.104c-0.075,0.444-0.112,0.899-0.182,1.349c-0.078,0.506-0.168,1.008-0.264,1.51
		c-0.061,0.312-0.259,0.414-0.572,0.408C127.178,45.558,126.209,45.568,125.244,45.569L125.244,45.569z"/>
	<path fill="#58585B" d="M74.337,45.564c-0.981,0-1.962-0.002-2.942,0.003c-0.353,0.002-0.52-0.14-0.462-0.511
		c0.234-1.452,0.472-2.907,0.694-4.364c0.155-1.01,0.282-2.024,0.436-3.036c0.149-0.98,0.32-1.959,0.481-2.939
		c0.205-1.237,0.407-2.479,0.612-3.719c0.197-1.211,0.409-2.42,0.597-3.633c0.186-1.197,0.332-2.4,0.526-3.596
		c0.174-1.065,0.41-2.121,0.583-3.187c0.229-1.399,0.41-2.804,0.635-4.204c0.291-1.814,0.607-3.625,0.902-5.438
		c0.151-0.937,0.286-1.876,0.415-2.817c0.049-0.352,0.234-0.443,0.572-0.44c1.916,0.011,3.833,0.008,5.75-0.004
		c0.369-0.003,0.528,0.146,0.475,0.498c-0.144,0.938-0.304,1.874-0.455,2.81c-0.223,1.384-0.441,2.769-0.663,4.152
		c-0.237,1.486-0.473,2.972-0.713,4.456c-0.24,1.484-0.491,2.966-0.731,4.449c-0.237,1.47-0.462,2.941-0.701,4.411
		c-0.346,2.121-0.708,4.236-1.046,6.356c-0.187,1.17-0.327,2.345-0.511,3.517c-0.182,1.168-0.403,2.328-0.588,3.496
		c-0.169,1.081-0.324,2.166-0.459,3.252c-0.041,0.336-0.133,0.491-0.509,0.481c-0.967-0.022-1.932-0.009-2.898-0.009
		C74.337,45.554,74.337,45.56,74.337,45.564z"/>
	<path fill="#58585B" d="M192.538,7.459c-2.058,0-3.729-1.673-3.729-3.73S190.482,0,192.538,0s3.729,1.672,3.729,3.729
		C196.27,5.786,194.596,7.459,192.538,7.459z M192.538,0.52c-1.771,0-3.209,1.439-3.209,3.209s1.438,3.209,3.209,3.209
		s3.208-1.439,3.208-3.209S194.309,0.52,192.538,0.52z"/>
	<g>
		<path fill="#58585B" d="M191.984,3.933v1.521h-0.476V1.945h1.271c0.385,0,0.679,0.085,0.881,0.256
			c0.201,0.17,0.303,0.417,0.303,0.742c0,0.18-0.046,0.337-0.141,0.47c-0.096,0.134-0.229,0.24-0.411,0.319
			c0.192,0.063,0.331,0.164,0.416,0.306c0.085,0.14,0.126,0.314,0.126,0.521V4.89c0,0.11,0.013,0.207,0.037,0.295
			c0.021,0.086,0.064,0.158,0.123,0.212v0.058h-0.488c-0.063-0.054-0.104-0.135-0.12-0.241s-0.024-0.216-0.024-0.329V4.564
			c0-0.189-0.059-0.342-0.166-0.458c-0.111-0.116-0.262-0.174-0.447-0.174L191.984,3.933L191.984,3.933z M191.984,3.559h0.748
			c0.27,0,0.461-0.051,0.58-0.153c0.119-0.104,0.178-0.257,0.178-0.466c0-0.198-0.057-0.351-0.172-0.459s-0.295-0.162-0.536-0.162
			h-0.798V3.559L191.984,3.559z"/>
	</g>
</g>
</svg>
