<?xml version="1.0" encoding="utf-8"?>
<!-- Generator: Adobe Illustrator 16.0.3, SVG Export Plug-In . SVG Version: 6.00 Build 0)  -->
<!DOCTYPE svg PUBLIC "-//W3C//DTD SVG 1.1//EN" "http://www.w3.org/Graphics/SVG/1.1/DTD/svg11.dtd">
<svg version="1.1" id="Layer_1" xmlns="http://www.w3.org/2000/svg" xmlns:xlink="http://www.w3.org/1999/xlink" x="0px" y="0px"
	 width="137.167px" height="53.167px" viewBox="0 0 137.167 53.167" enable-background="new 0 0 137.167 53.167"
	 xml:space="preserve">
<circle fill="#58585B" cx="26.599" cy="26.6" r="26.6"/>
<path fill="#58585B" d="M62.01,40.145c0,0-0.001,0-0.002,0c-0.381-0.003-0.688-0.312-0.686-0.69
	c0.002-0.681,0.067-16.667,0.086-17.396c0.046-1.801,0.551-2.723,0.608-2.823c0.19-0.329,0.611-0.441,0.94-0.25
	c0.327,0.189,0.44,0.605,0.254,0.935c-0.015,0.027-0.391,0.748-0.428,2.172c-0.018,0.718-0.085,17.2-0.085,17.366
	C62.698,39.837,62.389,40.145,62.01,40.145z"/>
<path fill="#58585B" d="M79.858,44.707c-2.692,0-5.021-2.221-5.933-3.088c-1.129-1.074-3.594-3.52-5.768-5.675
	c-1.327-1.313-2.552-2.53-3.315-3.276c-1.611-1.578-3.271-1.108-3.45-1.053l-0.024,0.008l-0.451-1.302
	c0.006,0,0.019-0.006,0.038-0.012l0.882-0.296c1.96-0.563,7.675-6.792,11.045-10.843c0.242-0.292,0.678-0.331,0.97-0.089
	c0.292,0.243,0.332,0.678,0.088,0.97c-0.752,0.905-6.537,7.805-10.073,10.375c0.623,0.23,1.287,0.617,1.938,1.258
	c0.766,0.75,1.994,1.969,3.323,3.281c2.17,2.154,4.631,4.595,5.748,5.656c2.773,2.646,4.957,3.33,6.861,2.151
	c0.323-0.202,0.748-0.099,0.947,0.224c0.199,0.325,0.104,0.75-0.227,0.949C81.582,44.488,80.703,44.707,79.858,44.707z"/>
<path fill="#58585B" d="M70.888,33.57c-0.788,0-1.25-0.492-1.305-0.554c-0.063-0.071-0.11-0.155-0.143-0.245
	c-1.102-3.398,0.803-5.498,0.885-5.584c0.258-0.279,0.691-0.295,0.973-0.037c0.277,0.262,0.293,0.691,0.039,0.973
	c-0.065,0.071-1.357,1.551-0.646,4.029c0.063,0.025,0.157,0.053,0.28,0.034c0.258-0.038,0.966-0.319,1.967-2.114l1.19-2.34
	c0.146-0.286,0.465-0.434,0.772-0.359c0.31,0.076,0.527,0.354,0.527,0.67c0.002,1.324,0.305,3.447,0.954,3.897
	c0.188,0.06,0.863,0.179,1.457-0.879c0.186-0.332,0.604-0.449,0.938-0.265c0.331,0.187,0.449,0.604,0.262,0.938
	c-1.021,1.824-2.564,1.751-3.238,1.455c-0.023-0.01-0.049-0.023-0.069-0.036c-0.813-0.469-1.229-1.603-1.446-2.694l-0.134,0.266
	c-0.989,1.773-2.015,2.723-3.054,2.835C71.027,33.564,70.957,33.57,70.888,33.57z"/>
<path fill="#58585B" d="M79.435,41.725c-0.354,0-0.65-0.271-0.686-0.624c-0.123-1.299-0.485-5.705-0.105-9.445
	c-0.301-2.916-1.402-3.773-1.415-3.783c-0.299-0.224-0.371-0.648-0.155-0.954c0.217-0.306,0.631-0.387,0.94-0.177
	c0.11,0.075,0.71,0.519,1.237,1.69c0.348-1.087,0.836-1.922,1.516-2.316c0.206-0.111,1.867-0.965,3.168-0.294
	c0.488,0.253,1.102,0.82,1.26,2.093c0.148,1.182-0.258,2.256-1.142,3.027c-0.972,0.852-2.414,1.217-3.589,0.907
	c-0.152-0.043-0.295-0.082-0.432-0.122c0.021,0.229,0.034,0.468,0.047,0.721c0.172,4.063,0.045,8.563,0.043,8.606
	c-0.013,0.364-0.304,0.653-0.664,0.669C79.449,41.725,79.44,41.725,79.435,41.725z M80.205,30.335
	c0.145,0.049,0.34,0.107,0.61,0.183c0.728,0.19,1.707-0.063,2.331-0.61c0.374-0.326,0.795-0.91,0.684-1.822
	c-0.066-0.545-0.246-0.896-0.523-1.041c-0.525-0.269-1.483,0.066-1.865,0.272C80.848,27.66,80.451,28.791,80.205,30.335z"/>
<path fill="#58585B" d="M92.364,32.173c-0.106,0-0.213-0.008-0.319-0.021c-0.569-0.074-1.351-0.393-1.938-1.447
	c-0.554,0.842-1.509,1.344-2.365,1.237c-0.721-0.092-1.263-0.582-1.482-1.342c-0.418-1.437,0.057-4.664,0.109-5.028
	c0.061-0.375,0.406-0.633,0.784-0.577c0.376,0.057,0.636,0.408,0.576,0.783c-0.138,0.906-0.433,3.464-0.147,4.438
	c0.098,0.328,0.262,0.35,0.334,0.359c0.312,0.041,0.795-0.209,1.08-0.689c0.119-0.204,0.26-0.479,0.424-0.797
	c0.086-0.168,0.18-0.348,0.273-0.531c0.033-0.188,0.083-0.369,0.152-0.555c0.328-0.887,1.033-1.606,1.701-2.125
	c0.473-0.455,1.015-0.816,1.64-0.991c0.347-0.1,0.709,0.085,0.834,0.424c0.124,0.338-0.033,0.713-0.36,0.862
	c-0.014,0.008-0.597,0.28-1.209,0.745c-0.557,0.554-1.021,1.326-1.408,2.039c-0.021,0.275,0.021,0.563,0.16,0.862
	c0.407,0.89,0.865,0.946,1.021,0.966c0.813,0.111,2.085-0.738,3.241-2.146c0.434-0.521,0.769-0.915,1.039-1.199
	c0.078-0.406,0.197-0.824,0.355-1.234c0.779-2.012,2.48-2.75,3.688-2.417c0.91,0.249,1.41,1.072,1.248,2.048
	c-0.338,2.028-3.086,2.359-4.016,2.413c-0.076,0.897,0.104,1.629,0.44,1.91c0.354,0.299,0.944,0.051,1.379-0.209
	c1.588-0.953,2.647-2.173,2.909-3.345c0.08-0.371,0.449-0.604,0.82-0.522c0.37,0.081,0.604,0.449,0.521,0.82
	c-0.47,2.108-2.423,3.555-3.545,4.229c-1.562,0.938-2.532,0.453-2.976,0.082c-0.437-0.366-0.727-0.941-0.858-1.633
	C95.763,30.43,94.096,32.173,92.364,32.173z M99.97,25.089c-0.551,0-1.377,0.452-1.825,1.611c-0.019,0.046-0.034,0.091-0.052,0.138
	c0.953-0.116,2.219-0.477,2.345-1.232c0.06-0.355-0.095-0.447-0.253-0.489C100.119,25.097,100.048,25.089,99.97,25.089z"/>
<path fill="#58585B" d="M92.727,24.601c-0.106,0-0.218-0.025-0.317-0.079c-0.338-0.177-0.468-0.594-0.289-0.93l1.678-3.183
	c0.18-0.336,0.597-0.464,0.932-0.288c0.337,0.177,0.467,0.592,0.289,0.929l-1.68,3.182C93.214,24.467,92.975,24.601,92.727,24.601z"
	/>
<path fill="#58585B" d="M105.892,23.095c-0.129,0-0.256-0.034-0.37-0.107l-3.442-2.194c-0.315-0.206-0.414-0.629-0.209-0.951
	c0.205-0.319,0.629-0.414,0.95-0.21l2.983,1.903l2.275-2.203c0.271-0.265,0.709-0.257,0.975,0.017
	c0.265,0.272,0.257,0.709-0.016,0.973l-2.67,2.582C106.238,23.029,106.065,23.095,105.892,23.095z"/>
<path fill="#58585B" d="M105.074,30.408c-0.313,0-0.596-0.214-0.67-0.529c-0.088-0.369,0.143-0.738,0.512-0.826
	c0.705-0.17,1.75-0.649,1.797-1.086c0.043-0.385-0.762-0.572-1.998-0.82c-0.168-0.033-0.34-0.068-0.514-0.105
	c-1.281-0.269-2.098-0.893-2.23-1.706c-0.139-0.807,0.385-1.57,1.549-2.267c2.381-1.43,5.119-0.666,5.23-0.631
	c0.364,0.105,0.576,0.487,0.475,0.853c-0.104,0.364-0.488,0.576-0.854,0.469l0,0c-0.021-0.006-2.289-0.626-4.146,0.489
	c-0.785,0.473-0.909,0.797-0.899,0.858c0.016,0.097,0.32,0.412,1.159,0.589c0.17,0.035,0.339,0.069,0.502,0.103
	c1.464,0.294,3.282,0.657,3.097,2.327c-0.176,1.563-2.403,2.168-2.851,2.271C105.179,30.402,105.126,30.408,105.074,30.408z"/>
<path fill="#58585B" d="M126.025,20.901c-0.127,0-0.257-0.034-0.367-0.108l-3.443-2.194c-0.317-0.205-0.414-0.63-0.211-0.951
	c0.205-0.319,0.629-0.414,0.951-0.209l2.983,1.901l2.276-2.203c0.271-0.265,0.707-0.258,0.974,0.017
	c0.265,0.271,0.256,0.707-0.017,0.972l-2.668,2.582C126.371,20.835,126.199,20.901,126.025,20.901z"/>
<path fill="#58585B" d="M125.207,28.216c-0.311,0-0.595-0.217-0.67-0.53c-0.086-0.371,0.146-0.741,0.514-0.83
	c0.703-0.167,1.748-0.649,1.799-1.081c0.044-0.385-0.766-0.577-1.997-0.824c-0.17-0.034-0.345-0.069-0.519-0.104
	c-1.279-0.272-2.097-0.892-2.231-1.708c-0.138-0.806,0.386-1.569,1.55-2.267c2.383-1.428,5.118-0.664,5.23-0.629
	c0.367,0.105,0.578,0.487,0.473,0.851c-0.104,0.366-0.482,0.577-0.852,0.472l0,0c-0.021-0.006-2.287-0.626-4.146,0.487
	c-0.786,0.472-0.909,0.797-0.897,0.858c0.017,0.094,0.319,0.411,1.158,0.587c0.168,0.038,0.338,0.071,0.502,0.104
	c1.461,0.293,3.28,0.658,3.096,2.325c-0.174,1.565-2.401,2.167-2.85,2.272C125.312,28.208,125.259,28.216,125.207,28.216z"/>
<path fill="#58585B" d="M115.769,28.783c-0.557,0-1.02-0.459-1.814-1.3c-1.75-1.843-1.904-5-1.91-5.131
	c-0.017-0.38,0.279-0.701,0.658-0.719c0.379-0.009,0.701,0.278,0.719,0.659c0.002,0.043,0.146,2.783,1.531,4.243
	c0.139,0.147,0.487,0.517,0.733,0.732c0.024-0.041,0.049-0.082,0.071-0.121c0.103-0.165,0.221-0.357,0.367-0.569
	c0.733-1.068,0.767-3.154,0.373-3.78c-0.475-0.515-0.236-0.939-0.151-1.061c0.401-0.564,1.088-0.234,1.59,0.008
	c0.899,0.433,1.104,0.271,1.337,0.082c0.227-0.183,0.52-0.225,0.779-0.112c0.539,0.232,0.589,0.805,0.717,2.332
	c0.068,0.806,0.171,2.025,0.361,2.388c0.014,0.023,0.021,0.043,0.033,0.051c0.191-0.031,0.85-0.463,1.602-1.755
	c0.189-0.331,0.613-0.442,0.939-0.251c0.33,0.192,0.439,0.612,0.25,0.942c-0.531,0.916-1.604,2.444-2.815,2.444
	c-0.013,0-0.022,0-0.033,0c-0.511-0.013-0.935-0.295-1.194-0.794c-0.295-0.565-0.396-1.563-0.513-2.909
	c-0.022-0.26-0.049-0.564-0.076-0.83c-0.38,0.103-0.786,0.082-1.255-0.059c0.203,1.323-0.092,3.046-0.809,4.085
	c-0.131,0.188-0.234,0.36-0.324,0.507c-0.27,0.44-0.523,0.856-1.053,0.912C115.843,28.781,115.807,28.783,115.769,28.783z"/>
<path fill="#58585B" d="M131.945,27.311c-1.145,0-1.847-0.563-1.933-0.634c-0.044-0.037-0.084-0.08-0.116-0.127
	c-0.445-0.623-0.713-1.282-0.801-1.945c-0.268-0.065-0.43-0.132-0.454-0.144c-0.351-0.146-0.517-0.551-0.367-0.901
	c0.146-0.348,0.546-0.512,0.896-0.369c0.004,0.001,0.01,0.003,0.014,0.004c0.117-0.464,0.33-0.918,0.631-1.354
	c0.873-1.26,2.33-2.038,3.314-1.775c0.611,0.162,0.889,0.551,1.013,0.848c0.396,0.95-0.279,2.199-0.42,2.441
	c-0.039,0.07-0.095,0.133-0.155,0.184c-1.064,0.891-2.154,1.171-3.039,1.211c0.078,0.29,0.219,0.593,0.434,0.912
	c0.151,0.099,0.623,0.346,1.306,0.249c1.055-0.15,2.2-1.054,3.313-2.614c0.221-0.31,0.649-0.381,0.959-0.16
	c0.313,0.222,0.385,0.652,0.16,0.96c-1.375,1.926-2.82,2.996-4.299,3.184C132.242,27.3,132.089,27.311,131.945,27.311z
	 M132.699,21.385c-0.351,0-1.188,0.419-1.757,1.238c-0.146,0.213-0.284,0.462-0.377,0.745c0.59-0.045,1.306-0.246,2.021-0.81
	c0.262-0.499,0.355-1.026,0.276-1.128c-0.003-0.003-0.028-0.021-0.089-0.038C132.753,21.388,132.728,21.385,132.699,21.385z"/>
<ellipse fill="#58585B" cx="87.005" cy="22.492" rx="0.902" ry="1.205"/>
<ellipse fill="#58585B" cx="120.519" cy="18.536" rx="0.904" ry="1.204"/>
<path fill="#FFFFFF" d="M17.83,18.408c0,0-3.535-0.067-5.766-0.067c-2.232,0-2.087,2.259-2.087,2.259v5.969v0.068v5.67
	c0,0-0.145,2.259,2.087,2.259c2.23,0,5.881-0.086,5.881-0.086s6.636-0.87,6.636-8.026C24.581,19.297,17.83,18.408,17.83,18.408z
	 M19.336,26.753c0,3.575-4.289,3.129-4.289,3.129v-6.239C19.626,23.643,19.336,26.753,19.336,26.753z"/>
<path fill="#FFFFFF" d="M30.574,21.006c-0.051-1.422-1.217-2.559-2.651-2.559s-2.601,1.137-2.651,2.559h-0.005v11.562h0.053
	c0.247,1.213,1.319,2.125,2.603,2.125c1.285,0,2.357-0.914,2.603-2.125h0.054V21.006H30.574z"/>
<path fill="#FFFFFF" d="M39.855,24.874c-1.086-0.354-2.666-0.652-2.594-1.463c0.073-0.812,0.841-0.492,1.029-0.392
	c0.188,0.102,1.709,1.275,2.463,1.203c0.753-0.072,1.884-0.405,1.913-1.68c0.028-1.274-0.854-2.405-1.724-2.941
	s-4.376-1.463-6.476,0.116c-2.1,1.579-2.072,2.84-2.087,4.172c-0.014,1.333,0.435,2.607,1.565,3.332
	c1.13,0.724,3.085,1.347,3.448,1.507c0.362,0.16,0.961,0.682,0.835,1.059c-0.125,0.377-0.52,0.734-1.274,0.328
	c-0.753-0.404-1.265-1.275-2.047-1.353c-0.783-0.076-1.623-0.126-2.154,0.444c-0.531,0.566-1.227,2.025-0.029,3.608
	c1.198,1.584,3.941,1.927,5.506,1.888c1.564-0.039,4.79-0.767,5.176-3.99c0.151-1.256,0.109-2.656-0.521-3.836
	C42.535,26.222,41.318,25.353,39.855,24.874z"/>
<g>
	
		<rect x="7.567" y="24.312" transform="matrix(0.7074 -0.7068 0.7068 0.7074 -15.9173 14.748)" fill="#FFFFFF" width="4.573" height="4.573"/>
	<path fill="#58585B" d="M9.852,30.181c-0.089,0-0.179-0.033-0.247-0.102l-3.234-3.236c-0.065-0.063-0.102-0.154-0.102-0.246
		c0-0.092,0.037-0.182,0.102-0.247l3.234-3.234c0.136-0.136,0.356-0.136,0.492,0l3.236,3.234c0.064,0.065,0.102,0.155,0.102,0.247
		c0,0.092-0.037,0.181-0.102,0.246l-3.236,3.236C10.03,30.147,9.94,30.181,9.852,30.181z M7.108,26.599l2.744,2.744l2.743-2.744
		l-2.743-2.744L7.108,26.599z"/>
</g>
</svg>
