<?xml version="1.0" encoding="utf-8"?>
<!-- Generator: Adobe Illustrator 16.0.3, SVG Export Plug-In . SVG Version: 6.00 Build 0)  -->
<!DOCTYPE svg PUBLIC "-//W3C//DTD SVG 1.1//EN" "http://www.w3.org/Graphics/SVG/1.1/DTD/svg11.dtd">
<svg version="1.1" id="Layer_1" xmlns="http://www.w3.org/2000/svg" xmlns:xlink="http://www.w3.org/1999/xlink" x="0px" y="0px"
	 width="108.625px" height="53.167px" viewBox="0 0 108.625 53.167" enable-background="new 0 0 108.625 53.167"
	 xml:space="preserve">
<g>
	<path fill="#58585B" d="M18.975,34.683c-1.422,2.243-2.787,4.399-4.156,6.554c-0.069,0.108-0.175,0.192-0.314,0.342
		C6.826,38.77,1.901,33.549,0.369,25.413C-1.768,14.063,5.62,3.626,16.173,0.833c9.796-2.592,22.021,2.048,26.29,11.869
		c2.522,5.806,2.229,11.501-0.815,17.026c-1.567,2.848-3.223,5.648-4.914,8.423c-2.626,4.306-5.333,8.563-7.971,12.864
		c-0.903,1.473-2.144,2.177-3.866,2.15c-2.29-0.033-4.579-0.01-7.081-0.01c0.267-0.443,0.431-0.744,0.623-1.027
		c4.568-6.77,9.168-13.519,13.696-20.313c1.808-2.712,3.327-5.583,3.764-8.896c0.645-4.887-0.971-8.884-4.788-11.96
		c-7.38-5.952-18.323-3.274-21.962,5.346c-3.061,7.25,0.86,15.636,8.379,17.923C17.97,34.366,18.41,34.506,18.975,34.683z"/>
	<path fill="#58585B" d="M22.128,15.214c3.191,0.02,5.731,2.565,5.69,5.701c-0.04,3.141-2.62,5.676-5.762,5.666
		c-3.128-0.012-5.724-2.629-5.684-5.733C16.415,17.655,18.93,15.192,22.128,15.214z"/>
	<g>
		<path fill="#58585B" d="M74.219,20.546l-2.494-0.264c-0.086-0.011-0.175-0.018-0.262-0.029c-0.018-0.002-0.033-0.002-0.05-0.004
			l-0.957-0.102l-0.726,0.917c-0.791,0.702-2.324,0.834-3.412,0.365c-1.145-0.493-1.791-1.625-1.68-3.099c3.315,0,6.646,0,9.965,0
			c0.293-4.26-1.974-7.353-6.008-7.816c-4.716-0.54-8.004,2.148-8.34,6.798c-0.29,4.003,2.523,7.213,6.444,7.482
			C71.055,25.093,73.915,23.099,74.219,20.546z M67.586,13.372c1.717-0.058,2.801,0.769,3.105,2.43c-1.965,0-3.92,0-5.879,0
			C64.977,14.333,66.039,13.423,67.586,13.372z"/>
		<path fill="#58585B" d="M99.387,35.39c2.951-0.003,5.904-0.002,8.909-0.002c0.589-3.843-1.929-7.173-5.724-7.724
			c-4.348-0.634-7.881,1.772-8.447,5.758c-0.639,4.502,1.643,7.762,5.921,8.459c3.817,0.623,7.539-1.316,7.983-4.209
			c-0.006,0-0.01,0-0.016-0.002l0.021-0.002l-3.765-0.4l-0.64,0.809c-0.884,0.754-1.916,0.844-3.017,0.637
			c-1.156-0.217-1.848-0.973-2.172-2.084C98.111,35.472,98.172,35.39,99.387,35.39z M101.473,30.43
			c1.572-0.016,2.803,1.021,2.936,2.529c-1.947,0-3.891,0-5.834,0C98.639,31.545,99.916,30.445,101.473,30.43z"/>
		<path fill="#58585B" d="M61.307,27.776c-1.229,0.174-2.379,0.924-3.556,1.407c-0.017-0.212-0.046-0.629-0.081-1.093
			c-1.393,0-2.738,0-4.13,0c0,4.477,0,8.908,0,13.354c1.41,0,2.751,0,4.179,0c0-0.427,0-0.784,0.002-1.146
			c0.006-2.125-0.021-4.252,0.032-6.377c0.043-1.631,1.175-2.743,2.681-2.76c1.518-0.019,2.435,0.953,2.537,2.709
			c0.033,0.594,0.016,1.193,0.016,1.793c0.005,1.918,0.002,3.832,0.002,5.793c1.429,0,2.736,0,4.096,0
			c0.023-0.274,0.063-0.5,0.063-0.726c0-2.757,0.021-5.517-0.01-8.271C67.098,28.847,64.4,27.338,61.307,27.776z"/>
		<path fill="#58585B" d="M85.738,27.792c-1.204,0.182-2.323,0.914-3.512,1.406c-0.027-0.24-0.076-0.677-0.127-1.105
			c-1.394,0-2.709,0-4.068,0c0,4.48,0,8.91,0,13.382c1.354,0,2.641,0,4.141,0c0-0.499-0.006-0.923,0.001-1.345
			c0.03-2.125,0.032-4.252,0.108-6.375c0.039-1.111,0.601-1.961,1.658-2.396c1.881-0.774,3.469,0.396,3.537,2.685
			c0.063,2.125,0.02,4.254,0.026,6.381c0.001,0.349,0.037,0.697,0.058,1.013c1.432,0,2.741,0,4.1,0c0-3.004,0.009-5.927-0.001-8.851
			C91.646,29.02,89.083,27.294,85.738,27.792z"/>
		<path fill="#58585B" d="M57.801,7.173c-1.429,0-2.771,0-4.096,0c0,5.768,0,11.456,0,17.18c1.393,0,2.713,0,4.096,0
			C57.801,18.578,57.801,12.861,57.801,7.173z"/>
		<path fill="#58585B" d="M97.566,20.849c0.037-3.049,0.012-6.099,0.004-9.147c0-0.25-0.064-0.501-0.098-0.74
			c-1.396,0-2.714,0-4.096,0c0,4.516,0,8.914,0,13.305C95.813,24.655,97.536,23.259,97.566,20.849z"/>
		<path fill="#58585B" d="M74.697,28.095c-1.426,0-2.734,0-4.108,0c0,4.479,0,8.901,0,13.317c2.335,0.332,4.072-1.098,4.103-3.354
			c0.026-2.123,0.008-4.247,0.008-6.37C74.697,30.504,74.697,29.32,74.697,28.095z"/>
		<path fill="#58585B" d="M84.014,24.407c0.596-0.066,0.938-0.19,1.213-0.748c1.332-2.708,2.707-5.395,4.068-8.089
			c0.76-1.501,1.521-3,2.362-4.659c-1.114,0-2.104-0.029-3.063-0.005l-1.439,0.007c0,0-2.106,4.23-2.768,5.615
			c-0.248,0.519-0.51,1.03-0.854,1.733c-0.276-0.551-0.457-0.892-0.622-1.24c-0.719-1.511-2.979-6.108-2.979-6.108l-1.697-0.008
			l0.004,0.001c-0.893-0.008-1.805,0.006-2.78,0.006c0.188,0.401,0.313,0.696,0.459,0.982c1.839,3.642,3.744,7.252,5.479,10.941
			C81.98,24.081,82.682,24.557,84.014,24.407z"/>
	</g>
</g>
</svg>
