<?xml version="1.0" encoding="utf-8"?>
<!-- Generator: Adobe Illustrator 16.0.3, SVG Export Plug-In . SVG Version: 6.00 Build 0)  -->
<!DOCTYPE svg PUBLIC "-//W3C//DTD SVG 1.1//EN" "http://www.w3.org/Graphics/SVG/1.1/DTD/svg11.dtd">
<svg version="1.1" id="Layer_1" xmlns="http://www.w3.org/2000/svg" xmlns:xlink="http://www.w3.org/1999/xlink" x="0px" y="0px"
	 width="201.25px" height="34.75px" viewBox="0 0 201.25 34.75" enable-background="new 0 0 201.25 34.75" xml:space="preserve">
<g>
	<path fill="#58585B" d="M40.787,11.461c0.413,0.936,0.467,1.923,0.467,7.204c0,5.854-0.084,6.63-0.687,7.644
		c-0.688,1.156-2.091,1.731-4.152,1.731c-2.311,0-3.741-0.688-4.373-2.146c-0.414-0.936-0.467-1.927-0.467-7.229
		c0-5.776,0.083-6.627,0.687-7.618c0.716-1.182,2.062-1.73,4.236-1.73C38.726,9.317,40.157,10.034,40.787,11.461z M35.041,13.606
		c-0.053,0.414-0.082,1.349-0.082,3.384c0,3.765,0.026,5.607,0.054,6.322c0.056,1.158,0.496,1.707,1.403,1.707
		c0.797,0,1.21-0.387,1.348-1.264c0.109-0.471,0.109-1.32,0.109-6.409c0-2.835-0.027-3.493-0.137-3.987
		c-0.166-0.661-0.606-1.018-1.293-1.018C35.619,12.342,35.208,12.726,35.041,13.606z"/>
	<path fill="#58585B" d="M44.316,9.51h3.135l3.188,11.438L53.83,9.51h3.081v18.342h-3.108V17.54L51.52,27.852h-1.814L47.423,17.54
		v10.312h-3.107V9.51z"/>
	<path fill="#58585B" d="M60.465,9.51h7.947v2.94h-4.566v3.934h4.235v2.94h-4.235v5.584h4.866v2.941h-8.25V9.51H60.465z"/>
	<path fill="#58585B" d="M71.523,9.51h4.759c3.438,0,4.814,1.293,4.814,4.482c0,2.856-0.771,4.152-2.915,4.813l4.125,9.047h-3.768
		l-3.63-8.578v8.578h-3.382V9.51H71.523z M74.908,17.017c2.201,0,2.943-0.631,2.943-2.53c0-1.454-0.523-2.035-1.841-2.035h-1.1
		v4.565H74.908z"/>
	<path fill="#58585B" d="M84.375,9.51h3.381v18.342h-3.381V9.51z"/>
	<path fill="#58585B" d="M96.755,15.862c0-1.594-0.028-2.393-0.083-2.695c-0.111-0.496-0.578-0.825-1.127-0.825
		c-0.521,0-0.934,0.246-1.073,0.691c-0.19,0.493-0.22,0.712-0.22,3.353v2.753v1.068c0,2.613,0.054,3.438,0.22,4.044
		c0.166,0.499,0.577,0.771,1.127,0.771c0.88,0,1.181-0.438,1.155-1.758c0-0.141,0-0.47,0.026-0.99v-0.471
		c0-0.141,0-0.386-0.026-0.688l3.3,0.275l0.027,1.346c0,2.281-0.248,3.137-1.184,4.154c-0.77,0.793-1.813,1.152-3.298,1.152
		c-1.954,0-3.411-0.663-4.042-1.814c-0.633-1.102-0.686-1.623-0.686-7.313c0-5.912,0.026-6.325,0.493-7.397
		c0.634-1.482,2.035-2.197,4.319-2.197c1.594,0,2.805,0.413,3.519,1.21c0.577,0.661,0.797,1.54,0.826,3.465l0.027,1.377
		L96.755,15.862z"/>
	<path fill="#58585B" d="M112.324,27.852h-3.518l-0.634-3.33h-2.832l-0.579,3.33h-3.244l3.604-18.343h3.271L112.324,27.852z
		 M106.693,14.433l-1.049,7.313h2.064L106.693,14.433z"/>
	<path fill="#58585B" d="M131.182,11.461c0.414,0.936,0.465,1.923,0.465,7.204c0,5.854-0.076,6.63-0.684,7.644
		c-0.688,1.156-2.092,1.731-4.152,1.731c-2.313,0-3.74-0.688-4.373-2.146c-0.412-0.936-0.469-1.927-0.469-7.229
		c0-5.776,0.082-6.627,0.688-7.618c0.715-1.182,2.061-1.73,4.235-1.73C129.117,9.317,130.551,10.034,131.182,11.461z
		 M125.432,13.606c-0.051,0.414-0.082,1.349-0.082,3.384c0,3.765,0.031,5.607,0.059,6.322c0.053,1.158,0.494,1.707,1.402,1.707
		c0.793,0,1.209-0.387,1.348-1.264c0.107-0.471,0.107-1.32,0.107-6.409c0-2.835-0.024-3.493-0.137-3.987
		c-0.166-0.661-0.607-1.018-1.293-1.018C126.012,12.342,125.6,12.726,125.432,13.606z"/>
	<path fill="#58585B" d="M135.012,9.51h4.758c3.438,0,4.814,1.293,4.814,4.482c0,2.856-0.771,4.152-2.916,4.813l4.127,9.047h-3.771
		l-3.627-8.578v8.578h-3.385V9.51L135.012,9.51z M138.396,17.017c2.196,0,2.942-0.631,2.942-2.53c0-1.454-0.522-2.035-1.843-2.035
		H138.4v4.565H138.396z"/>
	<path fill="#58585B" d="M156.852,27.852h-2.254l-0.549-1.018c-1.074,0.906-1.842,1.21-3.025,1.21c-1.814,0-3.024-0.908-3.41-2.558
		c-0.193-0.854-0.193-0.854-0.193-6.604c0-5.853,0-6.048,0.495-7.177c0.633-1.539,2.202-2.39,4.373-2.39
		c1.868,0,3.161,0.603,3.769,1.761c0.385,0.743,0.469,1.289,0.438,3.903l-3.215,0.548v-0.605c0-2.061-0.223-2.583-1.127-2.583
		c-0.881,0-1.24,0.522-1.324,1.897l-0.025,3.193c0,4.182,0.025,5.914,0.109,6.377c0.141,0.854,0.521,1.211,1.268,1.211
		c0.49,0,0.936-0.225,1.127-0.521c0.137-0.245,0.162-0.467,0.162-1.104v-3.187h-1.648v-2.752h5.031V27.85l0,0V27.852z"/>
	<path fill="#58585B" d="M169.701,27.852h-3.518l-0.631-3.33h-2.835l-0.579,3.33h-3.242l3.6-18.343h3.271L169.701,27.852z
		 M164.066,14.433l-1.047,7.313h2.063L164.066,14.433z"/>
	<path fill="#58585B" d="M171.416,9.51h2.666l3.852,10.066V9.51h3.025v18.342h-2.561l-3.961-10.668v10.668h-3.021V9.51z"/>
	<path fill="#58585B" d="M184.482,9.51h3.381v18.342h-3.381V9.51z"/>
	<path fill="#58585B" d="M196.867,15.862c0-1.594-0.031-2.393-0.084-2.695c-0.113-0.496-0.58-0.825-1.127-0.825
		c-0.521,0-0.939,0.246-1.076,0.691c-0.191,0.493-0.223,0.712-0.223,3.353v2.753v1.068c0,2.613,0.053,3.438,0.223,4.044
		c0.164,0.499,0.574,0.771,1.127,0.771c0.885,0,1.182-0.438,1.16-1.758c0-0.141,0-0.47,0.025-0.99v-0.471
		c0-0.141,0-0.386-0.025-0.688l3.297,0.275l0.025,1.346c0,2.281-0.244,3.137-1.178,4.154c-0.773,0.793-1.816,1.152-3.306,1.152
		c-1.951,0-3.406-0.663-4.039-1.814c-0.635-1.102-0.688-1.623-0.688-7.313c0-5.912,0.025-6.325,0.496-7.397
		c0.631-1.482,2.035-2.197,4.314-2.197c1.598,0,2.807,0.413,3.521,1.21c0.573,0.661,0.793,1.54,0.819,3.465l0.029,1.377
		L196.867,15.862z"/>
	<path fill="#58585B" d="M20.394,12.976c-0.004-0.165-0.008-0.338-0.018-0.518c-0.006-0.081-0.013-0.169-0.021-0.261
		c-0.009-0.119-0.016-0.237-0.026-0.354c-0.6-5.822-4.913-10.354-10.13-10.354C4.574,1.489,0,6.76,0,13.237
		c0,4.403,2.116,8.25,5.239,10.263v-0.01l0.016,0.01c-0.01-0.167-0.012-0.325-0.012-0.482c0-1.774,0.321-3.49,0.958-5.102
		c-0.892-1.252-1.444-2.899-1.444-4.679c0-3.79,2.492-6.991,5.442-6.991c2.248,0,4.231,1.862,5.048,4.423
		c0.042,0.136,0.081,0.27,0.115,0.408c0.041,0.156,0.08,0.311,0.109,0.469c0.018,0.101,0.041,0.202,0.054,0.303
		c0.019,0.112,0.034,0.226,0.049,0.34c0.012,0.085,0.025,0.171,0.032,0.258c0.005,0.055,0.009,0.115,0.016,0.169v0.027
		c0.004,0.107,0.012,0.21,0.016,0.313c0.005,0.092,0.005,0.188,0.005,0.281c0,3.041-1.604,5.708-3.769,6.636
		c-0.424,0.97-0.651,2.052-0.651,3.145c0,0.638,0.077,1.269,0.227,1.881c3.478-0.489,6.422-3.008,7.911-6.491
		c0.665-1.563,1.042-3.314,1.042-5.169C20.403,13.15,20.396,13.064,20.394,12.976z"/>
	<path fill="#58585B" d="M26.25,23.002c0,6.477-4.578,11.748-10.199,11.748c-5.139,0-9.522-4.521-10.129-10.35l-0.027-0.379
		c-0.002-0.047-0.007-0.092-0.009-0.141c-0.018-0.308-0.031-0.593-0.031-0.863c0-1.578,0.264-3.104,0.787-4.543
		c0.059-0.168,0.122-0.33,0.188-0.494l0.072-0.179c1.518-3.538,4.515-5.987,7.902-6.462c0.151,0.609,0.225,1.239,0.225,1.87
		c0,1.096-0.227,2.187-0.656,3.154c-1.253,0.539-2.313,1.64-3,3.12h0.003c-0.094,0.211-0.184,0.422-0.259,0.641h0.002
		c-0.577,1.583-0.696,3.814-0.198,5.175c0.787,2.808,2.85,4.692,5.131,4.692c2.948,0,5.443-3.201,5.443-6.989
		c0-1.729-0.514-3.388-1.446-4.692c0.638-1.603,0.958-3.321,0.958-5.099c0-0.156-0.002-0.318-0.008-0.482
		C24.254,14.801,26.25,18.684,26.25,23.002z"/>
</g>
</svg>
