<?xml version="1.0" encoding="utf-8"?>
<!-- Generator: Adobe Illustrator 16.0.3, SVG Export Plug-In . SVG Version: 6.00 Build 0)  -->
<!DOCTYPE svg PUBLIC "-//W3C//DTD SVG 1.1//EN" "http://www.w3.org/Graphics/SVG/1.1/DTD/svg11.dtd">
<svg version="1.1" id="Layer_1" xmlns="http://www.w3.org/2000/svg" xmlns:xlink="http://www.w3.org/1999/xlink" x="0px" y="0px"
	 width="197.333px" height="53.167px" viewBox="0 0 197.333 53.167" enable-background="new 0 0 197.333 53.167"
	 xml:space="preserve">
<path fill="#58585B" d="M41.373,25.749h0.78c0.614,0,1.044-0.197,1.295-0.605c0.246-0.401,0.37-0.917,0.37-1.542
	c0-0.612-0.104-1.137-0.323-1.557c-0.215-0.42-0.618-0.636-1.214-0.636h-0.91v4.341L41.373,25.749L41.373,25.749z M38.165,17.447
	h5.311c1.151,0,2.017,0.516,2.595,1.556c0.574,1.032,0.862,2.514,0.862,4.425c0,1.963-0.313,3.501-0.94,4.606
	c-0.629,1.109-1.587,1.66-2.874,1.66h-1.743v7.226h-3.209V17.447H38.165z M28.943,27.223c0,1.973,0.191,3.377,0.581,4.242
	c0.387,0.854,0.915,1.286,1.581,1.286c0.684,0,1.22-0.42,1.595-1.263c0.375-0.842,0.566-2.354,0.566-4.527
	c0-1.835-0.197-3.176-0.59-4.023c-0.391-0.841-0.927-1.263-1.599-1.263c-0.645,0-1.164,0.421-1.553,1.281
	C29.134,23.818,28.943,25.247,28.943,27.223z M25.745,27.196c0-3.182,0.476-5.655,1.414-7.423c0.94-1.772,2.249-2.659,3.93-2.659
	c1.718,0,3.044,0.873,3.976,2.614c0.928,1.733,1.395,4.176,1.395,7.31c0,2.275-0.206,4.144-0.609,5.6
	c-0.41,1.452-0.994,2.588-1.766,3.404c-0.769,0.809-1.725,1.211-2.873,1.211c-1.164,0-2.126-0.346-2.895-1.049
	c-0.758-0.697-1.381-1.809-1.854-3.328C25.984,31.366,25.745,29.475,25.745,27.196z M15.49,17.447h9.709v4.808h-3.262v14.667h-3.19
	V22.256H15.49V17.447z M5.231,30.483l3.042-0.357c0.061,0.934,0.197,1.635,0.398,2.125c0.329,0.79,0.801,1.181,1.41,1.181
	c0.456,0,0.807-0.2,1.057-0.6c0.241-0.408,0.365-0.875,0.365-1.404c0-0.502-0.114-0.956-0.352-1.358
	c-0.235-0.402-0.778-0.777-1.636-1.129c-1.4-0.59-2.398-1.377-2.994-2.366c-0.603-0.982-0.902-2.23-0.902-3.756
	c0-1.001,0.15-1.951,0.458-2.837c0.31-0.886,0.769-1.586,1.387-2.098c0.618-0.509,1.468-0.765,2.544-0.765
	c1.319,0,2.328,0.465,3.021,1.384c0.696,0.931,1.107,2.403,1.234,4.418l-3.006,0.332c-0.081-0.873-0.249-1.511-0.512-1.912
	c-0.248-0.396-0.604-0.592-1.054-0.592c-0.373,0-0.651,0.146-0.841,0.446c-0.185,0.292-0.281,0.655-0.281,1.077
	c0,0.312,0.073,0.586,0.233,0.835c0.153,0.26,0.506,0.498,1.075,0.72c1.396,0.568,2.391,1.14,2.997,1.721
	c0.605,0.581,1.044,1.302,1.316,2.157c0.274,0.859,0.416,1.816,0.416,2.889c0,1.25-0.186,2.396-0.549,3.45
	c-0.37,1.06-0.88,1.854-1.54,2.396c-0.658,0.543-1.486,0.817-2.484,0.817c-1.764,0-2.979-0.63-3.654-1.913
	C5.704,34.063,5.318,32.444,5.231,30.483z M185.008,25.749h0.771c0.617,0,1.051-0.197,1.292-0.605
	c0.259-0.401,0.378-0.917,0.378-1.542c0-0.612-0.107-1.137-0.324-1.557c-0.219-0.42-0.619-0.636-1.213-0.636h-0.904V25.749z
	 M181.795,17.447h5.305c1.162,0,2.029,0.516,2.604,1.556c0.573,1.032,0.862,2.514,0.862,4.425c0,1.963-0.313,3.501-0.938,4.606
	c-0.631,1.109-1.592,1.66-2.875,1.66h-1.739v7.226h-3.214V17.447H181.795z M172.575,27.223c0,1.973,0.19,3.377,0.57,4.242
	c0.396,0.854,0.922,1.286,1.589,1.286c0.681,0,1.218-0.42,1.597-1.263c0.373-0.842,0.564-2.354,0.564-4.527
	c0-1.835-0.206-3.176-0.593-4.023c-0.392-0.841-0.923-1.263-1.603-1.263c-0.635,0-1.16,0.421-1.549,1.281
	C172.765,23.818,172.575,25.247,172.575,27.223z M169.375,27.196c0-3.182,0.469-5.655,1.412-7.423
	c0.941-1.772,2.244-2.659,3.928-2.659c1.721,0,3.05,0.873,3.98,2.614c0.924,1.733,1.391,4.176,1.391,7.31
	c0,2.275-0.207,4.144-0.608,5.6c-0.415,1.452-1.002,2.588-1.765,3.404c-0.77,0.809-1.731,1.211-2.875,1.211
	c-1.162,0-2.125-0.346-2.892-1.049c-0.763-0.697-1.389-1.809-1.86-3.328C169.614,31.366,169.375,29.475,169.375,27.196z
	 M159.118,17.447h9.707v4.808h-3.258v14.667h-3.191V22.256h-3.258V17.447L159.118,17.447z M148.864,30.483l3.036-0.357
	c0.065,0.934,0.199,1.635,0.401,2.125c0.328,0.79,0.799,1.181,1.41,1.181c0.459,0,0.803-0.2,1.053-0.6
	c0.248-0.408,0.367-0.875,0.367-1.404c0-0.502-0.111-0.956-0.348-1.358c-0.24-0.402-0.781-0.777-1.635-1.129
	c-1.4-0.59-2.396-1.377-2.996-2.366c-0.609-0.982-0.908-2.23-0.908-3.756c0-1.001,0.156-1.951,0.461-2.837
	c0.306-0.886,0.766-1.586,1.39-2.098c0.616-0.509,1.464-0.765,2.536-0.765c1.328,0,2.336,0.465,3.031,1.384
	c0.693,0.931,1.103,2.403,1.229,4.418l-3.009,0.332c-0.075-0.873-0.241-1.511-0.504-1.912c-0.248-0.396-0.606-0.592-1.051-0.592
	c-0.384,0-0.66,0.146-0.843,0.446c-0.19,0.292-0.28,0.655-0.28,1.077c0,0.312,0.068,0.586,0.229,0.835
	c0.152,0.26,0.51,0.498,1.068,0.72c1.396,0.568,2.397,1.14,2.998,1.721c0.613,0.581,1.047,1.302,1.321,2.157
	c0.275,0.859,0.414,1.816,0.414,2.889c0,1.25-0.19,2.396-0.548,3.45c-0.369,1.06-0.88,1.854-1.543,2.396
	c-0.65,0.543-1.48,0.817-2.48,0.817c-1.769,0-2.979-0.63-3.653-1.913C149.334,34.063,148.946,32.444,148.864,30.483z M160.112,3.872
	l9.653,0.025l9.642,0.021l6.813,6.835l6.81,6.844l-0.023,9.648l-0.025,9.643l-6.835,6.807l-6.837,6.807l-9.648-0.021l-9.648-0.023
	l-6.813-6.838l-6.803-6.836l0.018-9.646l0.026-9.649l6.836-6.81L160.112,3.872z M16.49,3.872l9.644,0.025l9.649,0.021l6.806,6.835
	l6.809,6.844l-0.022,9.648l-0.021,9.643l-6.837,6.811l-6.839,6.806l-9.648-0.021l-9.649-0.024l-6.807-6.837l-6.805-6.84l0.019-9.646
	l0.022-9.649l6.839-6.81L16.49,3.872z M70.537,42.579l0.339,1.759c0.077,0.444,0.162,0.917,0.229,1.41h0.026
	c0.084-0.481,0.215-0.978,0.317-1.394l0.469-1.772l1.052,0.009l0.42,1.714c0.121,0.49,0.227,0.972,0.306,1.461h0.018
	c0.063-0.478,0.156-0.978,0.264-1.468l0.375-1.693l1.302,0.006l-1.344,4.285l-1.247-0.016l-0.391-1.495
	c-0.115-0.431-0.19-0.812-0.273-1.347H72.38c-0.085,0.535-0.173,0.938-0.285,1.33l-0.438,1.509l-1.256-0.017l-1.227-4.297
	L70.537,42.579z M78.971,42.636l0.343,1.769c0.072,0.44,0.158,0.91,0.225,1.404h0.024c0.087-0.484,0.22-0.973,0.318-1.394
	l0.471-1.772l1.055,0.006l0.419,1.717c0.119,0.492,0.229,0.971,0.303,1.457h0.017c0.063-0.478,0.155-0.978,0.268-1.467l0.371-1.695
	l1.306,0.013l-1.344,4.278l-1.248-0.002l-0.393-1.51c-0.111-0.418-0.186-0.81-0.272-1.345h-0.018
	c-0.082,0.535-0.171,0.938-0.278,1.331l-0.442,1.505l-1.254-0.007l-1.225-4.294L78.971,42.636z M87.13,47.082
	c-0.447,0-0.769-0.354-0.762-0.812c0-0.484,0.323-0.813,0.794-0.813c0.452,0.003,0.771,0.329,0.771,0.823
	c-0.001,0.463-0.322,0.809-0.794,0.802H87.13L87.13,47.082z M89.655,46.225l1.365-1.68c0.248-0.271,0.444-0.486,0.692-0.741v-0.019
	l-1.888-0.016l0.009-1.06l3.505,0.024v0.809l-1.302,1.611c-0.239,0.272-0.46,0.543-0.711,0.775v0.021l2.063,0.012l-0.009,1.061
	L89.653,47v-0.774H89.655z M96.923,45.319c0.04,0.56,0.582,0.828,1.202,0.838c0.459,0,0.826-0.062,1.187-0.18l0.17,0.905
	c-0.44,0.185-0.975,0.271-1.556,0.265c-1.454-0.008-2.282-0.856-2.273-2.211c0.007-1.089,0.702-2.291,2.183-2.275
	c1.389,0.013,1.903,1.09,1.897,2.158c0,0.228-0.027,0.424-0.045,0.533L96.923,45.319z M98.501,44.424
	c0-0.32-0.134-0.871-0.742-0.877c-0.57-0.003-0.802,0.512-0.836,0.861L98.501,44.424z M106.497,40.891l-0.035,4.944
	c0,0.489,0.013,0.991,0.025,1.282l-1.181-0.01l-0.05-0.623h-0.027c-0.27,0.477-0.799,0.717-1.344,0.705
	c-1.021-0.002-1.84-0.875-1.825-2.209c0-1.439,0.913-2.279,1.938-2.271c0.537,0.007,0.938,0.196,1.129,0.489h0.021l0.013-2.326
	L106.497,40.891z M105.129,44.647c0-0.082,0-0.168-0.012-0.248c-0.074-0.357-0.367-0.651-0.775-0.651
	c-0.614-0.009-0.926,0.536-0.934,1.211c-0.006,0.721,0.354,1.174,0.905,1.181c0.382,0.006,0.702-0.261,0.784-0.63
	c0.02-0.091,0.031-0.2,0.031-0.3V44.647L105.129,44.647z M110.336,45.417c0.037,0.56,0.578,0.829,1.195,0.835
	c0.461,0,0.834-0.059,1.188-0.18l0.171,0.906c-0.441,0.178-0.975,0.27-1.557,0.264c-1.453-0.014-2.282-0.856-2.276-2.207
	c0.014-1.092,0.702-2.295,2.187-2.278c1.383,0.006,1.906,1.09,1.896,2.147c0,0.23-0.024,0.434-0.042,0.537L110.336,45.417z
	 M111.911,44.516c0-0.32-0.134-0.875-0.736-0.875c-0.569-0.006-0.801,0.512-0.838,0.865L111.911,44.516z M115.731,44.307
	c0.006-0.63,0-1.045-0.025-1.414l1.14,0.014l0.046,0.795h0.036c0.227-0.633,0.741-0.893,1.161-0.887c0.127,0,0.19,0.01,0.281,0.027
	l-0.006,1.26c-0.115-0.025-0.227-0.039-0.365-0.039c-0.494-0.008-0.826,0.248-0.914,0.668c-0.021,0.09-0.033,0.186-0.033,0.299
	l-0.021,2.162l-1.324-0.01L115.731,44.307z M121.484,47.315c-0.448,0-0.767-0.345-0.767-0.808c0-0.487,0.334-0.81,0.799-0.81
	c0.449,0,0.77,0.33,0.77,0.82c0,0.467-0.318,0.805-0.789,0.799h-0.013V47.315z M124.377,44.364c0-0.629,0-1.051-0.024-1.407
	l1.132,0.007l0.053,0.796h0.039c0.217-0.633,0.74-0.894,1.16-0.887c0.125,0,0.184,0.012,0.279,0.032L127,44.155
	c-0.112-0.019-0.215-0.039-0.359-0.039c-0.492,0-0.823,0.248-0.922,0.675c-0.018,0.088-0.031,0.179-0.031,0.297l-0.014,2.167
	l-1.33-0.012L124.377,44.364z M129.456,46.125c0.239,0.146,0.752,0.318,1.147,0.318c0.405,0.006,0.571-0.129,0.571-0.35
	c0-0.227-0.127-0.33-0.618-0.499c-0.899-0.3-1.235-0.793-1.218-1.289c0-0.809,0.688-1.411,1.746-1.401
	c0.504,0,0.944,0.127,1.205,0.261l-0.234,0.911c-0.189-0.1-0.564-0.242-0.932-0.242c-0.318-0.006-0.51,0.13-0.51,0.339
	c0,0.212,0.163,0.317,0.688,0.506c0.815,0.278,1.146,0.699,1.146,1.319c0,0.813-0.623,1.396-1.861,1.383
	c-0.562,0-1.058-0.133-1.377-0.309L129.456,46.125z M62.102,42.516l0.34,1.768c0.071,0.438,0.16,0.916,0.225,1.406h0.026
	c0.082-0.48,0.219-0.975,0.318-1.396l0.466-1.769l1.057,0.01l0.416,1.714c0.124,0.487,0.229,0.972,0.306,1.458h0.018
	c0.065-0.482,0.155-0.975,0.265-1.465l0.37-1.697l1.31,0.009l-1.345,4.286l-1.245-0.014l-0.394-1.51
	c-0.112-0.418-0.189-0.803-0.271-1.34h-0.019c-0.083,0.531-0.172,0.938-0.281,1.327l-0.44,1.509l-1.258-0.008l-1.224-4.297
	L62.102,42.516z M143.483,12.408h-1.1l-0.247-1.848l-0.042-0.435l-0.039-0.522c-0.024,0.185-0.092,0.416-0.164,0.676l-0.038,0.127
	l-0.581,2.002h-0.77l-0.59-2.002l-0.031-0.127c-0.084-0.26-0.133-0.491-0.16-0.676c0,0.082-0.004,0.166-0.012,0.242
	c-0.014,0.108-0.027,0.191-0.027,0.243c-0.025,0.17-0.042,0.33-0.063,0.472l-0.248,1.848h-1.094l0.664-4.278h1.161l0.646,2.205
	l0.018,0.078c0.064,0.196,0.098,0.362,0.117,0.504c0-0.031,0-0.064,0.012-0.096c0-0.026,0.018-0.083,0.031-0.16
	c0.021-0.089,0.055-0.192,0.087-0.326l0.655-2.205h1.156L143.483,12.408z M134.62,12.408V8.13h2.614v0.944h-1.479v0.74h1.404v0.912
	h-1.404v0.727h1.479v0.956L134.62,12.408L134.62,12.408z M131.356,12.408V9.144h-0.959V8.13h3.087v1.014h-0.956v3.265
	L131.356,12.408L131.356,12.408z M126.889,11.026c0.168,0.197,0.339,0.346,0.512,0.44c0.163,0.101,0.346,0.151,0.502,0.151
	c0.161,0,0.281-0.044,0.383-0.127c0.1-0.083,0.159-0.191,0.159-0.319c0-0.141-0.049-0.248-0.133-0.326
	c-0.082-0.076-0.288-0.159-0.592-0.241c-0.419-0.114-0.718-0.256-0.89-0.44c-0.179-0.184-0.26-0.434-0.26-0.745
	c0-0.416,0.139-0.745,0.408-1.001c0.281-0.256,0.633-0.383,1.064-0.383c0.236,0,0.453,0.031,0.67,0.088
	c0.22,0.065,0.416,0.16,0.603,0.289l-0.356,0.841c-0.135-0.114-0.269-0.198-0.407-0.256c-0.142-0.057-0.283-0.09-0.416-0.09
	c-0.15,0-0.265,0.04-0.345,0.103c-0.09,0.07-0.138,0.151-0.138,0.26c0,0.101,0.039,0.184,0.116,0.256
	c0.076,0.063,0.229,0.127,0.445,0.184l0.059,0.013c0.471,0.135,0.786,0.274,0.938,0.427c0.096,0.103,0.172,0.229,0.223,0.37
	c0.059,0.154,0.084,0.313,0.084,0.498c0,0.446-0.146,0.809-0.445,1.089c-0.292,0.274-0.693,0.415-1.188,0.415
	c-0.305,0-0.572-0.051-0.814-0.151c-0.242-0.103-0.486-0.255-0.71-0.479L126.889,11.026z M124.008,8.131h1.188v4.278h-1.188V8.131z
	 M120.131,11.026c0.17,0.197,0.344,0.346,0.518,0.44c0.163,0.101,0.337,0.151,0.502,0.151c0.154,0,0.281-0.044,0.383-0.127
	s0.147-0.191,0.147-0.319c0-0.141-0.046-0.248-0.121-0.326c-0.088-0.076-0.279-0.159-0.601-0.241
	c-0.416-0.114-0.707-0.256-0.887-0.44c-0.171-0.184-0.264-0.434-0.264-0.745c0-0.416,0.143-0.745,0.423-1.001
	c0.269-0.256,0.625-0.383,1.062-0.383c0.227,0,0.457,0.031,0.66,0.088c0.219,0.065,0.422,0.16,0.608,0.289l-0.364,0.841
	c-0.134-0.114-0.267-0.198-0.406-0.256c-0.142-0.057-0.275-0.09-0.41-0.09c-0.148,0-0.262,0.04-0.346,0.103
	c-0.088,0.07-0.127,0.151-0.127,0.26c0,0.101,0.032,0.184,0.108,0.256c0.069,0.063,0.224,0.127,0.444,0.184l0.052,0.013
	c0.479,0.135,0.79,0.274,0.938,0.427c0.094,0.103,0.178,0.229,0.227,0.37c0.052,0.154,0.085,0.313,0.085,0.498
	c0,0.446-0.149,0.809-0.448,1.089c-0.296,0.274-0.695,0.415-1.193,0.415c-0.295,0-0.572-0.051-0.813-0.151
	c-0.242-0.103-0.475-0.255-0.702-0.479L120.131,11.026z M115.385,8.131h1.175v4.278h-1.175V8.131z M109.693,12.408V8.13h1.123
	l1.613,2.205c0.022,0.033,0.075,0.121,0.159,0.268c0.07,0.133,0.146,0.293,0.233,0.485c-0.013-0.084-0.024-0.173-0.034-0.255
	c-0.018-0.09-0.018-0.16-0.018-0.225l-0.023-0.364V8.127h1.123v4.279h-1.123l-1.607-2.206c-0.039-0.051-0.092-0.139-0.16-0.268
	c-0.072-0.133-0.154-0.292-0.234-0.479c0.014,0.102,0.025,0.192,0.039,0.273c0.012,0.077,0.012,0.147,0.012,0.198
	c0.013,0.141,0.021,0.262,0.021,0.371v2.109h-1.123V12.408z M105.833,11.026c0.18,0.197,0.348,0.346,0.525,0.44
	c0.163,0.101,0.333,0.151,0.495,0.151c0.155,0,0.282-0.044,0.384-0.127s0.153-0.191,0.153-0.319c0-0.141-0.046-0.248-0.129-0.326
	c-0.089-0.076-0.28-0.159-0.593-0.241c-0.414-0.114-0.713-0.256-0.887-0.44c-0.173-0.184-0.254-0.434-0.254-0.745
	c0-0.416,0.133-0.745,0.408-1.001c0.268-0.256,0.624-0.383,1.059-0.383c0.237,0,0.459,0.031,0.67,0.088
	c0.213,0.065,0.418,0.16,0.608,0.289l-0.371,0.841c-0.127-0.114-0.269-0.198-0.407-0.256c-0.135-0.057-0.274-0.09-0.41-0.09
	c-0.146,0-0.256,0.04-0.344,0.103c-0.09,0.07-0.13,0.151-0.13,0.26c0,0.101,0.04,0.184,0.109,0.256
	c0.077,0.063,0.224,0.127,0.452,0.184l0.05,0.013c0.473,0.135,0.792,0.274,0.938,0.427c0.094,0.103,0.17,0.229,0.223,0.37
	c0.059,0.154,0.091,0.313,0.091,0.498c0,0.446-0.153,0.809-0.453,1.089c-0.299,0.274-0.692,0.415-1.192,0.415
	c-0.291,0-0.574-0.051-0.81-0.151c-0.249-0.103-0.479-0.255-0.708-0.479L105.833,11.026z M102.066,11.536
	c0.317,0,0.593-0.121,0.798-0.358c0.217-0.242,0.319-0.535,0.319-0.899c0-0.179-0.027-0.346-0.077-0.491
	c-0.052-0.146-0.129-0.281-0.242-0.402c-0.21-0.243-0.479-0.364-0.798-0.364c-0.313,0-0.584,0.121-0.796,0.356
	c-0.219,0.243-0.323,0.544-0.323,0.9c0,0.37,0.104,0.669,0.314,0.905C101.47,11.421,101.737,11.536,102.066,11.536z M104.347,10.279
	c0,0.312-0.052,0.6-0.159,0.868c-0.113,0.268-0.281,0.51-0.496,0.714c-0.218,0.21-0.467,0.377-0.754,0.491
	c-0.286,0.115-0.572,0.171-0.872,0.171c-0.306,0-0.603-0.051-0.88-0.171c-0.28-0.114-0.525-0.274-0.742-0.485
	c-0.215-0.21-0.375-0.452-0.49-0.726c-0.113-0.269-0.175-0.556-0.175-0.862c0-0.307,0.056-0.594,0.171-0.862
	c0.11-0.267,0.279-0.51,0.504-0.727c0.207-0.205,0.452-0.365,0.732-0.485c0.287-0.115,0.574-0.172,0.88-0.172
	s0.606,0.058,0.881,0.172c0.288,0.108,0.53,0.274,0.732,0.485c0.218,0.21,0.385,0.453,0.495,0.727
	C104.29,9.685,104.347,9.974,104.347,10.279z M94.292,12.408V8.13h1.13l1.613,2.205c0.024,0.033,0.077,0.121,0.151,0.268
	c0.071,0.133,0.15,0.293,0.241,0.485c-0.013-0.084-0.027-0.173-0.04-0.255c-0.012-0.09-0.015-0.16-0.015-0.225l-0.017-0.361V8.13
	h1.119v4.278h-1.119l-1.613-2.205c-0.039-0.051-0.09-0.14-0.159-0.269c-0.072-0.133-0.149-0.292-0.229-0.477
	c0.009,0.102,0.025,0.191,0.03,0.272c0.009,0.077,0.018,0.147,0.018,0.198c0.01,0.141,0.02,0.262,0.02,0.371v2.108h-1.13V12.408z
	 M90.987,10.152h0.218c0.251,0,0.433-0.037,0.551-0.127c0.112-0.084,0.166-0.217,0.166-0.401c0-0.219-0.05-0.365-0.157-0.459
	c-0.108-0.089-0.29-0.134-0.548-0.134h-0.231L90.987,10.152L90.987,10.152L90.987,10.152z M89.892,12.408V8.13h1.217
	c0.483,0,0.815,0.026,1,0.069c0.182,0.038,0.343,0.115,0.483,0.217c0.155,0.115,0.271,0.267,0.355,0.446
	c0.085,0.192,0.124,0.384,0.124,0.6c0,0.332-0.082,0.599-0.245,0.802c-0.159,0.211-0.396,0.352-0.708,0.422l1.165,1.721h-1.316
	l-0.98-1.67v1.67L89.892,12.408L89.892,12.408z M84.635,8.131h1.155v2.084c0,0.313,0.015,0.542,0.026,0.665
	c0.021,0.127,0.049,0.241,0.082,0.337c0.039,0.101,0.118,0.178,0.233,0.235c0.116,0.065,0.246,0.09,0.405,0.09
	c0.076,0,0.151-0.006,0.221-0.02c0.063-0.013,0.124-0.033,0.185-0.065c0.112-0.064,0.191-0.14,0.236-0.254
	c0.03-0.084,0.056-0.199,0.072-0.34c0.019-0.139,0.027-0.356,0.027-0.65V8.13h1.162v2.264c0,0.236-0.009,0.44-0.021,0.606
	c-0.01,0.179-0.036,0.318-0.066,0.44c-0.055,0.223-0.151,0.408-0.283,0.566c-0.147,0.167-0.35,0.3-0.607,0.383
	c-0.257,0.098-0.564,0.133-0.927,0.133c-0.368,0-0.683-0.037-0.933-0.127c-0.25-0.089-0.451-0.216-0.601-0.389
	c-0.13-0.159-0.225-0.345-0.284-0.566c-0.057-0.229-0.085-0.581-0.085-1.046v-0.44L84.635,8.131L84.635,8.131z M81.081,10.836V9.941
	h2.295l0.003,0.096l0.003,0.154c0,0.734-0.194,1.307-0.584,1.715c-0.391,0.402-0.934,0.606-1.643,0.606
	c-0.172,0-0.331-0.012-0.485-0.033c-0.157-0.031-0.306-0.07-0.438-0.121c-0.267-0.108-0.512-0.26-0.721-0.479
	c-0.207-0.21-0.358-0.453-0.474-0.726c-0.11-0.281-0.168-0.574-0.168-0.878c0-0.319,0.052-0.614,0.16-0.88
	c0.112-0.269,0.272-0.504,0.484-0.721c0.218-0.21,0.466-0.37,0.749-0.471c0.277-0.109,0.578-0.166,0.893-0.166
	c0.42,0,0.789,0.082,1.112,0.247c0.324,0.166,0.597,0.416,0.817,0.741L82.07,9.51c-0.127-0.166-0.259-0.287-0.409-0.37
	c-0.151-0.077-0.319-0.121-0.508-0.121c-0.345,0-0.622,0.121-0.817,0.356c-0.103,0.114-0.179,0.25-0.229,0.409
	c-0.055,0.151-0.076,0.337-0.076,0.534c0,0.409,0.1,0.729,0.298,0.964c0.201,0.235,0.474,0.356,0.825,0.356
	c0.297,0,0.542-0.076,0.741-0.223c0.193-0.141,0.316-0.339,0.348-0.581h-1.162V10.836z M76.366,8.131h1.179v4.278h-1.179V8.131z
	 M72.483,11.026c0.168,0.197,0.344,0.346,0.515,0.44c0.172,0.101,0.337,0.151,0.505,0.151c0.156,0,0.278-0.044,0.379-0.127
	c0.104-0.083,0.154-0.191,0.154-0.319c0-0.141-0.043-0.248-0.13-0.326c-0.082-0.076-0.279-0.159-0.591-0.241
	c-0.414-0.114-0.708-0.256-0.882-0.44C72.26,9.98,72.174,9.73,72.174,9.419c0-0.416,0.135-0.745,0.41-1.001
	c0.271-0.256,0.629-0.383,1.061-0.383c0.234,0,0.454,0.031,0.669,0.088c0.213,0.065,0.418,0.16,0.605,0.289l-0.366,0.841
	c-0.134-0.114-0.267-0.198-0.409-0.256c-0.138-0.057-0.273-0.09-0.411-0.09c-0.143,0-0.261,0.04-0.345,0.103
	c-0.087,0.07-0.128,0.151-0.128,0.26c0,0.101,0.033,0.184,0.109,0.256c0.079,0.063,0.224,0.127,0.448,0.184l0.056,0.013
	c0.471,0.135,0.785,0.274,0.937,0.427c0.097,0.103,0.173,0.229,0.224,0.37c0.057,0.154,0.082,0.313,0.082,0.498
	c0,0.446-0.149,0.809-0.444,1.089c-0.3,0.274-0.699,0.415-1.196,0.415c-0.302,0-0.565-0.051-0.811-0.151
	c-0.242-0.103-0.479-0.255-0.702-0.479L72.483,11.026z M68.712,11.536c0.322,0,0.584-0.121,0.801-0.358
	c0.213-0.242,0.314-0.535,0.314-0.899c0-0.179-0.024-0.346-0.072-0.491c-0.053-0.146-0.139-0.281-0.242-0.402
	c-0.219-0.243-0.482-0.364-0.801-0.364c-0.322,0-0.587,0.121-0.797,0.356c-0.216,0.243-0.319,0.544-0.319,0.9
	c0,0.37,0.099,0.669,0.31,0.905C68.116,11.42,68.383,11.536,68.712,11.536z M70.997,10.279c0,0.312-0.051,0.6-0.163,0.868
	c-0.119,0.268-0.281,0.51-0.499,0.714c-0.212,0.21-0.467,0.377-0.749,0.491c-0.288,0.115-0.578,0.171-0.872,0.171
	c-0.306,0-0.599-0.051-0.88-0.171c-0.281-0.114-0.527-0.274-0.742-0.485c-0.216-0.21-0.372-0.452-0.491-0.726
	c-0.12-0.269-0.177-0.556-0.177-0.862c0-0.307,0.057-0.594,0.172-0.862c0.116-0.267,0.277-0.51,0.504-0.727
	c0.205-0.205,0.45-0.365,0.733-0.485c0.284-0.115,0.578-0.172,0.88-0.172c0.31,0,0.604,0.058,0.881,0.172
	c0.283,0.108,0.529,0.274,0.743,0.485c0.209,0.21,0.373,0.453,0.49,0.727C70.939,9.685,70.997,9.974,70.997,10.279z M63.453,12.408
	V9.144h-0.961V8.13h3.079v1.014h-0.952v3.265L63.453,12.408L63.453,12.408z M57.575,8.131h1.161v2.084
	c0,0.313,0.01,0.542,0.025,0.665c0.021,0.127,0.046,0.241,0.083,0.337c0.043,0.101,0.119,0.178,0.229,0.235
	c0.113,0.065,0.249,0.09,0.409,0.09c0.073,0,0.147-0.006,0.218-0.02c0.067-0.013,0.13-0.033,0.185-0.065
	c0.116-0.064,0.191-0.14,0.237-0.254c0.039-0.084,0.063-0.199,0.082-0.34c0.012-0.139,0.019-0.356,0.019-0.65V8.13h1.161v2.264
	c0,0.236-0.006,0.44-0.021,0.606c-0.016,0.179-0.036,0.318-0.065,0.44c-0.056,0.223-0.15,0.408-0.284,0.566
	c-0.147,0.167-0.344,0.3-0.603,0.383c-0.259,0.098-0.568,0.133-0.928,0.133c-0.372,0-0.685-0.037-0.935-0.127
	c-0.249-0.089-0.453-0.216-0.603-0.389c-0.128-0.159-0.225-0.345-0.277-0.566c-0.061-0.229-0.093-0.581-0.093-1.046v-0.44V8.131
	L57.575,8.131z M52.313,12.408l1.48-4.278h1.461l1.48,4.278h-1.161l-0.213-0.766h-1.658l-0.228,0.766H52.313z M53.95,10.816h1.156
	L54.674,9.4l-0.055-0.205l-0.09-0.37c-0.018,0.059-0.033,0.108-0.036,0.154c-0.013,0.044-0.025,0.096-0.039,0.146L54.38,9.4
	L53.95,10.816z M72.592,37.479v-4.063h1.669v-12.18h-1.669v-4.063H87.33v7.308h-2.854l-1.004-3.245H78.55v3.302h3.231v4.516H78.55
	v4.361h4.922l1.004-3.946h2.854v8.011H72.592z M94.853,21.236v12.179h1.273c1.689,0,2.971-0.51,3.843-1.534
	c0.871-1.035,1.311-2.546,1.311-4.548c0-2.009-0.438-3.532-1.308-4.56c-0.867-1.027-2.148-1.537-3.846-1.537H94.853z M88.804,37.479
	v-4.063h1.662v-12.18h-1.662v-4.063h7.8c1.135,0,2.115,0.083,2.938,0.248c0.824,0.165,1.485,0.416,1.992,0.745
	c1.459,0.95,2.526,2.168,3.213,3.654c0.688,1.48,1.032,3.316,1.032,5.509c0,2.17-0.344,3.99-1.032,5.482
	c-0.691,1.492-1.758,2.719-3.213,3.668c-0.507,0.334-1.168,0.582-1.992,0.746c-0.822,0.165-1.804,0.25-2.938,0.25h-7.8V37.479z
	 M106.893,37.479v-4.063h1.671v-12.18h-1.671v-4.063h14.736v7.308h-2.852l-1.007-3.245h-4.915v3.302h3.227v4.516h-3.227v4.361h4.915
	l1.007-3.946h2.852v8.011H106.893z M129.163,21.236v4.292h1.684c0.777,0,1.354-0.172,1.72-0.523
	c0.371-0.351,0.562-0.893,0.562-1.625c0-0.735-0.189-1.27-0.562-1.628c-0.366-0.343-0.942-0.516-1.72-0.516H129.163z
	 M123.217,37.479v-4.063h1.65v-12.18h-1.65v-4.063h10.14c1.274,0,2.315,0.492,3.11,1.466c0.8,0.976,1.199,2.245,1.199,3.809
	c0,1.122-0.225,2.045-0.664,2.769c-0.446,0.72-1.131,1.307-2.078,1.746c0.805,0.299,1.347,0.657,1.627,1.071
	c0.283,0.414,0.425,1.033,0.425,1.861v3.521h1.479v4.063h-5.75v-4.738c0-1.698-0.156-2.772-0.474-3.221
	c-0.313-0.445-0.907-0.679-1.761-0.679h-1.313v4.569h1.313v4.064h-7.254V37.479L123.217,37.479z M57.335,37.479v-4.063l8.547-12.32
	h-4.237l-0.875,3.099H57.6v-7.021h13.53v3.756l-8.877,12.625h5.181l0.797-4.033h3.013v7.959H57.335V37.479z M169.774,1.13
	l-10.797-0.026l-7.645,7.614l-7.652,7.622l-0.02,10.789l-0.029,10.788l7.613,7.65l7.615,7.65l10.789,0.023l10.789,0.027l7.652-7.613
	l7.652-7.615l0.026-10.786l0.026-10.796l-7.619-7.652l-7.609-7.646L169.774,1.13z M26.144,1.13L15.349,1.103L7.7,8.717l-7.65,7.622
	L0.026,27.126L0,37.915l7.618,7.65l7.614,7.65l10.788,0.023l10.795,0.027l7.65-7.613l7.65-7.615l0.025-10.786l0.022-10.796
	l-7.614-7.652l-7.613-7.646L26.144,1.13z M51.967,40.082h91.922l-1.403-1.413l-0.194-0.473l0.02-11.069l0.025-11.077l0.203-0.473
	l1.289-1.288H51.909l1.405,1.409l0.195,0.479l-0.026,11.072l-0.025,11.068l-0.198,0.479L51.967,40.082z"/>
</svg>
