<?xml version="1.0" encoding="utf-8"?>
<!-- Generator: Adobe Illustrator 16.0.3, SVG Export Plug-In . SVG Version: 6.00 Build 0)  -->
<!DOCTYPE svg PUBLIC "-//W3C//DTD SVG 1.1//EN" "http://www.w3.org/Graphics/SVG/1.1/DTD/svg11.dtd">
<svg version="1.1" id="Layer_1" xmlns="http://www.w3.org/2000/svg" xmlns:xlink="http://www.w3.org/1999/xlink" x="0px" y="0px"
	 width="106.708px" height="53.167px" viewBox="0 0 106.708 53.167" enable-background="new 0 0 106.708 53.167"
	 xml:space="preserve">
<path fill="#58585B" d="M77.241,53.164h-0.255c-2.103,0-4.202-0.002-6.303,0.004c-0.192,0.002-0.286-0.055-0.373-0.233
	c-1.267-2.548-2.542-5.091-3.812-7.636c-0.711-1.428-1.412-2.86-2.123-4.291c-0.07-0.141-0.17-0.272-0.256-0.409
	c-0.027,0.013-0.054,0.026-0.08,0.04c0.097,0.734,0.201,1.47,0.287,2.205c0.051,0.434,0.107,0.869,0.107,1.303
	c0.009,2.958,0.006,5.914,0.006,8.872c0,0.034-0.006,0.069-0.007,0.127h-6.815V29.218c0.242,0,0.477,0.003,0.711,0
	c1.826-0.004,3.652-0.008,5.479-0.014c0.679-0.002,0.685-0.004,0.985,0.612c0.522,1.074,1.037,2.151,1.555,3.229
	c0.414,0.856,0.826,1.716,1.238,2.574c0.682,1.42,1.365,2.844,2.047,4.264c0.375,0.781,0.744,1.564,1.123,2.342
	c0.039,0.085,0.104,0.158,0.158,0.236c0.027-0.008,0.056-0.02,0.082-0.027c-0.015-0.156-0.021-0.311-0.043-0.465
	c-0.084-0.575-0.181-1.146-0.257-1.723c-0.065-0.5-0.12-1-0.165-1.502c-0.197-2.285-0.066-4.578-0.119-6.863
	c-0.021-0.875-0.004-1.748-0.004-2.643h6.83v23.924H77.241z"/>
<path fill="#58585B" d="M38.778,53.153h-7.594c-0.108-0.487-0.608-2.971-0.608-2.956c0,0.006-5.364-0.002-5.364,0
	c-0.061,0.319-0.541,2.776-0.566,2.954h-7.583c0.099-0.375,0.185-0.733,0.286-1.09c0.487-1.706,0.981-3.412,1.466-5.119
	c0.47-1.647,0.927-3.302,1.395-4.952c0.332-1.169,0.672-2.334,1.005-3.503c0.461-1.616,0.917-3.233,1.377-4.849
	c0.312-1.096,0.626-2.188,0.941-3.279c0.089-0.307,0.212-0.607,0.261-0.92c0.034-0.223,0.141-0.223,0.302-0.223
	c1.811,0.002,6.928,0.002,7.696,0.002C34.12,37.193,36.445,45.164,38.778,53.153 M27.923,37.22
	c-0.211-0.043-0.168,0.164-0.191,0.287c-0.107,0.561-0.2,1.121-0.301,1.684c-0.111,0.619-0.227,1.239-0.337,1.859
	c-0.152,0.859-0.301,1.719-0.45,2.578c-0.049,0.274-0.094,0.551-0.142,0.83h2.753C28.811,42.041,28.369,39.639,27.923,37.22"/>
<path fill="#58585B" d="M49.659,53.153h-6.992v-0.312c0-3.223,0.001-6.442-0.005-9.666c0-0.15-0.038-0.313-0.104-0.445
	c-1.519-3.053-3.045-6.102-4.568-9.15c-0.69-1.381-1.382-2.762-2.073-4.143c-0.029-0.061-0.054-0.121-0.098-0.219h0.311h7.281
	c0.521,0,0.512,0.005,0.69,0.513c0.647,1.865,1.301,3.729,1.958,5.591c0.023,0.065,0.091,0.114,0.163,0.203
	c0.202-0.704,0.363-1.355,0.575-1.992c0.465-1.39,0.953-2.771,1.443-4.152c0.023-0.071,0.138-0.133,0.22-0.152
	c0.109-0.027,0.229-0.008,0.343-0.008h7.253h0.327c-0.219,0.439-0.426,0.855-0.631,1.273c-0.857,1.729-1.717,3.461-2.572,5.193
	c-0.548,1.109-1.092,2.223-1.641,3.333c-0.546,1.112-1.094,2.226-1.64,3.336c-0.158,0.323-0.249,0.651-0.247,1.022
	c0.015,3.144,0.007,6.287,0.007,9.428V53.153z"/>
<path fill="#58585B" d="M16.389,44.898c-0.229-1.15-0.735-2.163-1.583-2.98c-0.449-0.437-0.968-0.787-1.543-1.045
	c-0.08-0.037-0.148-0.096-0.259-0.168c0.154-0.086,0.257-0.146,0.365-0.199c0.535-0.262,0.949-0.656,1.29-1.146
	c0.643-0.917,0.906-1.956,0.985-3.047c0.062-0.854-0.011-1.711-0.206-2.548c-0.23-0.996-0.647-1.905-1.363-2.645
	c-0.624-0.643-1.398-1.064-2.239-1.377c-1.321-0.492-2.707-0.547-4.085-0.566c-2.603-0.036-5.208-0.012-7.811-0.012h-0.273v23.998
	h0.323c3.346,0,6.692,0.012,10.036-0.012c0.55-0.004,1.11-0.1,1.645-0.232c0.978-0.242,1.898-0.625,2.69-1.281
	c0.768-0.639,1.357-1.396,1.711-2.327c0.243-0.631,0.372-1.288,0.438-1.968C16.59,46.517,16.55,45.707,16.389,44.898 M6.263,38.333
	v-3.275h1.655c0.31,0,1.192,0.441,1.192,1.303c0,0.862-0.111,1.973-1.589,1.973H6.263H6.251H6.263L6.263,38.333z M9.861,46.05
	c-0.143,0.918-1.119,1.412-1.744,1.412H6.263V43.43h1.852C9.492,43.43,10.088,44.58,9.861,46.05"/>
<g>
	<g>
		<path id="SVGID_1_" fill="#58585B" d="M79.853,9.226c-3.886,5.43-2.163,10.948,1.192,12.978c1.633-4.458,6.004-4.282,7.197-9.799
			C89.188,8.018,86.52,2.781,84.268,0C83.959,2.692,83.553,4.055,79.853,9.226"/>
	</g>
	<g>
		<defs>
			<path id="SVGID_2_" d="M79.853,9.226c-3.886,5.43-2.163,10.948,1.192,12.978c1.633-4.458,6.004-4.282,7.197-9.799
				C89.188,8.018,86.52,2.781,84.268,0C83.959,2.692,83.553,4.055,79.853,9.226"/>
		</defs>
		<use xlink:href="#SVGID_2_"  overflow="visible" fill="#58585B"/>
		<clipPath id="SVGID_4_">
			<use xlink:href="#SVGID_2_"  overflow="visible"/>
		</clipPath>
		<rect x="75.967" clip-path="url(#SVGID_4_)" fill="#58585B" width="13.221" height="22.204"/>
	</g>
</g>
<g>
	<g>
		<path id="SVGID_3_" fill="#58585B" d="M79.792,37.138c1.319,4.164,6.064,7.339,9.28,8.627c-1.036-2.428-1.353-3.773-0.752-9.906
			c0.634-6.439-3.456-10.299-7.231-10.43C81.868,29.98,78.131,31.9,79.792,37.138"/>
	</g>
	<g>
		<defs>
			<path id="SVGID_6_" d="M79.792,37.138c1.319,4.164,6.064,7.339,9.28,8.627c-1.036-2.428-1.353-3.773-0.752-9.906
				c0.634-6.439-3.456-10.299-7.231-10.43C81.868,29.98,78.131,31.9,79.792,37.138"/>
		</defs>
		<use xlink:href="#SVGID_6_"  overflow="visible" fill="#58585B"/>
		<clipPath id="SVGID_8_">
			<use xlink:href="#SVGID_6_"  overflow="visible"/>
		</clipPath>
		<rect x="78.131" y="25.429" clip-path="url(#SVGID_8_)" fill="#58585B" width="10.939" height="20.336"/>
	</g>
</g>
<g>
	<g>
		<path id="SVGID_5_" fill="#58585B" d="M83.016,23.618c2.188-0.103,3.718,1.19,5.462,2.484c1.708,1.269,3.62,2.537,6.548,2.489
			c4.699-0.075,9.156-4.182,11.434-7.191c-2.817,0.329-4.306,0.237-10.484-2.355c-1.753-0.736-3.409-1.063-4.921-1.063
			C86.974,17.981,83.961,20.375,83.016,23.618"/>
	</g>
	<g>
		<defs>
			<path id="SVGID_9_" d="M83.016,23.618c2.188-0.103,3.718,1.19,5.462,2.484c1.708,1.269,3.62,2.537,6.548,2.489
				c4.699-0.075,9.156-4.182,11.434-7.191c-2.817,0.329-4.306,0.237-10.484-2.355c-1.753-0.736-3.409-1.063-4.921-1.063
				C86.974,17.981,83.961,20.375,83.016,23.618"/>
		</defs>
		<use xlink:href="#SVGID_9_"  overflow="visible" fill="#58585B"/>
		<clipPath id="SVGID_10_">
			<use xlink:href="#SVGID_9_"  overflow="visible"/>
		</clipPath>
		<rect x="83.016" y="17.981" clip-path="url(#SVGID_10_)" fill="#58585B" width="23.443" height="10.658"/>
	</g>
</g>
<g>
	<g>
		<path id="SVGID_7_" fill="#58585B" d="M67.404,17.348c-6.483,1.408-7.681,1.37-10.728,0.663c1.729,3.357,5.535,8.118,10.154,9
			c2.944,0.563,5.078-0.418,7.015-1.4c1.884-0.953,3.584-1.907,5.668-1.441c-0.435-3.896-3.89-7.155-9.112-7.155
			C69.458,17.014,68.458,17.122,67.404,17.348"/>
	</g>
	<g>
		<defs>
			<path id="SVGID_11_" d="M67.404,17.348c-6.483,1.408-7.681,1.37-10.728,0.663c1.729,3.357,5.535,8.118,10.154,9
				c2.944,0.563,5.078-0.418,7.015-1.4c1.884-0.953,3.584-1.907,5.668-1.441c-0.435-3.896-3.89-7.155-9.112-7.155
				C69.458,17.014,68.458,17.122,67.404,17.348"/>
		</defs>
		<use xlink:href="#SVGID_11_"  overflow="visible" fill="#58585B"/>
		<clipPath id="SVGID_12_">
			<use xlink:href="#SVGID_11_"  overflow="visible"/>
		</clipPath>
		<rect x="56.678" y="17.014" clip-path="url(#SVGID_12_)" fill="#58585B" width="22.836" height="10.56"/>
	</g>
</g>
</svg>
