<svg id="Layer_1" data-name="Layer 1" xmlns="http://www.w3.org/2000/svg" width="131.4444" height="52.4256" viewBox="0 0 131.4444 52.4256"><defs><style>.cls-1{fill:#59595c;}</style></defs><title>NIS</title><path class="cls-1" d="M52.61,18.8306h0c-.1186-.03-10.8094-2.7889-14.251-4.7866-1.77.8505-2.9966,1.8494-2.9966,2.9768,0,5.8053,21.8859,4.8262,21.2925,12.8072C56.1605,36.3255,44.54,39.9452,34.858,41.7847a3.58,3.58,0,0,1-.9791,3.58,20.9671,20.9671,0,0,1-6.4283,4.5889h0a.01.01,0,0,0-.01.01.01.01,0,0,0,.01-.01c-4.2723,2.4526-4.3613,2.7592-2.8779,2.7592,15.8928-2.5812,23.1123-3.57,34.04-8.6535,6.8931-3.2636,11.8677-7.4766,12.2731-12.8764C71.3906,24.29,61.936,21.3624,52.61,18.8306Z" transform="translate(-0.7778 -0.2872)"/><path class="cls-1" d="M33.3152,38.9463c1.77-.8505,2.9966-1.8494,2.9966-2.9867,0-5.8052-21.8859-4.836-21.2925-12.8072.4944-6.4975,12.1148-10.1171,21.7969-11.9566a3.5634,3.5634,0,0,1,.9791-3.57,21.2059,21.2059,0,0,1,6.4382-4.5987.01.01,0,0,0-.01.01C48.5058.594,48.5948.2775,47.1114.2874c-15.9027,2.5812-23.1123,3.57-34.04,8.6535C6.1779,12.2045,1.2033,16.4175.7979,21.8173c-.5143,6.8833,8.94,9.8106,18.2662,12.3424h0C19.1828,34.1894,29.8736,36.9486,33.3152,38.9463Z" transform="translate(-0.7778 -0.2872)"/><rect class="cls-1" x="80.0377" y="35.1779" width="51.3968" height="0.5143"/><path class="cls-1" d="M83.3176,28.73h2.9768V16.7637h0V15.5868l.1385.1385-.01.01,7.17,10.6611a7.0337,7.0337,0,0,0,1.7307,1.9087c.01,0,.01.01.02.01a1.9221,1.9221,0,0,0,.3066.1681h0a2.6922,2.6922,0,0,0,.6922.2176,2.1059,2.1059,0,0,0,.3857.04H101.01V16.7637h0V7.7245H98.0335a2.4944,2.4944,0,0,0-2.4922,2.4922V20.69l-7.15-10.6215A7.0329,7.0329,0,0,0,86.66,8.16c-.01,0-.01-.01-.02-.01a1.91,1.91,0,0,0-.3065-.1682h0a2.4171,2.4171,0,0,0-.7022-.2175,1.991,1.991,0,0,0-.3758-.04h-4.44v8.3172h0V26.238A2.4965,2.4965,0,0,0,83.3176,28.73Z" transform="translate(-0.7778 -0.2872)"/><path class="cls-1" d="M108.21,28.73h2.9768V10.2167a2.4944,2.4944,0,0,0-2.4922-2.4922h-2.9768V26.238A2.4944,2.4944,0,0,0,108.21,28.73Z" transform="translate(-0.7778 -0.2872)"/><path class="cls-1" d="M116.7547,18.5834a11.2664,11.2664,0,0,0,4.3119,1.6417c2.8087.6132,4.2823.9395,4.4009.9791.0495.01,1.3055.3066,1.3055,1.345,0,.7714-.4352,1.2461-1.3252,1.4439a4.4425,4.4425,0,0,1-.9989.0989h-6.547a2.3635,2.3635,0,0,0-1.0186.2274,2.55,2.55,0,0,0-1.2264,1.2066,2.4862,2.4862,0,0,0-.2472,1.0582V28.74h7.6942c3.1252,0,5.4987-.6824,7.0613-2.0274a5.6326,5.6326,0,0,0,1.74-2.7691,6.3313,6.3313,0,0,0,.2572-1.77,5.06,5.06,0,0,0-2.0274-4.2922,11.1371,11.1371,0,0,0-4.3119-1.6417c-3.8076-.8406-4.3317-.9593-4.401-.979-.01,0-1.3054-.2967-1.3054-1.345,0-.7714.4352-1.2461,1.3252-1.4439a4.3193,4.3193,0,0,1,.9989-.0989h6.5371a2.3636,2.3636,0,0,0,1.0186-.2275,2.5268,2.5268,0,0,0,1.4736-2.2647V7.7146h-7.6942c-3.1252,0-5.4987.6824-7.0613,2.0274a5.7038,5.7038,0,0,0-1.7405,2.7691,6.384,6.384,0,0,0-.2572,1.77A5.1117,5.1117,0,0,0,116.7547,18.5834Z" transform="translate(-0.7778 -0.2872)"/><path class="cls-1" d="M83.1791,45.5526h.722v.989a1.49,1.49,0,0,1-.5143.0593,1.4028,1.4028,0,0,1-1.4735-1.5329,1.4173,1.4173,0,0,1,1.5527-1.5131,2.4243,2.4243,0,0,1,1.0779.1978l.2176-.85a3.29,3.29,0,0,0-1.2955-.2176,2.4158,2.4158,0,0,0-2.67,2.4428,2.3656,2.3656,0,0,0,.6626,1.7109,2.6422,2.6422,0,0,0,1.8989.6231,5.02,5.02,0,0,0,1.5625-.2671V44.7318H83.1792Z" transform="translate(-0.7778 -0.2872)"/><path class="cls-1" d="M86.9966,42.7242,85.5725,47.402H86.66l.3363-1.1966h1.3351l.356,1.1966h1.1571L88.391,42.7242Zm.1483,2.69.2769-.989c.0791-.267.1484-.623.2176-.9h.01c.0692.277.1483.6231.2373.9l.2868.989Z" transform="translate(-0.7778 -0.2872)"/><polygon class="cls-1" points="91.015 46.215 93.191 43.05 93.191 42.437 89.799 42.437 89.799 43.317 91.826 43.317 91.826 43.337 89.601 46.541 89.601 47.115 93.221 47.115 93.221 46.235 91.015 46.235 91.015 46.215"/><path class="cls-1" d="M97.6873,43.06a2.2493,2.2493,0,0,0-1.4241-.3758,8.0872,8.0872,0,0,0-1.4241.0989v4.6086h1.0483V45.7109a1.85,1.85,0,0,0,.356.03,2.2076,2.2076,0,0,0,1.5231-.4944,1.446,1.446,0,0,0,.4252-1.1077A1.3582,1.3582,0,0,0,97.6873,43.06ZM96.2336,44.94a1.6413,1.6413,0,0,1-.3561-.03V43.5252a2.02,2.02,0,0,1,.4253-.03c.534,0,.8307.2571.8307.6824C97.1434,44.6527,96.7973,44.94,96.2336,44.94Z" transform="translate(-0.7778 -0.2872)"/><path class="cls-1" d="M101.5641,45.2065v-.02a1.2328,1.2328,0,0,0,.8209-1.1472,1.2,1.2,0,0,0-.4352-.989,2.3764,2.3764,0,0,0-1.5131-.3659,8.6852,8.6852,0,0,0-1.4044.0989v4.6086h1.0484v-1.84h.3164c.4352.01.6429.1583.7714.7517a6.0941,6.0941,0,0,0,.3165,1.0878h1.078c-.089-.178-.2275-.7912-.3758-1.3252A1.1751,1.1751,0,0,0,101.5641,45.2065Zm-1.0681-.4055h-.4153V43.5154a2.2593,2.2593,0,0,1,.4747-.03c.4846,0,.7813.2176.7813.6428C101.3367,44.534,101.02,44.801,100.496,44.801Z" transform="translate(-0.7778 -0.2872)"/><path class="cls-1" d="M105.342,42.6451a2.2677,2.2677,0,0,0-2.2747,2.4526,2.1863,2.1863,0,0,0,2.1956,2.3834,2.2189,2.2189,0,0,0,2.2944-2.4625A2.17,2.17,0,0,0,105.342,42.6451Zm-.02,3.9954c-.7121,0-1.1373-.6428-1.1373-1.5626,0-.91.4154-1.5922,1.1373-1.5922.7318,0,1.1274.7219,1.1274,1.5626C106.45,45.9581,106.0343,46.6405,105.3222,46.6405Z" transform="translate(-0.7778 -0.2872)"/><path class="cls-1" d="M111.84,42.7242l-.4945,1.5527c-.1582.5241-.3164,1.1373-.445,1.6812h-.03c-.1088-.5439-.2472-1.1274-.3956-1.6713l-.4549-1.5626h-1.4043l-.2967,4.6778h.9791l.089-1.78c.03-.5835.0593-1.3055.0791-1.9384h.01c.1187.6131.267,1.2758.4252,1.83l.4945,1.8h.8209l.5637-1.82c.178-.5439.3758-1.2164.5241-1.81h.01c0,.6824.02,1.3549.04,1.9186l.0791,1.79h1.0285l-.2472-4.6778H111.84Z" transform="translate(-0.7778 -0.2872)"/><path class="cls-1" d="M119.237,44.089c0,.712.02,1.3351.0791,1.9581h-.01a15.8409,15.8409,0,0,0-.7615-1.6021l-.9692-1.7109h-1.2363v4.6778h.9692V46.0076c0-.7615-.01-1.4241-.0494-2.0472h.03A15.9677,15.9677,0,0,0,118.1,45.612l.9989,1.8h1.1076V42.7341h-.9692Z" transform="translate(-0.7778 -0.2872)"/><polygon class="cls-1" points="121.575 45.137 123.285 45.137 123.285 44.276 121.575 44.276 121.575 43.307 123.394 43.307 123.394 42.437 120.516 42.437 120.516 47.115 123.493 47.115 123.493 46.245 121.575 46.245 121.575 45.137"/><polygon class="cls-1" points="124.383 47.115 125.441 47.115 125.441 45.236 127.123 45.236 127.123 44.375 125.441 44.375 125.441 43.307 127.241 43.307 127.241 42.437 124.383 42.437 124.383 47.115"/><polygon class="cls-1" points="127.845 42.437 127.845 43.327 129.11 43.327 129.11 47.115 130.169 47.115 130.169 43.327 131.444 43.327 131.444 42.437 127.845 42.437"/></svg>